<?xml version="1.0" encoding="utf-8"?>
<!-- Generator: Adobe Illustrator 25.0.0, SVG Export Plug-In . SVG Version: 6.00 Build 0)  -->
<svg version="1.1" id="Layer_1" xmlns="http://www.w3.org/2000/svg" xmlns:xlink="http://www.w3.org/1999/xlink" x="0px" y="0px"
	 viewBox="0 0 400 300" style="enable-background:new 0 0 400 300;" xml:space="preserve">
<style type="text/css">
	.st0{fill:#D39972;}
	.st1{fill:#03082D;}
	.st2{fill:#E6E6E6;}
	.st3{opacity:8.000000e-02;enable-background:new    ;}
	.st4{opacity:0.45;fill:#E6E6E6;enable-background:new    ;}
	.st5{fill:#F2F2F2;}
	.st6{fill:#AA7F63;}
	.st7{opacity:0.31;fill:#CE8172;enable-background:new    ;}
	.st8{fill:#2EBC7F;}
	.st9{fill:#49E287;}
	.st10{fill:#FFD039;}
	.st11{fill:#FFFFFF;}
	.st12{fill:#1D2B72;}
	.st13{fill:#3C44B1;}
	.st14{opacity:0.79;fill:#A5A5A5;enable-background:new    ;}
	.st15{opacity:0.45;fill:#A5A5A5;enable-background:new    ;}
	.st16{opacity:0.34;fill:#A5A5A5;enable-background:new    ;}
	.st17{fill:#A5A5A5;}
	.st18{opacity:0.31;fill:#A5A5A5;enable-background:new    ;}
	.st19{opacity:0.19;fill:#A5A5A5;enable-background:new    ;}
</style>
<path class="st0" d="M304,196.3c0,0,19.3,30.8,40.3,35.8l3.1-5.3c0,0-21.3-17.8-28.8-43.1L304,196.3z"/>
<path class="st1" d="M344.3,232.1c0,0,3.7,11.6,6.5,10.5s-1.5-10.5-1.5-10.5s5.2-4.1-1.9-5.2L344.3,232.1z"/>
<rect x="57.6" y="45.3" class="st2" width="245" height="174.8"/>
<path class="st3" d="M259.8,85.3c0,0-10.6,3-7.8,12.9s18,33.7,18,33.7s-3.6,19.3-9,21.6s-49.3-9.7-49.3-9.7s-4.1-3.4-8-0.9
	s-0.6,8.7,5.1,11.9c5.2,2.8,11.8,23.5,39.1,26.2c5.3,0.5,9.7,4.1,11.2,9.2l8.5,30H297l-4.6-21.8l3-69l-8.2-17.7L259.8,85.3z"/>
<path class="st0" d="M273.2,127c0,0-3.3,25.9-28.5,22.8s-26-9-31.3-13.2s-11.2-0.1-7.4,1.1c5.6,1.8,2.6,5.9-0.6,4.7
	s-1.5,6.6,6.8,5.8c4.4-0.5,28.2,31.4,68.8,9.2L273.2,127z"/>
<ellipse class="st4" cx="304.7" cy="257.7" rx="59.1" ry="11.4"/>
<rect x="268.9" y="45.3" class="st3" width="33.5" height="26.4"/>
<rect x="268.9" y="30.2" class="st5" width="56.2" height="34.3"/>
<path class="st0" d="M262.8,91.8c0,0-0.2,6.5,1.1,10.8c0.5,1.7,2.4,2.7,4.1,2.1l0,0c2.1-0.7,4.8-2.3,5.4-5.8l1.6-5.8
	c0.4-2.5-0.7-4.9-2.9-6.1C268.3,84.6,262.7,87.8,262.8,91.8z"/>
<polygon class="st0" points="274.1,94.7 284.2,114.1 273.2,118.4 270.4,103.1 "/>
<path class="st6" d="M270,97c0,0-0.1-2.5,1.8-2.4s2,3.7-0.5,4.2L270,97z"/>
<path class="st0" d="M262.9,95.9l-1.7,2.6c-0.3,0.5-0.2,1.2,0.3,1.5c0.1,0.1,0.3,0.1,0.4,0.1l2.5,0.3L262.9,95.9z"/>
<path class="st7" d="M270.5,103.6c1.2-0.8,2.2-1.9,2.8-3.2c0,0,2.5,3.9-2,7.6L270.5,103.6z"/>
<path class="st0" d="M291.1,194.7c0,0,7.4,35.6,25.4,47.5l4.8-3.9c0,0-13.8-24-12-50.4L291.1,194.7z"/>
<circle class="st8" cx="74.2" cy="60" r="4.5"/>
<circle class="st9" cx="87.5" cy="60" r="4.5"/>
<circle class="st10" cx="100" cy="60" r="4.5"/>
<path class="st8" d="M290.9,112.6c0,0,12.8,4.2,17.7,15.8s6.7,45.1,6.7,45.1l-28.3,6.2c-0.8-4.6,0.7-5-2.3-13.7s-5.2-5.2-10.8-10.2
	s-11.8-11.8-6.5-24.2l5.6-13C273.2,118.4,279.2,114.8,290.9,112.6z"/>
<path class="st11" d="M276.7,112.6c0,0-8.7,2.4-5,9.4s19.3-9.5,19.3-9.5L276.7,112.6z"/>
<path class="st1" d="M260.4,88.5c0,0,1.9,5.6,11,4.3c0,0,0.8,23.7,11.3,22.9s11-7,7.9-13.4s-9.6-9.4-9.5-14.9s-4-8.9-9-9.7
	S257.1,78.5,260.4,88.5z"/>
<path class="st3" d="M282.7,131.9c0,0-6.6,13.1,6.4,21s19.9,16.1-2,26.7l23.1-5l8.3-15.4v-12.1L282.7,131.9z"/>
<path class="st12" d="M315.4,173.5c0,0,5.7,4,7.6,14.5s10.4,17.8,10.4,17.8s-12.4,13.1-35.5,17.3c-6.6-13.6-10.2-28.3-10.7-43.4
	L315.4,173.5z"/>
<path class="st0" d="M282.6,129.2c0.8-6.7,8-10.6,14.2-8.2c8.3,3.3,16,8.1,22.6,14.1c15.5,14,11.5,33.7-15,54.1l-4.1-5.6
	c0,0,22.9-27.5,7-35.1C295.2,142.6,281.4,139,282.6,129.2z"/>
<rect x="300.3" y="180.2" transform="matrix(0.8092 -0.5875 0.5875 0.8092 -51.0293 213.1515)" class="st13" width="4.8" height="9.9"/>
<rect x="273.6" y="173.1" transform="matrix(0.9537 -0.3007 0.3007 0.9537 -43.9958 94.7482)" class="st10" width="24.4" height="34.4"/>
<rect x="300.3" y="180.2" transform="matrix(0.8092 -0.5875 0.5875 0.8092 -51.0293 213.1515)" class="st10" width="4.8" height="9.9"/>
<path class="st3" d="M291.1,190.5c0,0,3.2,12.7-13.4,15l1.5,4.8l23.3-7.4l-3.3-10.4L291.1,190.5z"/>
<path class="st1" d="M316.5,242.3c0,0-0.6,12.1,2.5,12.1s2.3-10.4,2.3-10.4s6.3-2.1,0-5.6L316.5,242.3z"/>
<path class="st0" d="M298.8,183.9c0,0-7.6,1.3-7.9,5.1s4.9,8.1,12.1,0.7L298.8,183.9z"/>
<path class="st11" d="M128.8,186.7c-27,0-48.9-21.9-48.9-48.9s21.9-48.9,48.9-48.9s48.9,21.9,48.9,48.9c0,11.2-3.8,22-10.8,30.7
	l-14-11.3c4.4-5.5,6.9-12.3,6.8-19.4c0-17.1-13.8-30.9-30.9-30.9s-30.9,13.8-30.9,30.9s13.8,30.9,30.9,30.9L128.8,186.7z"/>
<path class="st9" d="M177.7,137.8h-18c0-17.1-13.9-30.9-30.9-30.9v-18C155.8,88.9,177.7,110.8,177.7,137.8z"/>
<path class="st8" d="M128.8,186.7v-18c8.3,0,16.3-3.3,22.1-9.3c0.2-0.2,0.4-0.4,0.5-0.6c5.3-5.7,8.3-13.2,8.3-21.1h18
	c0,12.4-4.7,24.3-13.1,33.3c-0.3,0.3-0.6,0.6-0.8,0.9C154.6,181.4,142,186.8,128.8,186.7z"/>
<path class="st10" d="M128.7,186.7v-18c8.3,0,16.3-3.3,22.1-9.3l0.5-0.5l13.2,12.3l-0.8,0.9C154.5,181.4,141.9,186.8,128.7,186.7z"
	/>
<rect x="193" y="90.1" class="st14" width="9.7" height="8"/>
<rect x="193" y="103.1" class="st15" width="9.7" height="8"/>
<rect x="193" y="116.1" class="st16" width="9.7" height="8"/>
<rect x="211.5" y="90.1" class="st14" width="28.9" height="8"/>
<rect x="211.5" y="103.1" class="st15" width="28.9" height="8"/>
<rect x="211.5" y="116.1" class="st16" width="28.9" height="8"/>
<rect x="114.3" y="198.3" class="st16" width="28.9" height="8"/>
<path class="st17" d="M127.4,149.5L127.4,149.5c-1.1,0-2.1-0.6-2.6-1.5l-5.9-10.1c-0.9-1.4-0.5-3.3,0.9-4.1c1.4-0.9,3.3-0.5,4.1,0.9
	c0,0.1,0.1,0.1,0.1,0.2l3.5,6l9.6-14.4c0.9-1.4,2.8-1.8,4.2-0.8c1.4,0.9,1.8,2.8,0.8,4.2L130,148.2
	C129.4,149,128.5,149.5,127.4,149.5z"/>
<rect x="282.3" y="46.5" class="st14" width="6.6" height="9.7"/>
<rect x="294.9" y="40.6" class="st18" width="6.6" height="15.5"/>
<rect x="306.4" y="50.4" class="st19" width="6.6" height="5.7"/>
</svg>
