<?xml version="1.0" encoding="utf-8"?>
<!-- Generator: Adobe Illustrator 25.0.0, SVG Export Plug-In . SVG Version: 6.00 Build 0)  -->
<svg version="1.1" id="Layer_1" xmlns="http://www.w3.org/2000/svg" xmlns:xlink="http://www.w3.org/1999/xlink" x="0px" y="0px"
	 viewBox="0 0 400 300" style="enable-background:new 0 0 400 300;" xml:space="preserve">
<style type="text/css">
	.st0{fill:#E6E6E6;}
	.st1{opacity:0.2;fill:#A5A5A5;enable-background:new    ;}
	.st2{fill:#FFFFFF;}
	.st3{fill:none;stroke:#A5A5A5;stroke-width:4;stroke-linecap:round;stroke-linejoin:round;}
	.st4{opacity:0.4;fill:#A5A5A5;enable-background:new    ;}
	.st5{fill:#D39972;}
	.st6{opacity:0.45;fill:#E6E6E6;enable-background:new    ;}
	.st7{fill:#49E287;}
	.st8{opacity:8.000000e-02;enable-background:new    ;}
	.st9{fill:#FFD039;}
	.st10{opacity:0.31;fill:#CE8172;enable-background:new    ;}
	.st11{fill:#AA7F63;}
	.st12{opacity:6.000000e-02;enable-background:new    ;}
	.st13{fill:#1D2B72;}
	.st14{fill:#2EBC7F;}
	.st15{fill:#03082D;}
</style>
<rect x="246.6" y="32.2" class="st0" width="76.6" height="96.8"/>
<path class="st1" d="M249.8,52.5c0,0,14-1.3,14.3,10.7c0,0-1,21.8,8.1,31.9s32-12.6,38.4,34h-22.6l-31-24.1l-8.9-33.4L249.8,52.5z"
	/>
<circle class="st2" cx="298.2" cy="72.2" r="14.6"/>
<polyline class="st3" points="291.7,70.8 295.7,76.9 303.4,67.4 "/>
<rect x="282.2" y="41.3" class="st4" width="29.1" height="7.1"/>
<rect x="83" y="32.2" class="st0" width="76.6" height="96.8"/>
<path class="st1" d="M156.3,52.5c0,0-14-1.3-14.3,10.7c0,0,1,21.8-8.1,31.9s-32-12.6-38.4,34h22.6l31-24.1l8.9-33.4L156.3,52.5z"/>
<path class="st5" d="M174.7,93.7c0,0,11.9,14.1,16.9,22.6s22.4,10.6,33.9-10.8c6.8-12.7,8.4-19.5,14.1-15.4s-7.3,21.3-7.3,21.3
	s-5.8,39.8-57.6,27.6C107.4,123.2,174.7,93.7,174.7,93.7z"/>
<ellipse class="st6" cx="199" cy="262.2" rx="130.3" ry="18.7"/>
<path class="st7" d="M277.7,97c6.1,23,14.3,82.7-68.9,75.6v-8.2c0,0,38-5.8,43-22.2c4.2-14-8.3-50.9,10-55.1
	C268.8,85.4,275.8,90,277.7,97z"/>
<path class="st8" d="M279.7,96.5c6.1,23,14.3,82.7-68.9,75.6v-8.2c0,0,38-5.8,43-22.2c4.2-14-8.3-50.9,10-55.1
	C270.8,84.9,277.8,89.5,279.7,96.5z"/>
<path class="st5" d="M170,58.3c0,0,0.7,7.7-0.6,12.8c-0.5,2.1-2.6,3.3-4.7,2.8c0,0,0,0,0,0c-2.6-0.7-5.8-2.4-6.7-6.4l-2.3-6.7
	c-0.7-2.9,0.6-5.8,3.1-7.4C163,50.2,169.8,53.6,170,58.3z"/>
<polygon class="st5" points="156.8,62.5 148,81.9 159.4,90.3 161.7,72.1 "/>
<path class="st9" d="M168.1,58.6c-2.4,0.1-4.8-0.1-7.1-0.5c1.4,2.1,1.4,4.9,0,7.1c-1.3,2.1-4,3-6.3,2.1l0.1-9.9
	c-0.1-2.9,1.5-5.6,4-7c1.1-0.6,2.2-1.2,3.3-1.6c2.9-1.1,7,0.8,9.6-1.2c0.8-0.6,2-0.4,2.6,0.4c0.2,0.2,0.3,0.5,0.3,0.8
	c0.4,3-0.1,7.8-4.2,9.4C169.7,58.4,168.9,58.6,168.1,58.6z"/>
<path class="st5" d="M161.8,64.9c0,0,0-3-2.3-2.7s-2.2,4.5,0.9,4.9L161.8,64.9z"/>
<path class="st5" d="M170.2,63.2l2.1,3c0.4,0.5,0.3,1.3-0.3,1.7c-0.2,0.1-0.3,0.2-0.5,0.2l-2.9,0.6L170.2,63.2z"/>
<path class="st10" d="M161.7,72.6c-1.5-0.9-2.7-2.1-3.5-3.6c0,0-2.7,4.8,2.9,8.8L161.7,72.6z"/>
<path class="st11" d="M234.9,60.7c0,0-0.7,7.7,0.6,12.8c0.5,2.1,2.6,3.3,4.7,2.8c0,0,0,0,0,0c2.6-0.7,5.8-2.4,6.7-6.4l2.3-6.7
	c0.7-2.9-0.6-5.8-3.1-7.4C241.8,52.6,235,56,234.9,60.7z"/>
<polygon class="st11" points="248.1,64.9 256.9,84.3 245.4,92.8 243.1,74.5 "/>
<path class="st11" d="M243.1,67.3c0,0,0.1-3,2.3-2.8s2.2,4.5-0.9,4.9L243.1,67.3z"/>
<path class="st11" d="M234.7,65.6l-2.1,3c-0.4,0.5-0.3,1.3,0.3,1.7c0.2,0.1,0.3,0.2,0.5,0.2l2.9,0.6L234.7,65.6z"/>
<path class="st12" d="M243.2,75.1c1.5-0.9,2.7-2.1,3.5-3.6c0,0,2.7,4.8-2.9,8.8L243.2,75.1z"/>
<path class="st7" d="M190.9,115.1l-7.9,25.5l-16.1-2.6l7.2-45.2C174.1,92.8,186,105.7,190.9,115.1z"/>
<path class="st8" d="M190.9,115.1l-7.9,25.5l-16.1-2.6l7.2-45.2C174.1,92.8,186,105.7,190.9,115.1z"/>
<polygon class="st13" points="291.8,173.5 283.2,256.3 274.4,256.3 267.6,191.4 252,179.6 "/>
<polygon class="st13" points="252,179.6 252,256.4 262.4,256.4 271.9,188.7 "/>
<path class="st14" d="M169.4,87.8c-5.3-4.1-11.7-6.3-18.4-6.4c-10.8,0-28.9,8.1-32.6,35.2s0.1,57,0.1,57l39.7,6
	C158.2,179.5,202,116.3,169.4,87.8z"/>
<path class="st8" d="M161.8,173.7l-3.6,5.9l-39.7-6c0,0-8-58.4,9.1-77.6l13.6,20.8L161.8,173.7z"/>
<path class="st14" d="M239.6,90.1c5.2-4.2,11.7-6.5,18.4-6.7c10.8-0.1,29,7.7,33.2,34.7s0.7,57,0.7,57l-39.7,6.6
	C252.2,181.7,207.5,119,239.6,90.1z"/>
<path class="st5" d="M125.8,103.2c-4.3,23.4-7.9,83.5,74.5,70.1l-0.6-8.2c0,0-38.3-2.8-44.6-18.9c-5.3-13.6,4.4-51.4-14.1-54.2
	C133.8,91,127.2,96.1,125.8,103.2z"/>
<path class="st7" d="M123.9,103.5c-1.8,8.4-1.7,17.2,0.3,25.5l29-0.2c0,0,4.8-29.8-7.8-37.4c0,0-3-2.6-9-1.1
	C130.1,92,125.2,97.1,123.9,103.5z"/>
<path class="st15" d="M154.9,256.4c0,0,0.9,4.1,4.3,4.8s3.9,4.3,0.6,4.8s-10.9-4.7-10.9-4.7l0.9-5L154.9,256.4z"/>
<path class="st15" d="M106.7,256.4c0,0-0.9,4.1-4.3,4.8s-3.9,4.3-0.7,4.8s10.9-4.7,10.9-4.7l-0.9-5L106.7,256.4z"/>
<path class="st8" d="M254,107.9c0,0-4.5,16.1,10.2,28.3c14.7,12.2,12.1,33.9-16.1,39.2l4.1,6.3l42.4-7.2l2-29.7l-15.2-30.6
	L254,107.9z"/>
<rect x="196" y="162.7" transform="matrix(0.9971 -7.671903e-02 7.671903e-02 0.9971 -12.3294 15.7352)" class="st9" width="5.3" height="11.3"/>
<path class="st15" d="M230.9,55.7c0,0-1.9,5.4,5.4,5.5s4.3,6.8,10.1,7.2s6.8-2,6.5-6.3s0.4-12.6-5.9-14.1S229.9,44.9,230.9,55.7z"/>
<path class="st7" d="M252.7,103.3c-0.6-9.8,9.8-16.7,18.8-12.7c12.8,5.5,33.8,16,37.5,38.1c5.8,34.9-11,47.8-30.1,62.8l-4.3-8.8
	c0,0,23.3-25.2,10-48.3C274.3,116.7,253.5,116.8,252.7,103.3z"/>
<polygon class="st11" points="275.1,183.7 269.9,186.2 274.4,193.8 278.8,191.4 "/>
<polygon class="st13" points="158.2,179.6 158.2,256.4 147.8,256.4 138.3,188.7 "/>
<path class="st11" d="M216.4,162.8l1,10.4c0,0-8,3.6-12.7,0.9S206,159.6,216.4,162.8z"/>
<path class="st15" d="M254.5,256.4c0,0-0.9,4.1-4.3,4.8s-3.9,4.3-0.6,4.8s10.9-4.7,10.9-4.7l-0.9-5L254.5,256.4z"/>
<path class="st15" d="M276.4,256.4c0,0-0.9,4.1-4.3,4.8s-3.9,4.3-0.6,4.8s10.9-4.7,10.9-4.7l-0.9-5L276.4,256.4z"/>
<polygon class="st13" points="118.4,173.5 104,256.3 115,256.4 138.7,191.4 158.2,179.6 "/>
<path class="st5" d="M201.1,164.9c0,0,3.2-3.6,6.6-2s0.8,1.7,3.8,3.4s7.4,9.4-9.7,7.5L201.1,164.9z"/>
<circle class="st2" cx="108" cy="72.2" r="14.6"/>
<polyline class="st3" points="102.8,70.8 106.8,76.9 114.4,67.5 "/>
<rect x="94.8" y="41.3" class="st4" width="29.2" height="7.1"/>
<path class="st9" d="M169.1,71.9c0,0-0.4-0.9-1.5,0.2c-1,1.2-1.5-0.1-2.3,0.8c-0.9,0.9-0.7,1.3-0.1,1.8c0.6,0.5,1.6,1.5,2.6,0.7
	S170.6,73,169.1,71.9z"/>
<path class="st15" d="M238.9,71.4c-0.1,0.7-0.7,1.3-1.4,1.5c-0.3,0.1-0.6,0.2-0.9,0.2c-0.8,0.1-1.7-0.6-2.4-0.2
	c-0.2,0.1-0.5,0-0.6-0.2c0-0.1,0-0.2,0-0.2c0.1-0.8,0.5-1.9,1.5-2.1c0.2,0,0.4,0,0.6,0c0.6,0.1,1.2,0.3,1.7,0.5"/>
</svg>
