<?xml version="1.0" encoding="utf-8"?>
<!-- Generator: Adobe Illustrator 25.0.0, SVG Export Plug-In . SVG Version: 6.00 Build 0)  -->
<svg version="1.1" id="Layer_1" xmlns="http://www.w3.org/2000/svg" xmlns:xlink="http://www.w3.org/1999/xlink" x="0px" y="0px"
	 viewBox="0 0 400 300" style="enable-background:new 0 0 400 300;" xml:space="preserve">
<style type="text/css">
	.st0{fill:#F4A28C;}
	.st1{fill:#49E287;}
	.st2{opacity:0.45;fill:#E6E6E6;enable-background:new    ;}
	.st3{fill:#E6E6E6;}
	.st4{fill:#D39972;}
	.st5{opacity:0.31;fill:#CE8172;enable-background:new    ;}
	.st6{fill:#03082D;}
	.st7{fill:#A5A5A5;}
	.st8{fill:#C9C9C9;}
	.st9{fill:#2EBC7F;}
	.st10{fill:#1D2B72;}
	.st11{opacity:8.000000e-02;enable-background:new    ;}
	.st12{fill:#FFD039;}
	.st13{fill:#FFFFFF;}
	.st14{fill:#3C44B1;}
	.st15{fill:none;stroke:#A5A5A5;stroke-miterlimit:10;}
</style>
<path class="st0" d="M79,184.4c0,0-6.7-5.4-9.3-1.8c-2.6,3.6,8,9.8,8,9.8L79,184.4z"/>
<path class="st1" d="M136.3,104.6c0,0-28,7.4-20,45.8s-16.7,36.9-37.7,33.5l-1.3,9.8c0,0,55,17,62.3-31.3S136.3,104.6,136.3,104.6z"
	/>
<ellipse class="st2" cx="209.8" cy="250.9" rx="148.4" ry="20.9"/>
<polygon class="st3" points="50.5,124.1 50.5,149.5 65.7,149.5 69,159.6 72.9,149.5 88.1,149.5 88.1,124.1 "/>
<path class="st4" d="M138.4,78.1c0,0-1.5,5.3-1.2,9.1c0.1,1.5,1.4,2.7,3,2.6l0,0c2.4,0,4.6-1.5,5.6-3.7l2.5-4.4
	c0.8-1.9,0.4-4.2-1.2-5.6C144.4,73.3,139.2,74.8,138.4,78.1z"/>
<polygon class="st4" points="147.2,82.8 151.5,100.4 141.7,102.1 142.4,89 "/>
<path class="st4" d="M137.7,81.5l-1.9,1.8c-0.4,0.3-0.4,0.9,0,1.3c0.1,0.1,0.2,0.2,0.3,0.2l2,0.8L137.7,81.5z"/>
<path class="st5" d="M142.4,89.3c0,0,3.4-1.6,4.3-2.9c0,0-0.2,7.2-4.7,9.4L142.4,89.3z"/>
<path class="st4" d="M143.9,83.2c0,0,0.4-2.1,2-1.6s0.9,3.5-1.3,3.4L143.9,83.2z"/>
<path class="st6" d="M150.3,80.5l-1.1,2c0,0-1.4,5.1-4.8,7.8s-8.2,2.1-8.6-1.5c-0.5-4.1,2.3-3.1,6-3.3s3.1-5.1,3.1-5.1
	c-1.4,0-2.7-0.7-3.5-1.8c-1-1.4-2.4-2.5-4-3.2c-3.3-1.4,0.7-5.7,0.7-5.7c-2.2-1.2-0.5-3.8,1.6-4.6s2.7,1.7,4.4,2.2s1-2.1,4.1-1.5
	s1.4,2.9,3.3,4.6c0,0,2.2-1.7,3.8,2.1c1,2.1,0.5,3.2-0.5,3.7C153,77.2,151.4,78.7,150.3,80.5z"/>
<rect x="183.2" y="38.7" class="st7" width="138.9" height="24.4"/>
<rect x="183.8" y="224.1" class="st7" width="138.9" height="24.4"/>
<rect x="124.6" y="206.9" class="st7" width="49.6" height="41.5"/>
<path class="st3" d="M272,141.6c45.4-12.9,40.4-78.5,40.4-78.5H191.7c0,0-3.1,62,41.7,77.3c1.4,0.5,2.2,2.1,1.7,3.5
	c-0.3,0.8-1,1.4-1.8,1.7c-45.4,12.9-40.4,78.5-40.4,78.5h120.7c0,0,3.1-62-41.7-77.3c-1.4-0.5-2.2-2.1-1.7-3.5
	C270.5,142.5,271.2,141.8,272,141.6z"/>
<rect x="142.2" y="206.9" class="st8" width="49.6" height="41.5"/>
<path class="st8" d="M231.8,89.3c-8.3-1.8-16.5,3.5-18.3,11.8c-0.8,3.7-0.2,7.5,1.6,10.8c4.4,8,12.4,16.8,26.3,18.9
	c25.1,3.9,42.9-2.4,53.2-29.6c2-5.1-0.6-10.8-5.7-12.8c-1.5-0.6-3.1-0.8-4.7-0.6h-0.3c-10.2,1.5-11.4,14.8-26.2,10.6
	C250.1,96.4,240.7,91.2,231.8,89.3z"/>
<path class="st8" d="M201.6,219.2c0-7.9,4.4-15.1,11.5-18.6c9.5-4.5,19.6-7.8,29.9-9.9c30-6.4,34.5,15.2,46.3,17.1
	s14.8,11.4,14.8,11.4H201.6z"/>
<polygon class="st8" points="244.8,131.3 247.9,197.6 255.1,197.6 253.2,131.3 "/>
<polygon class="st8" points="258.9,128.5 258.9,197.6 260.9,197.6 262.9,127.1 "/>
<path class="st6" d="M141.3,240.1c0,0-1.4,3.8-4.8,4.1s-4.4,3.7-1.2,4.6s11.1-3.1,11.1-3.1l-0.2-5L141.3,240.1z"/>
<path class="st9" d="M141.7,102.1l9.9-1.7c0,0,32.9,0,38.6,11.3s4.6,53.1-14.5,87.5l-38.9,1.1c0,0,2.2-25.2-5.1-39
	S101.9,118.4,141.7,102.1z"/>
<path class="st10" d="M175.7,199.2l-19-2.9c-10-1.5-19.2,5.4-20.7,15.3c-0.2,1.5-0.3,3.1-0.1,4.6l2.5,24.2h9.3l-0.8-22.6
	c-0.2-4.7,3.5-8.7,8.2-8.9c0.6,0,1.1,0,1.7,0.1C164.9,210.3,174.9,209.8,175.7,199.2z"/>
<path class="st6" d="M121.9,240.1c0,0-1.4,3.8-4.8,4.1s-4.4,3.7-1.2,4.6s11.1-3.1,11.1-3.1l-0.2-5L121.9,240.1z"/>
<path class="st11" d="M170.6,110.7c-8.3,5.9-12.4,16.1-10.4,26.1c3.2,17.3,17.1,49.2-11.5,43.6l1.7,13.3l19.4-1.8l15.7-10.5
	l3.8-29.1L170.6,110.7z"/>
<path class="st10" d="M156.3,199.2l-19-2.9c-10-1.5-19.2,5.4-20.7,15.3c-0.2,1.5-0.3,3.1-0.1,4.6l2.5,24.2h9.3l-0.8-22.6
	c-0.2-4.7,3.5-8.7,8.2-8.9c0.6,0,1.1,0,1.7,0.1C145.5,210.3,155.5,209.8,156.3,199.2z"/>
<path class="st1" d="M168.6,116.3c0.9-10,13.3-14.2,19.9-6.7c3.2,3.6,5.7,8.8,6.2,16.5c1.5,23.2,20.2,91.7-53,70.1l1.9-8.6
	c0,0,22.4,5,34.2-6.2C187.5,172,166.2,141.6,168.6,116.3z"/>
<polygon class="st12" points="121.3,197.7 109.2,164.7 144.6,164.7 152,195.7 160.8,197.2 160.8,201.4 "/>
<circle class="st13" cx="131.4" cy="179.7" r="3.6"/>
<polygon class="st11" points="114.4,179 144.7,199.9 121.3,197.7 "/>
<path class="st14" d="M138.1,103.7c0,0-1-3.2,3.6-5.6s13.6-5.7,16.8,2.8C158.4,100.9,148.3,107.5,138.1,103.7z"/>
<path class="st1" d="M138.1,103.7c0,0-1-3.2,3.6-5.6s13.6-5.7,16.8,2.8C158.4,100.9,148.3,107.5,138.1,103.7z"/>
<rect x="66.1" y="166.5" transform="matrix(0.7071 -0.7071 0.7071 0.7071 -103.1155 101.8463)" class="st12" width="10.5" height="17.8"/>
<path class="st4" d="M147.1,81c0,0,2.7-1.6,3.7,0.6s-2,3.8-4,2.5C147.3,83.1,147.4,82,147.1,81z"/>
<polyline class="st15" points="58,128.7 58,145.1 80.6,145.1 "/>
<rect x="62.2" y="136.4" class="st7" width="3.8" height="8.5"/>
<rect x="68.1" y="132.8" class="st7" width="3.8" height="12.1"/>
<rect x="74" y="129" class="st7" width="3.8" height="15.8"/>
</svg>
