<svg id="Layer_1" data-name="Layer 1" xmlns="http://www.w3.org/2000/svg" viewBox="0 0 400 300"><title>25_Balloon_isometric</title><ellipse cx="194.74" cy="239.01" rx="89.92" ry="44.46" fill="#e1fdff"/><path d="M149,209l44.11-25a15,15,0,0,1,14.83,0l35.71,20.53a4.26,4.26,0,0,1,.65,6.92l-54.42,46.75L147.9,217.13A5.12,5.12,0,0,1,149,209Z" fill="#3c44b1"/><path d="M149,209l44.11-25a15,15,0,0,1,14.83,0l35.71,20.53a4.26,4.26,0,0,1,.65,6.92l-54.42,46.75L147.9,217.13A5.12,5.12,0,0,1,149,209Z" opacity="0.15"/><path d="M243.34,204.65l-35.71-20.53a14.93,14.93,0,0,0-7.17-2V249L244,211.57A4.26,4.26,0,0,0,243.34,204.65Z" opacity="0.15"/><path d="M245.48,209.59l-45.26,26.73a15.75,15.75,0,0,1-15.93.05l-38-22.13v45a9.24,9.24,0,0,0,4.73,8.07L186.24,287a10.32,10.32,0,0,0,10.08,0l45.1-25.29a8,8,0,0,0,4.06-6.94Z" fill="#3c44b1"/><path d="M136.86,114c-.54-.68-8.05-5.14-8.05-5.14v0c-1.54-1.7-4.4-1.11-8.12,2.13,0,0-.13-3.55-4.38-4.12s-5.47,1.36-5.47,1.36-1.43-6.73-10-4.2c-7.74,2.3-6.65,10.08-6.65,10.08s-4.81-1.21-8.66,4.09A20,20,0,0,0,82,129.75s-8.09,2.93-9.12,10.29a18,18,0,0,0-.16,1.92l0,.19a22,22,0,0,0,.43,4.72A3.08,3.08,0,0,0,74.64,149l8.58,4.9a12.25,12.25,0,0,0-.88-6.28L124.84,123a18.53,18.53,0,0,0,4.62-6.65l3.27-.85S137.39,114.7,136.86,114Z" fill="#3c44b1"/><path d="M136.86,114c-.54-.68-8.05-5.14-8.05-5.14v0c-1.54-1.7-4.4-1.11-8.12,2.13,0,0-.13-3.55-4.38-4.12s-5.47,1.36-5.47,1.36-1.43-6.73-10-4.2c-7.74,2.3-6.65,10.08-6.65,10.08s-4.81-1.21-8.66,4.09A20,20,0,0,0,82,129.75s-8.09,2.93-9.12,10.29a18,18,0,0,0-.16,1.92l0,.19a22,22,0,0,0,.43,4.72A3.08,3.08,0,0,0,74.64,149l8.58,4.9a12.25,12.25,0,0,0-.88-6.28L124.84,123a18.53,18.53,0,0,0,4.62-6.65l3.27-.85S137.39,114.7,136.86,114Z" opacity="0.1"/><path d="M87.9,154.48l45.18-26.23s5.54-4.86,5.2-10.3-3.94-6.33-9.35-1.62c0,0-.11-4.56-4.38-4.12a7.71,7.71,0,0,0-5.89,3.24s.85-8.11-7.68-5.59a11.86,11.86,0,0,0-8.51,9.59s-4.81-1.21-8.66,4.09A20,20,0,0,0,90.25,135s-8.09,2.93-9.12,10.29S83.63,156,87.9,154.48Z" fill="#3c44b1"/><path d="M150.86,216.91l27.57,16-3.69-23.53L152.05,205A99.47,99.47,0,0,0,150.86,216.91Z" fill="#ffc931"/><path d="M209.86,191.8c.84-2.26,1.6-4.55,2.35-6.87a47.1,47.1,0,0,0,2.55-10.13c-.6-1.62-2.77-2.85-4.3-3.22-1.92-.46-3.89.36-5.83.32-2.54,0-4.55-1-6.91-1.72a12.9,12.9,0,0,0-7.41.34c-4.57,1.41-9.24.93-13.05-2.1-2.16-1.72-3.84-3.12-6.57-3.84-4.21-1.11-8.56-.33-11.34,3.22-2.5,3.2-3.05,7.4-.39,10.67a10,10,0,0,0,5.32,3c1.85.53,3.6,1.62,5.5,2l.21,0a42.54,42.54,0,0,1,5.37.72c2.24.66,4.32,1.78,6.52,2.57,2.92,1,5.75.64,8.75.26,3.82-.48,5.85.7,8.81,2.88l.54.37a12.8,12.8,0,0,0,6.95,1.84A16.88,16.88,0,0,0,209.86,191.8Z" fill="#ffc285"/><path d="M138.43,163.93c-.66-1.15-1.34-2.38-1.92-3.64a64.53,64.53,0,0,1-.27-6.84,8.94,8.94,0,0,0,0-2.89,1.21,1.21,0,0,0-1.57-1.07,2.53,2.53,0,0,0-1.53,2.09c-.14.76-.25,1.52-.36,2.29a49.44,49.44,0,0,1-3.06-6.52c-.58-1.41-2.85-.67-2.27.76l.63,1.53a27.61,27.61,0,0,0-1.82-2.41c-.79-.93-2.7-.33-2.13,1a38.84,38.84,0,0,0,2.7,5.34q-1.27-1.57-2.45-3.21c-.89-1.25-2.89.06-2,1.32q1.65,2.31,3.48,4.48c-.68-.32-1.37-.63-2.07-.92-1.41-.59-2.51,1.53-1.09,2.13s2.69,1.19,4,1.86l.07.15q3.08,5.53,6.37,10.93c.8,1.31,2.8,0,2-1.32l-1-1.67a1.4,1.4,0,0,0,.86-.67,1.19,1.19,0,0,0,1.81-1A1.24,1.24,0,0,0,138.43,163.93Z" fill="#ee6300"/><path d="M131.6,154.58c-1.33,1.44-2.64,3.17-2.08,5.24.11.42.77.26.65-.16-.49-1.83.72-3.33,1.89-4.59C132.35,154.76,131.9,154.26,131.6,154.58Z" fill="#6d320b"/><path d="M130.06,153.25a50.57,50.57,0,0,1-2.2-5.38c-.1-.3-.6-.19-.49.12a51.71,51.71,0,0,0,2.25,5.51C129.76,153.78,130.2,153.54,130.06,153.25Z" fill="#6d320b"/><path d="M127.76,154.52a27,27,0,0,1-3.29-6.36c-.11-.3-.6-.19-.49.12a27.43,27.43,0,0,0,3.34,6.48C127.5,155,127.95,154.79,127.76,154.52Z" fill="#6d320b"/><path d="M126.66,157.08a29.84,29.84,0,0,1-3.43-4.77c-.16-.28-.61,0-.44.24a30.5,30.5,0,0,0,3.5,4.88C126.5,157.67,126.87,157.33,126.66,157.08Z" fill="#6d320b"/><path d="M170.82,179.3l-8.16-1.63a27,27,0,0,1-18.24-8.13,52.52,52.52,0,0,1-7.47-9.77,25.07,25.07,0,0,0-6.52,5.56,30.81,30.81,0,0,0-2.67,3.51c3.55,7.38,12.46,19.12,23.33,23.24,0,0,0,8.05.32,17.49a26.29,26.29,0,0,0,25.64,4S173.58,183.31,170.82,179.3Z" fill="#ff8597"/><path d="M166.65,179s15.77,11.87,40.18,27c0,0-1.46,8.15-4.89,11.24,0,0-26.71-9.35-33.6-21.45" fill="#ff8597"/><path d="M159.53,171.64S156.65,180,162,183.75s12.53-4.11,10.56-11.54S162.92,164.49,159.53,171.64Z" fill="#ee6300"/><path d="M173.23,182.59a2.64,2.64,0,0,1-2.45-.73c-.79-.8-.71-1.92-.72-3a3.85,3.85,0,0,0-1.74-3.42c-1.39-.95-3.15-1.21-4.41-2.37-.13-.12-.26-.25-.38-.38a3.45,3.45,0,0,0,.54.41c2.06,1.25,5.11,1.55,6.07,2s-.57,4.29,1.14,6,5.77-8.77,3.43-11.61-10.1-6.16-13.46-1.45a12.14,12.14,0,0,0,.34,1.24,6.22,6.22,0,0,0,1.35,3.49c1.25,1.56,3.08,1.91,4.73,2.86a3.36,3.36,0,0,1,1.87,2.81,8.19,8.19,0,0,0,.32,2.9,3.12,3.12,0,0,0,3.53,1.68C173.71,183,173.55,182.52,173.23,182.59Z" fill="#ffc285"/><path d="M216.63,151.55a257.16,257.16,0,0,1,21.58-65.71c.53-1.1-1.11-2.07-1.65-1a257.16,257.16,0,0,0-25.81,102.27c-.26,6.54-.44,13.22-.12,19.85a158.48,158.48,0,0,1,1-106.17c.42-1.15-1.42-1.65-1.84-.51a160.17,160.17,0,0,0-2.49,102.75,126,126,0,0,1-22.61-52.61c-4-22.81-1.76-46.13.44-69,.12-1.22-1.79-1.21-1.91,0-2.27,23.66-4.54,47.76,0,71.32A128.22,128.22,0,0,0,208.71,208a.86.86,0,0,0,.35.27c.29.82.59,1.64.9,2.46a.88.88,0,0,0-.75.89,144.09,144.09,0,0,0,9.38,52.69c.43,1.14,2.27.64,1.84-.51a142.66,142.66,0,0,1-9.26-47A223.19,223.19,0,0,0,228,270.24c.51,1.11,2.15.15,1.65-1a220.89,220.89,0,0,1-15.3-46.07.92.92,0,0,0,.13-.73c-2.61-11.74-2.32-24.23-1.8-36.18A253.78,253.78,0,0,1,216.63,151.55Z" fill="#29abe2"/><path d="M247.54,119.32c.67-1-1-2-1.65-1-17,26-33.24,54.73-33.51,86.43a.86.86,0,0,0-.11.47c0,.44.07.89.1,1.33,0,1,0,1.93.09,2.9a1,1,0,0,0-.92,1.17q.83,3.58,1.83,7.1a260.61,260.61,0,0,0,15,49.55c.46,1.12,2.31.63,1.84-.51a260.71,260.71,0,0,1-10.76-31.5,160.16,160.16,0,0,0,14.45,27.26c.67,1,2.32.07,1.65-1a158.54,158.54,0,0,1-19.45-41.36,109.14,109.14,0,0,1-1.81-13.62C213.95,174.52,230.36,145.61,247.54,119.32Z" fill="#29abe2"/><path d="M215.71,214.81a.88.88,0,0,0-.23-1.21.8.8,0,0,0-.48-.13,6.83,6.83,0,0,0,.58-.6.74.74,0,0,0-.22-1.15,1,1,0,0,0-.6-.6l.6-.52.14-.12.19-.16a.88.88,0,0,0-.54-1.52,4.57,4.57,0,0,0,.67-.63l0-.06a.91.91,0,0,0-.7-1.6,7.77,7.77,0,0,0-3.83,1.6.88.88,0,0,0,.29,1.49,4.8,4.8,0,0,0,.61.09,7.81,7.81,0,0,0-1.58.89.88.88,0,0,0-.09,1.23,1.89,1.89,0,0,0,1.52.73,6.71,6.71,0,0,0-1,1.18.88.88,0,0,0,.9,1.35,6.12,6.12,0,0,0,.8-.24,4.71,4.71,0,0,0-.84,1.35c-.34.86.76,1.43,1.4.94a14.41,14.41,0,0,0,2.2-2.12l.06-.06Z" fill="#ee6300"/><path d="M211.55,205.87c-.77-2.06-3.07.15-4.35,1.6a.93.93,0,0,0-.21.13,6.44,6.44,0,0,1-.83.67,46.56,46.56,0,0,1-2.88,7.33,6.1,6.1,0,0,0,1.78.72,5.23,5.23,0,0,0,2.68-.15c1.83-.67,1.81-2.64,1.49-4.24,0,0,0,0,0-.06a4,4,0,0,0,.4-1.89.92.92,0,0,0-.16-.48C210.85,208.61,212.14,207.44,211.55,205.87Z" fill="#ee6300"/><path d="M278.81,36.42C261,33.69,247.36,53.68,250.4,70.77c.43,2.44,4.12,15.29,7.78,19.72l-.15.13A4,4,0,0,0,253.5,93c-1,2.34.89,4.7,3.09,5.36A4.28,4.28,0,0,0,261.64,92c11.69.16,23.95-5.55,31.64-14.09C306,63.82,300.87,39.81,278.81,36.42Z" fill="#b878ea"/><path d="M256.27,71.11A44.86,44.86,0,0,1,264,51c6.14-8.73,15.26-13.4,25.24-10.8a27.19,27.19,0,0,0-10.4-3.75C261,33.69,247.36,53.68,250.4,70.77a84.36,84.36,0,0,0,5.3,15.58C255,81.31,255.65,75.89,256.27,71.11Z" fill="#8b48cc"/><path d="M222.7,12c-17.9,1.65-26.33,24.35-19.25,40.21,1,2.26,7.7,13.84,12.32,17.25l-.11.16A4,4,0,0,0,211.83,73c-.36,2.5,2,4.35,4.29,4.45a4.28,4.28,0,0,0,3.38-7.35c11.38-2.68,21.89-11.19,27.29-21.34C255.71,32,244.93,9.93,222.7,12Z" fill="#ffc931"/><path d="M209.24,51.1a44.86,44.86,0,0,1,2.59-21.4c3.84-10,11.56-16.7,21.87-16.59a27.19,27.19,0,0,0-11-1.12c-17.9,1.65-26.33,24.35-19.25,40.21A84.36,84.36,0,0,0,212.37,66C210.49,61.3,209.79,55.89,209.24,51.1Z" fill="#ffa133"/><path d="M238.1,41.75C220.15,40.67,208.38,61.83,213,78.58c.66,2.39,5.51,14.85,9.56,18.92l-.14.14a4,4,0,0,0-4.29,2.76c-.73,2.42,1.32,4.6,3.57,5.05a4.28,4.28,0,0,0,4.45-6.75c11.66-.92,23.33-7.74,30.2-17C267.69,66.52,260.38,43.09,238.1,41.75Z" fill="#855af1"/><path d="M218.86,78.37a44.86,44.86,0,0,1,5.8-20.76c5.3-9.26,14-14.75,24.13-13.09a27.19,27.19,0,0,0-10.7-2.78C220.15,40.67,208.38,61.83,213,78.58a84.36,84.36,0,0,0,6.72,15C218.55,88.65,218.68,83.19,218.86,78.37Z" fill="#8b48cc"/><path d="M188.75,33.12c-17.9,1.65-26.33,24.35-19.25,40.21,1,2.26,7.7,13.84,12.32,17.25l-.11.16a4,4,0,0,0-3.82,3.37c-.36,2.5,2,4.35,4.29,4.45a4.28,4.28,0,0,0,3.38-7.35c11.38-2.68,21.89-11.19,27.29-21.34C221.75,53.12,211,31.06,188.75,33.12Z" fill="#ff8597"/><path d="M175.29,72.23a44.86,44.86,0,0,1,2.59-21.4c3.84-10,11.56-16.7,21.87-16.59a27.19,27.19,0,0,0-11-1.12c-17.9,1.65-26.33,24.35-19.25,40.21a84.36,84.36,0,0,0,8.92,13.83C176.54,82.43,175.83,77,175.29,72.23Z" fill="#ed6b84"/><path d="M267.34,83.92c-17-5.72-33.93,11.64-33.85,29,0,2.48,1.45,15.77,4.3,20.76l-.17.1a4,4,0,0,0-4.86,1.54c-1.34,2.14.07,4.79,2.13,5.81a4.28,4.28,0,0,0,6.06-5.35c11.49,2.15,24.54-1.39,33.58-8.49C289.45,115.55,288.5,91,267.34,83.92Z" fill="#ea5343"/><path d="M239.22,114.26a44.86,44.86,0,0,1,11-18.53c7.54-7.56,17.32-10.6,26.71-6.34a27.19,27.19,0,0,0-9.6-5.47c-17-5.72-33.93,11.64-33.85,29a84.36,84.36,0,0,0,2.57,16.26C236.24,124.1,237.79,118.87,239.22,114.26Z" fill="#db4237"/><path d="M210.76,73.41c-17.9,1.65-26.33,24.35-19.25,40.21,1,2.26,7.7,13.84,12.32,17.25l-.11.16a4,4,0,0,0-3.82,3.37c-.36,2.5,2,4.35,4.29,4.45a4.28,4.28,0,0,0,3.38-7.35c11.38-2.68,21.89-11.19,27.29-21.34C243.76,93.42,233,71.36,210.76,73.41Z" fill="#9edc33"/><path d="M197.29,112.53a44.86,44.86,0,0,1,2.59-21.4c3.84-10,11.56-16.7,21.87-16.59a27.19,27.19,0,0,0-11-1.12c-17.9,1.65-26.33,24.35-19.25,40.21a84.36,84.36,0,0,0,8.92,13.83C198.54,122.73,197.84,117.32,197.29,112.53Z" fill="#95ce29"/><path d="M105.59,197.88c-.34-.43-5-3.21-5-3.21v0c-1-1.07-2.75-.69-5.08,1.33a2.86,2.86,0,0,0-2.74-2.58c-2.68-.36-3.42.85-3.42.85s-.9-4.21-6.23-2.63A5.78,5.78,0,0,0,78.92,198s-3-.76-5.42,2.56a12.49,12.49,0,0,0-2.22,7.19s-5.06,1.83-5.71,6.44a11.29,11.29,0,0,0-.1,1.2v.12a13.77,13.77,0,0,0,.27,3,1.92,1.92,0,0,0,.94,1.34L72,222.83a7.67,7.67,0,0,0-.55-3.93l26.58-15.43a11.59,11.59,0,0,0,2.89-4.16l2-.53S105.92,198.3,105.59,197.88Z" fill="#3c44b1"/><path d="M105.59,197.88c-.34-.43-5-3.21-5-3.21v0c-1-1.07-2.75-.69-5.08,1.33a2.86,2.86,0,0,0-2.74-2.58c-2.68-.36-3.42.85-3.42.85s-.9-4.21-6.23-2.63A5.78,5.78,0,0,0,78.92,198s-3-.76-5.42,2.56a12.49,12.49,0,0,0-2.22,7.19s-5.06,1.83-5.71,6.44a11.29,11.29,0,0,0-.1,1.2v.12a13.77,13.77,0,0,0,.27,3,1.92,1.92,0,0,0,.94,1.34L72,222.83a7.67,7.67,0,0,0-.55-3.93l26.58-15.43a11.59,11.59,0,0,0,2.89-4.16l2-.53S105.92,198.3,105.59,197.88Z" opacity="0.15"/><path d="M75,223.19l28.26-16.41s3.47-3,3.25-6.44-2.47-4-5.85-1c0,0-.07-2.85-2.74-2.58a4.82,4.82,0,0,0-3.68,2s.53-5.08-4.8-3.49a7.42,7.42,0,0,0-5.33,6s-3-.76-5.42,2.56A12.49,12.49,0,0,0,76.43,211s-5.06,1.83-5.71,6.44S72.29,224.13,75,223.19Z" fill="#3c44b1"/><path d="M340,162.73c-.71-.91-10.73-6.85-10.73-6.85v.05c-2.05-2.27-5.87-1.48-10.82,2.83,0,0-.17-4.73-5.84-5.49s-7.29,1.82-7.29,1.82-1.91-9-13.28-5.6c-10.33,3.06-8.87,13.44-8.87,13.44s-6.42-1.61-11.55,5.45a26.62,26.62,0,0,0-4.74,15.33s-10.79,3.91-12.17,13.72a24.06,24.06,0,0,0-.21,2.56l0,.25a29.35,29.35,0,0,0,.57,6.3,4.1,4.1,0,0,0,2,2.86l11.44,6.53a16.34,16.34,0,0,0-1.17-8.37L324,174.66a24.71,24.71,0,0,0,6.16-8.86l4.36-1.13S340.72,163.64,340,162.73Z" fill="#3c44b1"/><path d="M340,162.73c-.71-.91-10.73-6.85-10.73-6.85v.05c-2.05-2.27-5.87-1.48-10.82,2.83,0,0-.17-4.73-5.84-5.49s-7.29,1.82-7.29,1.82-1.91-9-13.28-5.6c-10.33,3.06-8.87,13.44-8.87,13.44s-6.42-1.61-11.55,5.45a26.62,26.62,0,0,0-4.74,15.33s-10.79,3.91-12.17,13.72a24.06,24.06,0,0,0-.21,2.56l0,.25a29.35,29.35,0,0,0,.57,6.3,4.1,4.1,0,0,0,2,2.86l11.44,6.53a16.34,16.34,0,0,0-1.17-8.37L324,174.66a24.71,24.71,0,0,0,6.16-8.86l4.36-1.13S340.72,163.64,340,162.73Z" opacity="0.15"/><path d="M274.73,216.69l60.25-35s7.39-6.48,6.93-13.74-5.26-8.44-12.47-2.16c0,0-.15-6.08-5.84-5.49s-7.85,4.32-7.85,4.32,1.13-10.82-10.24-7.45A15.81,15.81,0,0,0,294.15,170s-6.42-1.61-11.55,5.45a26.62,26.62,0,0,0-4.74,15.33s-10.79,3.91-12.17,13.72S269,218.7,274.73,216.69Z" fill="#3c44b1"/></svg>