<svg id="Layer_1" data-name="Layer 1" xmlns="http://www.w3.org/2000/svg" viewBox="0 0 400 300"><title>#41-50</title><path d="M220.12,87.85,44.05,201.13a4.49,4.49,0,0,0,.17,7.67l118.9,69a11.45,11.45,0,0,0,11.94-.27l174.58-112.1a4.49,4.49,0,0,0-.18-7.67L228,87.66A7.57,7.57,0,0,0,220.12,87.85Z" fill="#e5e5e5"/><path d="M77.29,194.38s-.5,16.42,8.2,17,11.24-10,11-17" fill="#8dfcf3"/><path d="M261.61,57.46s-1.35-3.14-1.69-3.14-9.6.35-9.6.35l4.32,6.43" fill="#662d91"/><path d="M116.11,106.59,99.47,123.42C95.21,127.73,90,132,88.09,138c-.19.62.77.88,1,.27,2-6.32,8-11,12.51-15.52l15.25-15.42C117.27,106.84,116.56,106.14,116.11,106.59Z" fill="#fe65ab"/><path d="M268.22,88.26c-.08.08-2.54-5.47-2.75-6q-1-2.79-1.8-5.67a71.07,71.07,0,0,1-2.15-12c-.06-.64-1.06-.64-1,0A72.17,72.17,0,0,0,263.34,79a70.55,70.55,0,0,0,2.52,6.87c.57,1.34.89,2.89,2.32,3.46a.49.49,0,0,0,.49-.13l.26-.25C269.4,88.53,268.69,87.82,268.22,88.26Z" fill="#31be44"/><path d="M275.32,80.19c-.53-.37-1,.49-.5.86s-2,1.72-2.22,1.81l-2.83,1.56c-.56.31-.06,1.17.5.86l2.67-1.47A12.35,12.35,0,0,0,275,82.6C275.78,82,276.28,80.86,275.32,80.19Z" fill="#31be44"/><path d="M262,93.6a23.69,23.69,0,0,0-9,1.9l-4.8-25.62c-.12-.63-1.08-.36-1,.27L252,95.92a24.42,24.42,0,0,0-2.31,1.25c-.55.34,0,1.2.5.86A22.61,22.61,0,0,1,262,94.6.5.5,0,0,0,262,93.6Z" fill="#31be44"/><path d="M264,93.49c-3.54-7.58-4.8-15.86-6-24.07-.09-.63-1.05-.36-1,.27,1.19,8.31,2.49,16.64,6.08,24.31C263.4,94.58,264.26,94.07,264,93.49Z" fill="#31be44"/><path d="M265.81,100.72c-.61-1.78-3.22-3-4.84-3.6a12.16,12.16,0,0,0-6.71-.39c-.63.13-.36,1.1.27,1a11,11,0,0,1,8.87,1.85,6.6,6.6,0,0,1,1,.79l-.07,1.5c-.27.29-2.42.29-2.95.3a18.68,18.68,0,0,1-5.23-.7.5.5,0,0,0-.27,1C257.5,102.86,267.14,104.59,265.81,100.72Z" fill="#31be44"/><polygon points="257.05 82.63 277.49 70.81 277.49 165.14 258.4 176.16 257.05 82.63" fill="#ffa75f"/><polygon points="257.05 82.63 236.59 70.81 237.07 163.88 258.4 176.16 257.05 82.63" fill="#ef8a3f"/><polygon points="236.59 70.81 257.05 58.84 277.49 70.81 257.05 82.63 236.59 70.81" fill="#ffb37b"/><polygon points="220.28 120.31 240.72 108.5 240.72 186.29 221.39 197.24 220.28 120.31" fill="#3c44b1"/><polygon points="220.28 120.31 199.81 108.5 200.21 184.8 221.39 197.24 220.28 120.31" fill="#3c44b1"/><polygon points="199.81 108.5 220.28 96.52 240.72 108.5 220.28 120.31 199.81 108.5" fill="#3c44b1"/><polygon points="220.28 120.31 240.72 108.5 240.72 186.29 221.39 197.24 220.28 120.31" fill="#3c44b1"/><polygon points="220.28 120.31 199.81 108.5 200.21 184.8 221.39 197.24 220.28 120.31" opacity="0.19"/><polygon points="199.81 108.5 220.28 96.52 240.72 108.5 220.28 120.31 199.81 108.5" fill="#fff" opacity="0.53"/><polygon points="180.4 156.61 200.84 144.79 201.83 208.76 180.4 221.33 180.4 156.61" fill="#3c44b1"/><polygon points="180.4 156.61 159.94 144.79 159.94 209.28 180.4 221.33 180.4 156.61" fill="#3c44b1"/><polygon points="180.4 156.61 159.94 144.79 159.94 209.28 180.4 221.33 180.4 156.61" opacity="0.19"/><polygon points="159.94 144.79 180.4 132.81 200.84 144.79 180.4 156.61 159.94 144.79" fill="#3c44b1"/><polygon points="159.94 144.79 180.4 132.81 200.84 144.79 180.4 156.61 159.94 144.79" fill="#fff" opacity="0.53"/><polygon points="138.44 198.64 158.88 186.83 159.59 232.9 138.44 244.87 138.44 198.64" fill="#ed7e7e"/><polygon points="138.44 198.64 117.98 186.83 117.98 232.95 138.44 244.87 138.44 198.64" fill="#e26d6d"/><polygon points="117.98 186.83 138.44 174.85 158.88 186.83 138.44 198.64 117.98 186.83" fill="#fc9d9d"/><ellipse cx="86.91" cy="194.38" rx="9.62" ry="5.23" fill="#662d91"/><path d="M84.53,193s7.22-5.93,4.19-9.46-5.88-3.06-4.83-6.57,6.32-5.29,2.17-9.2-7.52-1.24-6.93-6.31-1.77-10-6.06-7.95-4.29,10.35-1.26,12.37,7.8,2.39,3.71,5.23-7.7,3.31-3.71,7.73,10.73,2.3,9.08,6.15S80.21,190.43,84.53,193Z" fill="#31be44"/><path d="M85,193.83s9.34.36,9.42-4.3-2.37-6.19.75-8.12,8.23.24,7.73-5.44-4.81-5.92-1-9.32,5.29-8.63.75-10-10.08,4.89-9.15,8.41,4.25,7-.7,6.38-8-2.63-7.91,3.32,6.5,8.84,2.71,10.63S83.44,189.08,85,193.83Z" fill="#31be44"/><path d="M85.5,193.83s-3.45-10.48-9.73-8.89S85.5,193.83,85.5,193.83Z" fill="#31be44"/><path d="M88.74,95v59.51a5.11,5.11,0,0,0,7.82,4.32l93.35-58.67a16.4,16.4,0,0,0,7.67-13.88V35.73a5.15,5.15,0,0,0-7.72-4.46c-20.54,11.86-76.32,44-96.27,55.42A9.62,9.62,0,0,0,88.74,95Z" fill="#fc9d9d"/><path d="M104.74,141.9c.54-.34,22.39-39.75,22.39-39.75L158,106.45,177,63.26" fill="none" stroke="#662d91" stroke-miterlimit="10"/><ellipse cx="177.05" cy="63.76" rx="1.94" ry="2.22" fill="#662d91" stroke="#662d91" stroke-miterlimit="10"/><ellipse cx="157.44" cy="105.63" rx="1.94" ry="2.22" fill="#662d91" stroke="#662d91" stroke-miterlimit="10"/><ellipse cx="127.13" cy="102.58" rx="1.94" ry="2.22" fill="#662d91" stroke="#662d91" stroke-miterlimit="10"/><ellipse cx="105.83" cy="141.9" rx="1.94" ry="2.22" fill="#662d91" stroke="#662d91" stroke-miterlimit="10"/><path d="M272.68,85.06s.43,4.6,1.62,6.21,3.78,2.79,3.7,3.7-.22,1.46-1.61,1.46-5.93-2.65-5.93-2.65l-.94-3.42-.44,3.35-1.14-.47V84.57Z" fill="#3c44b1"/><path d="M264.85,88.82s.43,4.6,1.62,6.21,3.78,2.79,3.7,3.7-.22,1.46-1.61,1.46-5.93-2.65-5.93-2.65l-.94-3.42-.44,3.35L260.11,97V88.32Z" fill="#3c44b1"/><path d="M267.16,88.86a8.46,8.46,0,0,0,8.47-2.08c.58-6.35,1.35-16.93.21-19.08-1.64-3.11-14.24-10.25-14.24-10.25l-7.76,3.25,14.06,13.45Z" fill="#662d91"/><path d="M246.58,53s-2.89,10.62-.36,13,12.11,8.41,12.11,8.41V92.7a6.42,6.42,0,0,0,7.6-1.87l3.14-17.45L257,58.83" fill="#662d91"/><path d="M269.69,17.34l-.28.55-.15-.08c.18-.72.36-1.43.53-2.15s-.86-.77-1-.14-.31,1.25-.48,1.88l-.31-.1.11-2.7c0-.15,0-.3,0-.46a.51.51,0,0,0-1-.24.47.47,0,0,0-.11.25c-.13,1-.24,2-.35,3h-.14c-.07-.64-.15-1.28-.25-1.91a.48.48,0,0,0-.13-.25c-.12-.55-1-.4-1,.21l.18,3.16c-.21-.49-.46-1-1-1.08a.51.51,0,0,0-.54.7,13.69,13.69,0,0,1,.91,2.35l.27,4.75a.42.42,0,0,0,.4.42.51.51,0,0,0,1-.05c.19.27.57.41.8.05l0-.05c.22.39.91.41.95-.14.07-1,.13-1.94.14-2.91l0-.07q1.07-2.34,2.28-4.63C270.93,17.15,270,16.77,269.69,17.34Z" fill="#f7931e"/><path d="M269.57,18.22A4,4,0,0,0,266.08,17a.1.1,0,0,0,0,.19,3.79,3.79,0,0,1,3.31,1.11C269.51,18.44,269.66,18.31,269.57,18.22Z" fill="#7a4c1f"/><path d="M265.65,18.29c-.19,0-.19.28,0,.31a1.89,1.89,0,0,1,1.49,2.15c0,.2.29.2.31,0A2.18,2.18,0,0,0,265.65,18.29Z" fill="#7a4c1f"/><path d="M257.81,36.53s4.1-2,4.84-4.59,1.55-11,1.55-11a9.46,9.46,0,0,1,5.42,1.19s-.29,10.18-1.8,13.29-6.27,7.19-6.14,7.19-1.47,12.74-1.47,12.74-8,2.22-12.56,0c0,0,1.33-12.29,2.31-14.08S257.81,36.53,257.81,36.53Z" fill="#3c44b1"/><path d="M261,59.32a16.19,16.19,0,0,0-2.36-1.69l-2.27-1c-.65-.66-1.3-1.32-1.93-2-.44-.48-1.14.23-.71.71s1,1.05,1.51,1.57a.55.55,0,0,0-.31.4.48.48,0,0,0-.59.37.45.45,0,0,0-.33-.07c-.37-.4-1.12.06-.8.58q1.11,1.76,2.07,3.61c.3.57,1.16.07.86-.5l-.28-.51a18.25,18.25,0,0,1,1.57,1.81c.38.51,1.25,0,.86-.5-.15-.2-.3-.38-.46-.57.25.22.5.44.73.68s.44.51.65.77c.35.44,1.13-.15.79-.61l-.08-.1h0c-.31-.4-1-1.17-1.32-1.55.42.31,1.2,1,1.61,1.32s1-.48.5-.86c-.3-.22-1.48-1.46-1.78-1.68s.26.32,0,0c.48.19,1,.38,1.45.59S261.39,59.63,261,59.32Z" fill="#f7931e"/><path d="M255,37.39s-6.11,2-7.33,3.75-3.6,7.68-3.67,9.57,8.73,9,8.73,9,4.92-3.13,5.31-3.85-5.77-6.47-5.77-6.47" fill="#3c44b1"/><path d="M251.74,28.17s-3.55,2-3.61,9.23c0,0-.49,4,1,5.29s4.78,1.23,5,0-1.56-9.55-1.56-9.55" fill="#662d91"/><path d="M258.71,30.08s1.58,10.78.13,11.62-3.75.6-2.88-4.31" fill="#662d91"/><path d="M258.71,30.08s1,8.3-2.55,8.53c-4,.26-5.1-2.63-4.8-4.42S253.26,27.47,258.71,30.08Z" fill="#f7931e"/><path d="M252.58,33.14s1.44.67,1.9-1.19a1.35,1.35,0,0,0,1.69.21,3.34,3.34,0,0,0,1-.94s.42.94,2,.42S261,29,258,27.56s-7.38-.17-8.11,3.66,0,6.19,3.15,7A11.31,11.31,0,0,1,252.58,33.14Z" fill="#662d91"/><path d="M256.35,53.51c-.87-.95-1.9-1.79-2.69-2.8a4,4,0,0,1-.41-4.48,2.65,2.65,0,0,0-1.2,1.09,3,3,0,0,0,.58,3.23,38.9,38.9,0,0,0,4.29,4.72.51.51,0,0,0,.83-.24C257.27,54.55,256.83,54,256.35,53.51Z" fill="#662d91"/><path d="M268.13,68.72c-2.19-2.1-4.49-4.09-6.73-6.13-.48-.43-1.18.27-.71.71l5.39,4.9a18.05,18.05,0,0,1,1.85,1.7c1.45,1.78.84,3.5.55,5.48q-1,7-2.09,14c-.09.63.87.9,1,.27.83-5.52,2.09-11.16,2.49-16.73A4.61,4.61,0,0,0,268.13,68.72Z" fill="#260344"/></svg>