<?xml version="1.0" encoding="utf-8"?><svg xmlns="http://www.w3.org/2000/svg" xmlns:xlink="http://www.w3.org/1999/xlink" width="1920" height="595" preserveAspectRatio="xMidYMid" viewBox="0 0 1920 595" ><g transform=""><path id="path0" d="M 1108.6452323800677 136.58926060106631
c 0 22.250098551724005 -5.4441730498899155 6.390985754218597 -11.835158804108513 6.390985754218597
S 1084.9749147718508 158.8393591527903 1084.9749147718508 136.58926060106631
s 5.4441730498899155 -6.390985754218597 11.835158804108513 -6.390985754218597
S 1108.6452323800677 114.3391620493423 1108.6452323800677 136.58926060106631
z" fill="none" stroke="none" style="animation-play-state:paused" ></path>


<circle cx="0" cy="0" r="5.83849255893126" fill="#220b09" transform="translate(1108.362548828125 129.56724548339844)" style="animation-play-state:paused" ></circle>
<path id="path1" d="M 212.00557395988227 156.26052545219846
c 0 37.06199842160752 -9.068361315925243 10.64546763173833 -19.713828947663572 10.64546763173833
S 172.57791606455515 193.32252387380598 172.57791606455515 156.26052545219846
s 9.068361315925243 -10.64546763173833 19.713828947663572 -10.64546763173833
S 212.00557395988227 119.19852703059095 212.00557395988227 156.26052545219846
z" fill="none" stroke="none" style="animation-play-state:paused" ></path>


<circle cx="0" cy="0" r="7.317046614407598" fill="#645481" transform="translate(183.1538848876953 171.7711181640625)" style="animation-play-state:paused" ></circle>
<path id="path2" d="M 727.8607888454094 198.10198397990595
c 0 21.06418117817641 -5.154001777638908 6.050349912880457 -11.204351690519365 6.050349912880457
S 705.4520854643706 219.16616515808235 705.4520854643706 198.10198397990595
s 5.154001777638908 -6.050349912880457 11.204351690519365 -6.050349912880457
S 727.8607888454094 177.03780280172955 727.8607888454094 198.10198397990595
z" fill="none" stroke="none" style="animation-play-state:paused" ></path>


<circle cx="0" cy="0" r="6.396473218030387" fill="#9d9aca" transform="translate(705.7569580078125 191.12225341796875)" style="animation-play-state:paused" ></circle>
<path id="path3" d="M 1365.991410516801 472.21126503815435
c 0 24.458681902286493 -5.98457110375095 7.025366078316334 -13.009937182067283 7.025366078316334
S 1339.9715361526664 496.66994694044087 1339.9715361526664 472.21126503815435
s 5.98457110375095 -7.025366078316334 13.009937182067283 -7.025366078316334
S 1365.991410516801 447.75258313586784 1365.991410516801 472.21126503815435
z" fill="none" stroke="none" style="animation-play-state:paused" ></path>


<circle cx="0" cy="0" r="6.332552631822344" fill="#ff312d" transform="translate(1341.053955078125 483.72589111328125)" style="animation-play-state:paused" ></circle>
<path id="path4" d="M 1569.1812131742686 453.5186744161146
c 0 26.013835676750723 -6.365087452821984 7.4720591837475485 -13.837146636569532 7.4720591837475485
S 1541.5069199011295 479.5325100928653 1541.5069199011295 453.5186744161146
s 6.365087452821984 -7.4720591837475485 13.837146636569532 -7.4720591837475485
S 1569.1812131742686 427.5048387393639 1569.1812131742686 453.5186744161146
z" fill="none" stroke="none" style="animation-play-state:paused" ></path>


<circle cx="0" cy="0" r="7.140271135815422" fill="#e88432" transform="translate(1560.777587890625 443.4583740234375)" style="animation-play-state:paused" ></circle>
<path id="path5" d="M 1207.580121790228 536.5760995672592
c 0 32.34636207021305 -7.9145354001585115 9.290976339316515 -17.205511739475025 9.290976339316515
S 1173.169098311278 568.9224616374722 1173.169098311278 536.5760995672592
s 7.9145354001585115 -9.290976339316515 17.205511739475025 -9.290976339316515
S 1207.580121790228 504.2297374970462 1207.580121790228 536.5760995672592
z" fill="none" stroke="none" style="animation-play-state:paused" ></path>


<circle cx="0" cy="0" r="6.749129065071757" fill="#f5c037" transform="translate(1174.0240478515625 523.3896484375)" style="animation-play-state:paused" ></circle>
<path id="path6" d="M 358.58589238769247 72.56384893336022
c 0 29.857632241017136 -7.305590867482915 8.576128409653858 -15.881719277136774 8.576128409653858
S 326.82245383341893 102.42148117437736 326.82245383341893 72.56384893336022
s 7.305590867482915 -8.576128409653858 15.881719277136774 -8.576128409653858
S 358.58589238769247 42.706216692343084 358.58589238769247 72.56384893336022
z" fill="none" stroke="none" style="animation-play-state:paused" ></path>


<circle cx="0" cy="0" r="5.950138902640563" fill="#e88432" transform="translate(327.263916015625 82.53894805908203)" style="animation-play-state:paused" ></circle>
<path id="path7" d="M 1649.6523576719947 570.4709650483115
c 0 28.78707027673362 -7.043644854945459 8.268626568849019 -15.312271423794478 8.268626568849019
S 1619.0278148244056 599.2580353250452 1619.0278148244056 570.4709650483115
s 7.043644854945459 -8.268626568849019 15.312271423794478 -8.268626568849019
S 1649.6523576719947 541.6838947715779 1649.6523576719947 570.4709650483115
z" fill="none" stroke="none" style="animation-play-state:paused" ></path>


<circle cx="0" cy="0" r="7.527960879346234" fill="#9d9aca" transform="translate(1649.5400390625 576.0477905273438)" style="animation-play-state:paused" ></circle>
<path id="path8" d="M 1909.4108235396902 20.518040897390964
c 0 22.73229776880326 -5.562157964707181 6.529489784656256 -12.091647749363437 6.529489784656256
S 1885.2275280409635 43.250338666194224 1885.2275280409635 20.518040897390964
s 5.562157964707181 -6.529489784656256 12.091647749363437 -6.529489784656256
S 1909.4108235396902 -2.214256871412296 1909.4108235396902 20.518040897390964
z" fill="none" stroke="none" style="animation-play-state:paused" ></path>


<circle cx="0" cy="0" r="7.312333870278648" fill="#e89788" transform="translate(1909.402587890625 19.1488037109375)" style="animation-play-state:paused" ></circle>
<path id="path9" d="M 1323.6536065558826 100.83424127496713
c 0 32.13134017361892 -7.8619236595025015 9.22921473072033 -17.09113839022283 9.22921473072033
S 1289.471329775437 132.96558144858605 1289.471329775437 100.83424127496713
s 7.8619236595025015 -9.22921473072033 17.09113839022283 -9.22921473072033
S 1323.6536065558826 68.7029011013482 1323.6536065558826 100.83424127496713
z" fill="none" stroke="none" style="animation-play-state:paused" ></path>


<circle cx="0" cy="0" r="6.640519666386882" fill="#9d9aca" transform="translate(1298.515869140625 114.38847351074219)" style="animation-play-state:paused" ></circle>
<path id="path10" d="M 1691.6444393567083 527.7241123496802
c 0 37.105720332035936 -9.079059230179006 10.658026052818833 -19.73708528299784 10.658026052818833
S 1652.1702687907125 564.8298326817162 1652.1702687907125 527.7241123496802
s 9.079059230179006 -10.658026052818833 19.73708528299784 -10.658026052818833
S 1691.6444393567083 490.6183920176443 1691.6444393567083 527.7241123496802
z" fill="none" stroke="none" style="animation-play-state:paused" ></path>


<circle cx="0" cy="0" r="6.938486055609488" fill="#220b09" transform="translate(1687.718505859375 507.938232421875)" style="animation-play-state:paused" ></circle>
<path id="path11" d="M 76.48713979218739 56.815478422142625
c 0 35.45164209451655 -8.674337959296603 10.182918473956882 -18.857256433253482 10.182918473956882
S 38.77262692568043 92.26712051665918 38.77262692568043 56.815478422142625
s 8.674337959296603 -10.182918473956882 18.857256433253482 -10.182918473956882
S 76.48713979218739 21.363836327626075 76.48713979218739 56.815478422142625
z" fill="none" stroke="none" style="animation-play-state:paused" ></path>


<circle cx="0" cy="0" r="4.23609875027716" fill="#d34c31" transform="translate(76.41565704345703 51.699275970458984)" style="animation-play-state:paused" ></circle>
<path id="path12" d="M 353.3152206381826 522.953798417434
c 0 34.03383771125648 -8.3274283761585 9.775676789403457 -18.103105165561956 9.775676789403457
S 317.1090103070587 556.9876361286905 317.1090103070587 522.953798417434
s 8.3274283761585 -9.775676789403457 18.103105165561956 -9.775676789403457
S 353.3152206381826 488.9199607061775 353.3152206381826 522.953798417434
z" fill="none" stroke="none" style="animation-play-state:paused" ></path>


<circle cx="0" cy="0" r="6.575031168547166" fill="#220b09" transform="translate(317.26263427734375 515.9218139648438)" style="animation-play-state:paused" ></circle>
<path id="path13" d="M 1837.3318620289745 128.567113872489
c 0 20.88672180995044 -5.1105808683921286 5.999377541155978 -11.109958409548106 5.999377541155978
S 1815.111945209878 149.45383568243943 1815.111945209878 128.567113872489
s 5.1105808683921286 -5.999377541155978 11.109958409548106 -5.999377541155978
S 1837.3318620289745 107.68039206253854 1837.3318620289745 128.567113872489
z" fill="none" stroke="none" style="animation-play-state:paused" ></path>


<circle cx="0" cy="0" r="7.775776486613214" fill="#645481" transform="translate(1815.247314453125 133.6021728515625)" style="animation-play-state:paused" ></circle>
<path id="path14" d="M 1503.870760595196 311.5613940037909
c 0 25.984836865244162 -6.35799199894272 7.46372973788928 -13.821721736832 7.46372973788928
S 1476.2273171215322 337.54623086903507 1476.2273171215322 311.5613940037909
s 6.35799199894272 -7.46372973788928 13.821721736832 -7.46372973788928
S 1503.870760595196 285.5765571385467 1503.870760595196 311.5613940037909
z" fill="none" stroke="none" style="animation-play-state:paused" ></path>


<circle cx="0" cy="0" r="4.224659872245067" fill="#fd3262" transform="translate(1485.6068115234375 320.8443603515625)" style="animation-play-state:paused" ></circle>
<path id="path15" d="M 1873.3302052072868 520.4534356642785
c 0 32.69145684994184 -7.998973484560235 9.390099307962016 -17.38907279252225 9.390099307962016
S 1838.5520596222423 553.1448925142203 1838.5520596222423 520.4534356642785
s 7.998973484560235 -9.390099307962016 17.38907279252225 -9.390099307962016
S 1873.3302052072868 487.7619788143366 1873.3302052072868 520.4534356642785
z" fill="none" stroke="none" style="animation-play-state:paused" ></path>


<circle cx="0" cy="0" r="7.644026368389995" fill="#ff312d" transform="translate(1838.7659912109375 528.3641357421875)" style="animation-play-state:paused" ></circle>
<path id="path16" d="M 1420.9090594179177 356.40789973430907
c 0 25.421141082330177 -6.220066435038234 7.301817119392711 -13.521883554430945 7.301817119392711
S 1393.8652923090556 381.82904081663924 1393.8652923090556 356.40789973430907
s 6.220066435038234 -7.301817119392711 13.521883554430945 -7.301817119392711
S 1420.9090594179177 330.9867586519789 1420.9090594179177 356.40789973430907
z" fill="none" stroke="none" style="animation-play-state:paused" ></path>


<circle cx="0" cy="0" r="5.007792805196941" fill="#9d9aca" transform="translate(1402.088623046875 346.5859375)" style="animation-play-state:paused" ></circle>
<path id="path17" d="M 1094.1570547574486 284.80064012547524
c 0 32.02677421424226 -7.836338371569914 9.199179827495117 -17.03551819906503 9.199179827495117
S 1060.0860183593184 316.8274143397175 1060.0860183593184 284.80064012547524
s 7.836338371569914 -9.199179827495117 17.03551819906503 -9.199179827495117
S 1094.1570547574486 252.77386591123297 1094.1570547574486 284.80064012547524
z" fill="none" stroke="none" style="animation-play-state:paused" ></path>


<circle cx="0" cy="0" r="4.087355006831365" fill="#f5c037" transform="translate(1066.8177490234375 269.3453063964844)" style="animation-play-state:paused" ></circle>
<path id="path18" d="M 1226.0384726790364 84.57526818413882
c 0 35.06210374104546 -8.579025383447293 10.071029797959866 -18.650055181407158 10.071029797959866
S 1188.738362316222 119.63737192518428 1188.738362316222 84.57526818413882
s 8.579025383447293 -10.071029797959866 18.650055181407158 -10.071029797959866
S 1226.0384726790364 49.51316444309336 1226.0384726790364 84.57526818413882
z" fill="none" stroke="none" style="animation-play-state:paused" ></path>


<circle cx="0" cy="0" r="6.43505352378389" fill="#d34c31" transform="translate(1225.9266357421875 78.36116027832031)" style="animation-play-state:paused" ></circle>
<path id="path19" d="M 701.2642925225616 376.17565200837424
c 0 29.68828451894876 -7.2641547227215035 8.527485978846984 -15.791640701568488 8.527485978846984
S 669.6810111194247 405.863936527323 669.6810111194247 376.17565200837424
s 7.2641547227215035 -8.527485978846984 15.791640701568488 -8.527485978846984
S 701.2642925225616 346.4873674894255 701.2642925225616 376.17565200837424
z" fill="none" stroke="none" style="animation-play-state:paused" ></path>


<circle cx="0" cy="0" r="6.398213553666809" fill="#ff312d" transform="translate(676.7344360351562 362.5233154296875)" style="animation-play-state:paused" ></circle>
<path id="path20" d="M 1818.5468523549807 348.26265033003295
c 0 23.101653586564144 -5.65253226054229 6.635581349332255 -12.288113609874545 6.635581349332255
S 1793.9706251352318 371.3643039165971 1793.9706251352318 348.26265033003295
s 5.65253226054229 -6.635581349332255 12.288113609874545 -6.635581349332255
S 1818.5468523549807 325.1609967434688 1818.5468523549807 348.26265033003295
z" fill="none" stroke="none" style="animation-play-state:paused" ></path>


<circle cx="0" cy="0" r="7.699485357438872" fill="#f0c3a9" transform="translate(1813.3846435546875 359.16058349609375)" style="animation-play-state:paused" ></circle>
<path id="path21" d="M 1804.7434565915296 27.950103552017982
c 0 27.59954845680068 -6.7530810053874 7.927529875889557 -14.680610881276957 7.927529875889557
S 1775.3822348289755 55.54965200881866 1775.3822348289755 27.950103552017982
s 6.7530810053874 -7.927529875889557 14.680610881276957 -7.927529875889557
S 1804.7434565915296 0.35055509521730244 1804.7434565915296 27.950103552017982
z" fill="none" stroke="none" style="animation-play-state:paused" ></path>


<circle cx="0" cy="0" r="4.46331782565322" fill="#f5c037" transform="translate(1804.7423095703125 27.67326545715332)" style="animation-play-state:paused" ></circle>
<path id="path22" d="M 1113.226342494735 52.64895071236644
c 0 26.12694542520575 -6.392763242337576 7.50454815404846 -13.897311396386037 7.50454815404846
S 1085.4317197019632 78.77589613757219 1085.4317197019632 52.64895071236644
s 6.392763242337576 -7.50454815404846 13.897311396386037 -7.50454815404846
S 1113.226342494735 26.52200528716069 1113.226342494735 52.64895071236644
z" fill="none" stroke="none" style="animation-play-state:paused" ></path>


<circle cx="0" cy="0" r="5.652864656719402" fill="#9d9aca" transform="translate(1085.4320068359375 52.51951217651367)" style="animation-play-state:paused" ></circle>
<path id="path23" d="M 1758.696932662048 326.48310239318266
c 0 24.729970435935243 -6.050950213047984 7.103289380534591 -13.154239593582576 7.103289380534591
S 1732.388453474883 351.2130728291179 1732.388453474883 326.48310239318266
s 6.050950213047984 -7.103289380534591 13.154239593582576 -7.103289380534591
S 1758.696932662048 301.75313195724743 1758.696932662048 326.48310239318266
z" fill="none" stroke="none" style="animation-play-state:paused" ></path>


<circle cx="0" cy="0" r="7.365509238166277" fill="#e89788" transform="translate(1756.249267578125 339.64410400390625)" style="animation-play-state:paused" ></circle>
<path id="path24" d="M 320.6150211045059 372.86591827050063
c 0 29.06920505177818 -7.112677831818064 8.349665280829903 -15.462343112647968 8.349665280829903
S 289.69033487921 401.9351233222788 289.69033487921 372.86591827050063
s 7.112677831818064 -8.349665280829903 15.462343112647968 -8.349665280829903
S 320.6150211045059 343.79671321872246 320.6150211045059 372.86591827050063
z" fill="none" stroke="none" style="animation-play-state:paused" ></path>


<circle cx="0" cy="0" r="7.184962318689547" fill="#f5c037" transform="translate(289.7229309082031 376.0631103515625)" style="animation-play-state:paused" ></circle>
<path id="path25" d="M 520.1922469064891 455.23669904643225
c 0 21.791043031707307 -5.331850954566681 6.259129381447844 -11.590980336014525 6.259129381447844
S 497.01028623446 477.02774207813957 497.01028623446 455.23669904643225
s 5.331850954566681 -6.259129381447844 11.590980336014525 -6.259129381447844
S 520.1922469064891 433.44565601472493 520.1922469064891 455.23669904643225
z" fill="none" stroke="none" style="animation-play-state:paused" ></path>


<circle cx="0" cy="0" r="5.776613018867476" fill="#220b09" transform="translate(517.2020263671875 466.7481689453125)" style="animation-play-state:paused" ></circle>
<path id="path26" d="M 1526.416280286878 269.8531171751891
c 0 23.27357314043565 -5.694597683298085 6.684962497784709 -12.379560181082795 6.684962497784709
S 1501.6571599247125 293.1266903156247 1501.6571599247125 269.8531171751891
s 5.694597683298085 -6.684962497784709 12.379560181082795 -6.684962497784709
S 1526.416280286878 246.57954403475344 1526.416280286878 269.8531171751891
z" fill="none" stroke="none" style="animation-play-state:paused" ></path>


<circle cx="0" cy="0" r="7.1343383245817105" fill="#ff312d" transform="translate(1506.9027099609375 258.9112243652344)" style="animation-play-state:paused" ></circle>
<path id="path27" d="M 604.9733485571816 243.98890594471385
c 0 29.404002986961807 -7.194596475533207 8.445830645191158 -15.640427120724365 8.445830645191158
S 573.6924943157329 273.39290893167566 573.6924943157329 243.98890594471385
s 7.194596475533207 -8.445830645191158 15.640427120724365 -8.445830645191158
S 604.9733485571816 214.58490295775204 604.9733485571816 243.98890594471385
z" fill="none" stroke="none" style="animation-play-state:paused" ></path>


<circle cx="0" cy="0" r="6.365491860578646" fill="#e88432" transform="translate(603.9087524414062 230.84213256835938)" style="animation-play-state:paused" ></circle>
<path id="path28" d="M 721.0804356416994 138.58488172122546
c 0 29.559941908793885 -7.232751743641057 8.490621612100371 -15.723373355741428 8.490621612100371
S 689.6336889302166 168.14482363001935 689.6336889302166 138.58488172122546
s 7.232751743641057 -8.490621612100371 15.723373355741428 -8.490621612100371
S 721.0804356416994 109.02493981243157 721.0804356416994 138.58488172122546
z" fill="none" stroke="none" style="animation-play-state:paused" ></path>


<circle cx="0" cy="0" r="7.441985155777991" fill="#e89788" transform="translate(690.89453125 124.79280853271484)" style="animation-play-state:paused" ></circle>
<path id="path29" d="M 519.8754229968314 253.2629396263337
c 0 26.29485863037704 -6.433848388283742 7.552778542767873 -13.986626931051616 7.552778542767873
S 491.9021691347282 279.5577982567107 491.9021691347282 253.2629396263337
s 6.433848388283742 -7.552778542767873 13.986626931051616 -7.552778542767873
S 519.8754229968314 226.96808099595665 519.8754229968314 253.2629396263337
z" fill="none" stroke="none" style="animation-play-state:paused" ></path>


<circle cx="0" cy="0" r="6.126739310968757" fill="#f0c3a9" transform="translate(499.1971130371094 242.07798767089844)" style="animation-play-state:paused" ></circle></g></svg>
