<?xml version="1.0" encoding="utf-8"?><svg xmlns="http://www.w3.org/2000/svg" xmlns:xlink="http://www.w3.org/1999/xlink" width="1920" height="595" preserveAspectRatio="xMidYMid" viewBox="0 0 1920 595"><g transform="" ><defs style="animation-play-state:paused" ><path id="path-l5apit9iyk-1" d="M-35 -35L35 -35L35 35L-35 35Z" fill="none" stroke="inherit" stroke-width="4.333333333333334" transform="scale(0.3)" style="transform:matrix(0.3, 0, 0, 0.3, 0, 0);animation-play-state:paused" ></path>


<path id="path-l5apit9iyk-2" d="M0 -37A37 37 0 0 1 0 37A37 37 0 0 1 0 -37" fill="none" stroke="inherit" stroke-width="4.333333333333334" transform="scale(0.3)" style="transform:matrix(0.3, 0, 0, 0.3, 0, 0);animation-play-state:paused" ></path>


<path id="path-l5apit9iyk-3" d="M0 -34.641L40 34.641L-40 34.641Z" fill="none" stroke="inherit" stroke-width="4.333333333333334" transform="scale(0.3)" style="transform:matrix(0.3, 0, 0, 0.3, 0, 0);animation-play-state:paused" ></path></defs>
<path id="path0" d="M 109.9360778951833 328.89429512030625
c 0 18.94421944471296 -4.6352877364723195 5.44142473411968 -10.076712470592 5.44142473411968
S 89.7826529539993 347.83851456501924 89.7826529539993 328.89429512030625
s 4.6352877364723195 -5.44142473411968 10.076712470592 -5.44142473411968
S 109.9360778951833 309.95007567559327 109.9360778951833 328.89429512030625
z" fill="none" stroke="none" style="animation-play-state:paused" ></path>


<use xlink:href="#path-l5apit9iyk-1" x="0" y="0" stroke="#262470" transform="translate(109.917724609375 330.8313903808594)" style="animation-play-state:paused" ></use>
<path id="path1" d="M 217.24526055937653 530.3356807450589
c 0 64.8492890330281 -15.867379231485597 18.62692344565701 -34.494302677142606 18.62692344565701
S 148.25665520509133 595.184969778087 148.25665520509133 530.3356807450589
s 15.867379231485597 -18.62692344565701 34.494302677142606 -18.62692344565701
S 217.24526055937653 465.4863917120308 217.24526055937653 530.3356807450589
z" fill="none" stroke="none" style="animation-play-state:paused" ></path>


<use xlink:href="#path-l5apit9iyk-1" x="0" y="0" stroke="#e6a430" transform="translate(207.03421020507812 563.9951782226562)" style="animation-play-state:paused" ></use>
<path id="path2" d="M 250.9033089225458 237.60134870436764
c 0 19.52167240095183 -4.77657941725417 5.607288881124461 -10.383868298378632 5.607288881124461
S 230.1355723257885 257.1230211053195 230.1355723257885 237.60134870436764
s 4.77657941725417 -5.607288881124461 10.383868298378632 -5.607288881124461
S 250.9033089225458 218.0796763034158 250.9033089225458 237.60134870436764
z" fill="none" stroke="none" style="animation-play-state:paused" ></path>


<use xlink:href="#path-l5apit9iyk-3" x="0" y="0" stroke="#e6a430" transform="translate(246.31512451171875 246.62083435058594)" style="animation-play-state:paused" ></use>
<path id="path3" d="M 419.9151364784407 98.38575855974284
c 0 63.11292946562419 -15.442525294780385 18.128181867785674 -33.57070716256606 18.128181867785674
S 352.77372215330854 161.49868802536702 352.77372215330854 98.38575855974284
s 15.442525294780385 -18.128181867785674 33.57070716256606 -18.128181867785674
S 419.9151364784407 35.27282909411865 419.9151364784407 98.38575855974284
z" fill="none" stroke="none" style="animation-play-state:paused" ></path>


<use xlink:href="#path-l5apit9iyk-3" x="0" y="0" stroke="#00aeec" transform="translate(419.5833740234375 112.31744384765625)" style="animation-play-state:paused" ></use>
<path id="path4" d="M 491.6008473656311 339.17865658995805
c 0 44.5755355453993 -10.906779973874295 12.803611273678522 -23.710391247552817 12.803611273678522
S 444.1800648705255 383.75419213535736 444.1800648705255 339.17865658995805
s 10.906779973874295 -12.803611273678522 23.710391247552817 -12.803611273678522
S 491.6008473656311 294.60312104455875 491.6008473656311 339.17865658995805
z" fill="none" stroke="none" style="animation-play-state:paused" ></path>


<use xlink:href="#path-l5apit9iyk-2" x="0" y="0" stroke="#00aeec" transform="translate(489.56683349609375 360.3169860839844)" style="animation-play-state:paused" ></use>
<path id="path5" d="M 643.2736453794284 292.0042187667613
c 0 48.03174751701148 -11.752448860545362 13.796353010205426 -25.548801870750786 13.796353010205426
S 592.1760416379268 340.0359662837728 592.1760416379268 292.0042187667613
s 11.752448860545362 -13.796353010205426 25.548801870750786 -13.796353010205426
S 643.2736453794284 243.97247124974984 643.2736453794284 292.0042187667613
z" fill="none" stroke="none" style="animation-play-state:paused" ></path>


<use xlink:href="#path-l5apit9iyk-3" x="0" y="0" stroke="#00aeec" transform="translate(592.334228515625 300.639404296875)" style="animation-play-state:paused" ></use>
<path id="path6" d="M 686.3644870024752 269.1558047701958
c 0 61.81597412466389 -15.125185158162438 17.75565214219069 -32.88083730035313 17.75565214219069
S 620.6028124017689 330.9717788948597 620.6028124017689 269.1558047701958
s 15.125185158162438 -17.75565214219069 32.88083730035313 -17.75565214219069
S 686.3644870024752 207.33983064553192 686.3644870024752 269.1558047701958
z" fill="none" stroke="none" style="animation-play-state:paused" ></path>


<use xlink:href="#path-l5apit9iyk-3" x="0" y="0" stroke="#262470" transform="translate(673.335693359375 298.958251953125)" style="animation-play-state:paused" ></use>
<path id="path7" d="M 853.2921538484482 165.5322863609849
c 0 20.499539753727447 -5.015844833358843 5.88816567394299 -10.904010507301834 5.88816567394299
S 831.4841328338446 186.03182611471235 831.4841328338446 165.5322863609849
s 5.015844833358843 -5.88816567394299 10.904010507301834 -5.88816567394299
S 853.2921538484482 145.03274660725745 853.2921538484482 165.5322863609849
z" fill="none" stroke="none" style="animation-play-state:paused" ></path>


<use xlink:href="#path-l5apit9iyk-2" x="0" y="0" stroke="#262470" transform="translate(832.6701049804688 175.75668334960938)" style="animation-play-state:paused" ></use>
<path id="path8" d="M 972.4100373381522 48.39112041126317
c 0 59.303292146341995 -14.510379993253892 17.033924339906743 -31.544304333160635 17.033924339906743
S 909.3214286718309 107.69441255760516 909.3214286718309 48.39112041126317
s 14.510379993253892 -17.033924339906743 31.544304333160635 -17.033924339906743
S 972.4100373381522 -10.912171735078829 972.4100373381522 48.39112041126317
z" fill="none" stroke="none" style="animation-play-state:paused" ></path>


<use xlink:href="#path-l5apit9iyk-3" x="0" y="0" stroke="#262470" transform="translate(954.5056762695312 72.36902618408203)" style="animation-play-state:paused" ></use>
<path id="path9" d="M 989.9304034965762 254.04470358542846
c 0 48.40621400253907 -11.844073638919133 13.903912532644203 -25.747986171563333 13.903912532644203
S 938.4344311534496 302.4509175879675 938.4344311534496 254.04470358542846
s 11.844073638919133 -13.903912532644203 25.747986171563333 -13.903912532644203
S 989.9304034965762 205.6384895828894 989.9304034965762 254.04470358542846
z" fill="none" stroke="none" style="animation-play-state:paused" ></path>


<use xlink:href="#path-l5apit9iyk-2" x="0" y="0" stroke="#262470" transform="translate(961.3338623046875 268.404052734375)" style="animation-play-state:paused" ></use>
<path id="path10" d="M 1129.3931010571064 35.95677960193751
c 0 35.10147867024043 -8.588659674633297 10.082339618047785 -18.67099929268108 10.082339618047785
S 1092.0511024717443 71.05825827217794 1092.0511024717443 35.95677960193751
s 8.588659674633297 -10.082339618047785 18.67099929268108 -10.082339618047785
S 1129.3931010571064 0.8553009316970801 1129.3931010571064 35.95677960193751
z" fill="none" stroke="none" style="animation-play-state:paused" ></path>


<use xlink:href="#path-l5apit9iyk-1" x="0" y="0" stroke="#e6a430" transform="translate(1128.16845703125 51.491641998291016)" style="animation-play-state:paused" ></use>
<path id="path11" d="M 1224.8042296905235 550.7623868615167
c 0 36.713764558188494 -8.98315515785463 10.545443011394568 -19.5285981692492 10.545443011394568
S 1185.7470333520253 587.4761514197052 1185.7470333520253 550.7623868615167
s 8.98315515785463 -10.545443011394568 19.5285981692492 -10.545443011394568
S 1224.8042296905235 514.0486223033282 1224.8042296905235 550.7623868615167
z" fill="none" stroke="none" style="animation-play-state:paused" ></path>


<use xlink:href="#path-l5apit9iyk-2" x="0" y="0" stroke="#262470" transform="translate(1200.14013671875 563.09423828125)" style="animation-play-state:paused" ></use>
<path id="path12" d="M 1372.4075803104136 241.07107657579593
c 0 28.350134313908043 -6.936734991700903 8.143123685909757 -15.07985867761066 8.143123685909757
S 1342.2478629551922 269.42121088970396 1342.2478629551922 241.07107657579593
s 6.936734991700903 -8.143123685909757 15.07985867761066 -8.143123685909757
S 1372.4075803104136 212.7209422618879 1372.4075803104136 241.07107657579593
z" fill="none" stroke="none" style="animation-play-state:paused" ></path>


<use xlink:href="#path-l5apit9iyk-2" x="0" y="0" stroke="#262470" transform="translate(1360.0140380859375 249.87979125976562)" style="animation-play-state:paused" ></use>
<path id="path13" d="M 1475.8920771416617 128.6085050868884
c 0 43.8722369864157 -10.734696283910223 12.60159998545983 -23.336296269370052 12.60159998545983
S 1429.2194846029217 172.4807420733041 1429.2194846029217 128.6085050868884
s 10.734696283910223 -12.60159998545983 23.336296269370052 -12.60159998545983
S 1475.8920771416617 84.73626810047271 1475.8920771416617 128.6085050868884
z" fill="none" stroke="none" style="animation-play-state:paused" ></path>


<use xlink:href="#path-l5apit9iyk-3" x="0" y="0" stroke="#262470" transform="translate(1461.9630126953125 145.77435302734375)" style="animation-play-state:paused" ></use>
<path id="path14" d="M 1600.1130785369405 506.17937625643725
c 0 54.07324897448475 -13.230688578863287 15.531677896926471 -28.762366475789758 15.531677896926471
S 1542.588345585361 560.252625230922 1542.588345585361 506.17937625643725
s 13.230688578863287 -15.531677896926471 28.762366475789758 -15.531677896926471
S 1600.1130785369405 452.1061272819525 1600.1130785369405 506.17937625643725
z" fill="none" stroke="none" style="animation-play-state:paused" ></path>


<use xlink:href="#path-l5apit9iyk-3" x="0" y="0" stroke="#00aeec" transform="translate(1599.1519775390625 525.47900390625)" style="animation-play-state:paused" ></use>
<path id="path15" d="M 1623.0817544089646 30.062269574027987
c 0 44.99470530724071 -11.009342787941875 12.92401109888829 -23.933353886830165 12.92401109888829
S 1575.2150466353041 75.0569748812687 1575.2150466353041 30.062269574027987
s 11.009342787941875 -12.92401109888829 23.933353886830165 -12.92401109888829
S 1623.0817544089646 -14.93243573321272 1623.0817544089646 30.062269574027987
z" fill="none" stroke="none" style="animation-play-state:paused" ></path>


<use xlink:href="#path-l5apit9iyk-2" x="0" y="0" stroke="#00aeec" transform="translate(1622.4322509765625 44.95707702636719)" style="animation-play-state:paused" ></use>
<path id="path16" d="M 1766.7394677086072 416.14899092967033
c 0 29.291789408740552 -7.167139961713113 8.413599085489308 -15.580739047202421 8.413599085489308
S 1735.5779896142026 445.4407803384109 1735.5779896142026 416.14899092967033
s 7.167139961713113 -8.413599085489308 15.580739047202421 -8.413599085489308
S 1766.7394677086072 386.8572015209298 1766.7394677086072 416.14899092967033
z" fill="none" stroke="none" style="animation-play-state:paused" ></path>


<use xlink:href="#path-l5apit9iyk-1" x="0" y="0" stroke="#00aeec" transform="translate(1761.9586181640625 431.25762939453125)" style="animation-play-state:paused" ></use>
<path id="path17" d="M 1828.3285705048966 89.99426139270909
c 0 54.97453356065153 -13.451215658457288 15.790557512102037 -29.241773170559323 15.790557512102037
S 1769.845024163778 144.96879495336063 1769.845024163778 89.99426139270909
s 13.451215658457288 -15.790557512102037 29.241773170559323 -15.790557512102037
S 1828.3285705048966 35.01972783205756 1828.3285705048966 89.99426139270909
z" fill="none" stroke="none" style="animation-play-state:paused" ></path>


<use xlink:href="#path-l5apit9iyk-3" x="0" y="0" stroke="#e6a430" transform="translate(1807.74609375 109.10618591308594)" style="animation-play-state:paused" ></use></g></svg>
