<?xml version="1.0" standalone="no"?>
<!DOCTYPE svg PUBLIC "-//W3C//DTD SVG 20010904//EN"
 "http://www.w3.org/TR/2001/REC-SVG-20010904/DTD/svg10.dtd">
<svg version="1.0" xmlns="http://www.w3.org/2000/svg"
 width="721.000000pt" height="721.000000pt" viewBox="0 0 721.000000 721.000000"
 preserveAspectRatio="xMidYMid meet">
<metadata>
Created by potrace 1.14, written by Peter Selinger 2001-2017
</metadata>
<g transform="translate(0.000000,721.000000) scale(0.100000,-0.100000)"
fill="#000000" stroke="none">
<path d="M3537 7014 c-1 -1 -62 -5 -136 -8 -73 -4 -136 -8 -140 -10 -3 -2 -38
-7 -77 -10 -39 -4 -80 -8 -90 -10 -11 -2 -39 -7 -64 -11 -50 -8 -46 -7 -150
-30 -420 -89 -852 -276 -1208 -523 -227 -156 -468 -371 -632 -561 -30 -35 -60
-69 -66 -75 -19 -20 -159 -209 -201 -271 -108 -161 -225 -374 -303 -555 -33
-75 -98 -242 -105 -270 -2 -8 -20 -67 -39 -132 -33 -112 -68 -259 -81 -343 -3
-22 -10 -67 -15 -100 -27 -180 -34 -270 -34 -500 -1 -175 6 -321 19 -405 2
-14 7 -45 10 -70 83 -621 360 -1241 769 -1725 189 -223 460 -470 670 -608 114
-76 125 -79 218 -79 154 0 276 116 284 268 6 139 -34 198 -226 332 -13 9 -60
46 -105 82 -449 361 -773 841 -940 1394 -36 119 -81 324 -91 413 -3 26 -7 58
-9 71 -22 132 -22 416 0 657 6 60 37 232 57 310 11 44 21 87 23 95 9 47 63
209 102 305 285 709 849 1280 1550 1569 62 25 117 46 122 46 7 0 8 -16 3 -42
-12 -70 -7 -309 7 -368 16 -71 28 -105 67 -198 l17 -43 -640 -642 c-678 -681
-693 -697 -774 -872 -75 -163 -104 -298 -104 -485 0 -170 21 -287 76 -426 62
-157 143 -280 265 -401 188 -185 415 -294 684 -328 55 -7 224 -7 265 0 62 10
101 17 125 22 45 8 174 54 240 85 84 40 162 90 226 144 48 40 52 42 77 29 111
-58 273 -94 420 -93 585 1 1031 514 953 1093 -10 71 -41 184 -70 249 l-25 56
20 19 c31 28 137 78 204 96 63 16 173 21 240 10 61 -10 195 -63 195 -77 0 -5
7 -8 15 -8 9 0 48 -33 89 -72 199 -197 231 -485 80 -723 -17 -28 -302 -320
-643 -661 l-611 -611 -85 34 c-47 19 -95 36 -108 39 -179 41 -357 41 -505 0
-97 -27 -220 -84 -300 -138 -73 -49 -205 -186 -255 -264 -56 -86 -90 -163
-124 -274 -32 -107 -41 -312 -18 -430 81 -415 407 -723 825 -779 66 -9 338 -7
420 3 25 3 68 8 95 11 126 14 361 58 485 92 136 36 377 119 395 135 5 4 17 8
26 8 27 0 383 183 502 257 669 422 1166 1044 1420 1778 70 201 132 452 152
614 4 30 9 63 11 75 2 11 6 54 10 96 3 41 7 91 9 110 6 45 5 391 0 450 -2 25
-6 81 -10 124 -3 44 -8 83 -10 86 -3 4 -7 33 -10 64 -6 48 -22 133 -65 331
-37 169 -140 452 -240 655 -236 482 -557 879 -970 1201 -250 195 -325 225
-461 186 -190 -56 -266 -299 -141 -455 18 -23 61 -61 95 -84 34 -23 67 -46 72
-50 6 -5 59 -47 119 -95 340 -271 631 -655 811 -1068 7 -16 20 -46 28 -65 43
-99 128 -379 143 -469 3 -14 9 -48 14 -76 5 -27 12 -68 16 -90 3 -22 7 -51 10
-65 11 -66 19 -231 18 -385 -1 -195 -9 -294 -40 -465 -127 -710 -528 -1356
-1104 -1777 -109 -79 -215 -149 -280 -183 -25 -14 -52 -29 -60 -35 -29 -21
-276 -133 -290 -132 -3 0 -16 -5 -29 -12 -13 -7 -37 -17 -53 -22 -25 -7 -28
-5 -24 9 9 31 19 116 20 187 3 124 -21 249 -73 378 l-29 72 637 640 c657 660
682 687 764 850 35 69 83 201 93 258 3 17 7 33 9 36 7 13 18 150 18 236 -2
452 -288 876 -707 1050 -330 136 -711 116 -1011 -53 -63 -36 -173 -112 -199
-138 -15 -14 -23 -13 -92 16 -87 36 -88 36 -209 59 -163 31 -368 10 -525 -53
-247 -100 -459 -322 -543 -567 -79 -230 -75 -464 14 -688 37 -95 42 -87 -76
-146 -87 -44 -178 -64 -275 -59 -92 3 -119 9 -194 39 -268 108 -413 396 -341
677 18 71 57 150 100 203 47 58 1226 1235 1237 1235 5 0 26 -9 48 -20 50 -25
190 -66 260 -75 324 -44 644 78 861 326 115 131 208 338 227 507 46 401 -143
769 -498 969 -54 31 -207 87 -265 98 -54 10 -252 25 -258 19z m208 -616 c76
-29 163 -113 202 -194 25 -52 28 -71 28 -154 0 -87 -3 -101 -32 -161 -71 -144
-200 -221 -359 -215 -61 2 -86 9 -148 40 -315 155 -264 617 78 702 67 17 159
10 231 -18z m-23 -2439 c101 -34 168 -94 220 -199 30 -59 33 -72 33 -160 0
-84 -4 -102 -29 -153 -120 -243 -428 -298 -612 -109 -142 147 -146 367 -9 520
98 109 256 149 397 101z m-13 -2440 c196 -62 312 -272 256 -464 -79 -274 -414
-366 -623 -171 -50 47 -95 125 -110 193 -10 45 -7 167 5 186 4 6 8 14 8 17 0
3 10 25 23 50 42 87 145 168 247 195 49 13 144 10 194 -6z"/>
</g>
</svg>
