<svg xmlns="http://www.w3.org/2000/svg" width="2500" height="2500" viewBox="0 0 40 40" data-testid="" fill="#f0b90b" font-size="40"><path d="M20.245 0L9.634 6.125l3.901 2.262 6.71-3.862 6.71 3.862 3.902-2.262L20.245 0zM26.956 11.586l3.9 2.263v4.526l-6.71 3.862v7.724l-3.9 2.263-3.902-2.263v-7.724l-6.71-3.862v-4.526l3.901-2.263 6.71 3.863 6.71-3.863z"></path><path d="M30.857 21.573V26.1l-3.901 2.262v-4.525l3.9-2.263z"></path><path d="M26.916 31.56l6.71-3.862v-7.724l3.902-2.263v12.25l-10.611 6.125V31.56zM33.627 12.25l-3.902-2.263 3.902-2.263 3.9 2.263v4.525l-3.9 2.263V12.25zM16.344 37.724V33.2l3.901 2.263 3.902-2.263v4.525l-3.902 2.263-3.9-2.263zM13.535 28.361L9.634 26.1v-4.526l3.901 2.263v4.525zM20.245 12.25l-3.9-2.263 3.9-2.263 3.902 2.263-3.902 2.263zM10.765 9.987l-3.9 2.263v4.525l-3.902-2.263V9.987l3.901-2.263 3.901 2.263z"></path><path d="M2.963 17.711l3.901 2.263v7.724l6.71 3.862v4.526L2.963 29.96V17.71z"></path></svg>
