<?xml version="1.0" encoding="UTF-8"?>
<!DOCTYPE svg PUBLIC "-//W3C//DTD SVG 1.1//EN" "http://www.w3.org/Graphics/SVG/1.1/DTD/svg11.dtd">
<!-- Creator: CorelDRAW X7 -->
<svg xmlns="http://www.w3.org/2000/svg" xml:space="preserve" width="7.5in" height="7.5in" version="1.1" style="shape-rendering:geometricPrecision; text-rendering:geometricPrecision; image-rendering:optimizeQuality; fill-rule:evenodd; clip-rule:evenodd"
viewBox="0 0 7500 7500"
 xmlns:xlink="http://www.w3.org/1999/xlink">
 <defs>
  <style type="text/css">
   <![CDATA[
    .fil0 {fill:none}
    .fil1 {fill:#4D4D4D}
    .fil2 {fill:#F3BA2F}
   ]]>
  </style>
 </defs>
 <g id="Layer_x0020_1">
  <metadata id="CorelCorpID_0Corel-Layer"/>
  <rect class="fil0" width="7500" height="7500"/>
  <g id="_2419820813232">
   <circle class="fil1" cx="3750" cy="3750" r="3100"/>
   <g>
    <path class="fil2" d="M2779 3351l971 -971 971 972 565 -565 -1536 -1537 -1536 1536 565 565 0 0zm-1529 399l565 -565 565 565 -565 565 -565 -565zm1529 399l971 971 971 -972 566 565 0 0 -1537 1537 -1536 -1536 -1 -1 566 -564 0 0zm2341 -399l565 -565 565 565 -565 565 -565 -565z"/>
   </g>
   <g>
    <path class="fil2" d="M4380 3750l0 0 -630 -632 -466 467 0 0 -54 54 -111 111 -1 1 1 1 630 630 631 -631 0 0 0 0 0 -1zm0 0l0 0 0 0z"/>
   </g>
  </g>
 </g>
</svg>
