<svg xmlns="http://www.w3.org/2000/svg" viewBox="0.17 0.43 121.23 120.87">
    <path fill="#12161c" d="M25.2 57.8a5.1 5.1 0 015.2-5.2H39a5.2 5.2 0 015.1 5.2v32.4l3.6-1a4.3 4.3 0 003.3-4V44.8a5.2 5.2 0 015.1-5.1h8.6a5.2 5.2 0 015.2 5.1v37.3l4.2-1.7a4.3 4.3 0 002.6-4V32A5.2 5.2 0 0182 27h8.6a5.2 5.2 0 015.1 5.1v36.7c7.5-5.4 15-12 21-19.7a8.6 8.6 0 001.3-8A60.6 60.6 0 108.1 91a7.7 7.7 0 007.3 3.8l6-.6a4.3 4.3 0 003.8-4.3V57.8" />
    <path fill="#f0b90b" d="M25 109.7a60.7 60.7 0 0096.4-49c0-1.4 0-2.8-.2-4.2-22.1 33-63 48.5-96.2 53.2" />
</svg>