<svg xmlns="http://www.w3.org/2000/svg" xml:space="preserve" viewBox="6 18 200 220">
    <path fill="#663406" d="M90 205l-12-2c-15-4-30-10-41-23-7-7-11-16-10-27 0-7-1-13 1-19 4-15 15-24 28-31 4-2 5-4 4-8l-5-24c-1-9 1-17 9-22 6-5 14-6 22-3 8 4 12 11 12 21v22c-1 2 0 3 3 3h11c3 0 3-1 3-3V66c1-13 11-23 24-22s21 13 19 26l-5 26c-1 3-1 5 2 6 11 5 20 12 26 22 4 6 6 13 6 20l-1 16c-2 14-11 24-23 31-11 7-23 11-37 13l-8 1H90zm-57-57v12c3 11 9 18 18 24 14 10 30 14 46 15 22 2 43-1 62-13 14-8 23-20 21-39 1-12-4-22-14-30-5-5-12-9-19-11-2-1-3-2-2-4l6-33c2-8-4-17-13-18s-16 6-16 15v29c0 3-1 5-4 4H94c-2 1-3 0-3-3V66c0-9-7-16-16-15s-15 9-13 18l6 32c0 3 0 4-3 5l-14 8c-11 8-19 18-18 34z" />
    <path fill="#d0874f" d="M33 148c-1-16 7-26 18-34l14-8c3-1 3-2 3-5l-6-32c-2-9 4-17 13-18 8-1 16 6 16 15v30c0 2 1 3 3 3h24c3 0 4-1 4-4V66c0-9 7-16 16-15s15 10 13 18l-6 33c0 2 0 3 2 4 7 2 14 6 19 11 10 8 15 18 14 30-3 13-11 21-21 28-15 8-30 12-47 13-15 1-31-1-46-7s-29-16-33-33zm53-8c0-4-1-7-3-9-3-4-8-4-11 0-3 5-3 13 1 18 3 4 8 4 11 0l2-9zm57 0c0-4-1-7-4-10s-7-3-10 0c-4 5-4 15 1 20 3 3 7 3 10-1l3-9z" />
    <path fill="#fbd88d" d="M33 148c4 17 18 27 34 33 14 6 30 8 46 7s32-4 46-13c10-6 18-15 21-27 2 18-7 30-21 38-19 12-40 15-62 13-16-1-32-5-46-14-9-7-15-14-18-25v-12z" />
    <path fill="#653203" d="M86 140l-2 9c-3 4-8 4-11 0-4-4-4-13-1-18 4-4 8-4 11 0 2 2 3 5 3 9zM143 140l-3 9c-3 4-7 4-10 1-5-5-5-15-1-20 3-3 7-3 10 0s4 6 4 10z" />
</svg>