<svg id="Layer_1" data-name="Layer 1" xmlns="http://www.w3.org/2000/svg" xmlns:xlink="http://www.w3.org/1999/xlink" viewBox="0 0 393.17 369.06"><defs><linearGradient id="linear-gradient" x1="258.56" y1="242.29" x2="241.51" y2="236.61" gradientUnits="userSpaceOnUse"><stop offset="0" stop-opacity="0"/><stop offset="0.99"/></linearGradient><linearGradient id="linear-gradient-2" x1="226.61" y1="244.28" x2="157.91" y2="215.87" xlink:href="#linear-gradient"/><linearGradient id="linear-gradient-3" x1="143.65" y1="26.07" x2="187.04" y2="97.35" xlink:href="#linear-gradient"/><linearGradient id="linear-gradient-4" x1="278.03" y1="88.04" x2="75.8" y2="349.15" xlink:href="#linear-gradient"/><linearGradient id="linear-gradient-5" x1="186.2" y1="95.53" x2="228.69" y2="166.03" xlink:href="#linear-gradient"/><linearGradient id="linear-gradient-6" x1="192.6" y1="122.92" x2="186.27" y2="73.97" gradientUnits="userSpaceOnUse"><stop offset="0.02" stop-color="#fff" stop-opacity="0"/><stop offset="0.58" stop-color="#fff" stop-opacity="0.39"/><stop offset="0.68" stop-color="#fff" stop-opacity="0.68"/><stop offset="1" stop-color="#fff"/></linearGradient><linearGradient id="linear-gradient-7" x1="191.73" y1="97.8" x2="214.6" y2="97.8" gradientUnits="userSpaceOnUse"><stop offset="0" stop-color="#e5c5d5"/><stop offset="0.42" stop-color="#ead4d1"/><stop offset="1" stop-color="#f0e9cb"/></linearGradient><linearGradient id="linear-gradient-8" x1="170.31" y1="71.67" x2="205.22" y2="71.67" xlink:href="#linear-gradient-7"/><linearGradient id="linear-gradient-9" x1="171.81" y1="39.55" x2="161.64" y2="81.5" xlink:href="#linear-gradient"/><linearGradient id="linear-gradient-10" x1="86.11" y1="166.99" x2="127.86" y2="166.99" xlink:href="#linear-gradient-7"/><linearGradient id="linear-gradient-11" x1="268.2" y1="25.23" x2="285.46" y2="25.23" xlink:href="#linear-gradient-7"/><linearGradient id="linear-gradient-12" x1="156.89" y1="336.88" x2="179.36" y2="369.81" xlink:href="#linear-gradient"/><linearGradient id="linear-gradient-13" x1="150.99" y1="129.55" x2="352.67" y2="464.26" xlink:href="#linear-gradient"/></defs><title>Graduation</title><path d="M396.05,156.87c-.35-11.31-2.88-23-10-31.8-8.9-11-23.22-15.62-35.55-22.54A98.36,98.36,0,0,1,307,51.76c-2.34-6.27-4.11-12.91-8-18.33-10.72-14.76-33.1-14.86-50.16-8.38s-32.23,17.9-50,21.88c-20.46,4.57-41.64-1.24-62.57-2.31S91,49.55,82,68.52c-5.68,12-3.72,26.53-9.13,38.68C60.67,134.66,18.18,137.57,6,165c-9.15,20.58,3.75,44.42,19.75,60.27s36,28.75,46.09,48.85c11,21.83,10.85,52.06,32.18,64s50.6-3.68,71.8,8.59c7.25,4.2,12.48,11.16,19.27,16.07,23.9,17.28,58.48,3.8,79.47-16.92,26.42-26.09,54.57-56.63,77.66-85.5C375.7,231,397.27,195.84,396.05,156.87Z" transform="translate(-2.93 -1.66)" fill="#3c44b1" opacity="0.18" style="isolation:isolate"/><path d="M199.85,339a6.23,6.23,0,0,0,1.68-3.07,6.33,6.33,0,0,0-1.36-4.05A90.21,90.21,0,0,0,188.5,317a11.94,11.94,0,0,1-2.44-3.1c-.94-2-.74-4.62-2.36-6.15-7.83,1.52-15.89,4.35-21,10.51a7.78,7.78,0,0,0-1.91,3.75c-.25,1.89.65,3.73,1.55,5.42q2.26,4.27,4.67,8.48a26.85,26.85,0,0,0,4.54,6.37,46.49,46.49,0,0,0,4.21,3.28c2.11,1.61,3.85,4.16,6.06,5.56s3.91-.17,5.81-1.4A55.12,55.12,0,0,0,199.85,339Z" transform="translate(-2.93 -1.66)" fill="#3c44b1" opacity="0.18" style="isolation:isolate"/><polygon points="186.41 17.55 184.28 16.63 145.15 30.58 128.37 82.36 129.99 82.4 186.41 17.55" fill="#3c44b1"/><path d="M144.19,235.1a3.39,3.39,0,0,0-2.27-.62,3.3,3.3,0,0,0-1.42.85,184,184,0,0,0-19.77,19.72,3.16,3.16,0,0,0-.75,1.2,2.6,2.6,0,0,0,1.23,2.52c3,2.26,7.26,1.43,10.75.07a31.94,31.94,0,0,0,8.4-4.65c1.3-1,2.49-2.2,3.68-3.36,2.55-2.49,5.27-5.16,6.6-8.55.68-1.74.87-2.38-.41-3.59C148.67,237.2,146.08,236.16,144.19,235.1Z" transform="translate(-2.93 -1.66)" fill="#3e3e54"/><path d="M150.13,270a19.13,19.13,0,0,0-2.62,5.42,3,3,0,0,0,0,1.82,2.85,2.85,0,0,0,.91,1.1c2.55,2,6.23,2.16,9.29,1a22.26,22.26,0,0,0,7.86-5.67,66.1,66.1,0,0,0,7.15-8.68,2.27,2.27,0,0,0,.58-1.67,2,2,0,0,0-.65-1c-3-2.86-8.86-3.53-12.76-2.66C155.61,260.67,152.37,266.55,150.13,270Z" transform="translate(-2.93 -1.66)" fill="#3e3e54"/><path d="M260.81,191.59s10,80.71-3.53,85.13-49.2-5.89-52.14-6.18S173,265.23,173,265.23l2.06-14.73s58.62,7.07,62.75,2.66-3.54-38.3-3.54-38.3l.88-17.67Z" transform="translate(-2.93 -1.66)" fill="#3e3e54"/><path d="M260.81,191.59s10,80.71-3.53,85.13-49.2-5.89-52.14-6.18S173,265.23,173,265.23l2.06-14.73s58.62,7.07,62.75,2.66-3.54-38.3-3.54-38.3l.88-17.67Z" transform="translate(-2.93 -1.66)" fill="url(#linear-gradient)"/><path d="M204.25,209.26s-9.13,42.42-15,41.54-37.12-12.67-37.12-12.67-5.89,5.89-5.59,11.49,42.42,33.58,52.14,28.87S223.11,242,237,209.56l4.13-8.4Z" transform="translate(-2.93 -1.66)" fill="#3e3e54"/><path d="M204.25,209.26s-9.13,42.42-15,41.54-37.12-12.67-37.12-12.67-5.89,5.89-5.59,11.49,42.42,33.58,52.14,28.87S223.11,242,237,209.56l4.13-8.4Z" transform="translate(-2.93 -1.66)" fill="url(#linear-gradient-2)"/><polygon points="147.19 31.6 129.99 82.4 156.01 80.91 183.64 52.3 186.41 17.55 147.19 31.6" fill="#3c44b1"/><polygon points="147.19 31.6 129.99 82.4 156.01 80.91 183.64 52.3 186.41 17.55 147.19 31.6" fill="url(#linear-gradient-3)"/><path d="M258.33,51.53a111.11,111.11,0,0,0,10-15,60,60,0,0,1,9.91,24.79,9.71,9.71,0,0,1,.07,3.72,10.11,10.11,0,0,1-1.62,3.27A91.28,91.28,0,0,1,258.63,88.2c-2.69,2.21-5.58,4.34-7.32,7.35-3.47,6-1.5,13.49.34,20.15C258.37,140,274.28,212.23,275,237.47c-21.56,12.28-65.44,1.89-90.24,2.73,11.49-23.51,4.47-72.15.45-93-17.27,8.86-35.09,17.88-54.43,19.63l-10.47-20.66c9.68-7.8,22.31-10.93,32.73-17.72,8.91-5.81,15.89-14.09,24.12-20.84,9.84-8.06,21.05-13.13,33.1-16.9a74.49,74.49,0,0,0,33-20.48A213.44,213.44,0,0,0,258.33,51.53Z" transform="translate(-2.93 -1.66)" fill="#3c44b1"/><path d="M278.32,65a9.91,9.91,0,0,1-1.62,3.27A91.49,91.49,0,0,1,258.64,88.2c-2.69,2.2-5.59,4.34-7.33,7.35-3.47,6-1.5,13.49.34,20.15C258.37,140,274.28,212.23,275,237.47c-12,6.82-30.83,6.65-49.49,5.29-14.93-1.08-29.72-2.93-40.75-2.56,11.48-23.51,4.47-72.14.45-93-17.28,8.86-35.09,17.88-54.43,19.63l-10.47-20.66c9.68-7.8,22.31-10.93,32.73-17.72,8.91-5.81,15.89-14.1,24.11-20.83,9.85-8.07,21.07-13.14,33.11-16.91A74.4,74.4,0,0,0,243.2,70.21a211.73,211.73,0,0,0,15.13-18.68,111.64,111.64,0,0,0,10-15,59.94,59.94,0,0,1,9.91,24.78A9.71,9.71,0,0,1,278.32,65Z" transform="translate(-2.93 -1.66)" fill="url(#linear-gradient-4)"/><path d="M220.15,86.87l3.09-1.43s-1.29,14-2.19,15.63S210.85,114,210.85,114a102.91,102.91,0,0,1-14.08,3.23c-7.1,1-19.5,4.78-24.28,4.91A119.3,119.3,0,0,0,160,123.54s9.3-10.07,10.46-10.72S220.15,86.87,220.15,86.87Z" transform="translate(-2.93 -1.66)" fill="url(#linear-gradient-5)"/><path d="M158.75,114.52a28.81,28.81,0,0,0,15.84,4.25c5.26-.15,10.35-1.74,15.37-3.32,7.7-2.43,12.34,1.82,19.89-1,1.34-.51,5.8-7.74,6.72-8.83a8.26,8.26,0,0,0,1.41-3A57,57,0,0,0,219.81,80c.19,1.57-16,8.41-17.88,9.29a126.16,126.16,0,0,1-14.29,5.51A59.31,59.31,0,0,0,158.75,114.52Z" transform="translate(-2.93 -1.66)" fill="#3c44b1"/><path d="M158.75,114.52a28.81,28.81,0,0,0,15.84,4.25c5.26-.15,10.35-1.74,15.37-3.32,7.7-2.43,12.34,1.82,19.89-1,1.34-.51,5.8-7.74,6.72-8.83a8.26,8.26,0,0,0,1.41-3A57,57,0,0,0,219.81,80c.19,1.57-16,8.41-17.88,9.29a126.16,126.16,0,0,1-14.29,5.51A59.31,59.31,0,0,0,158.75,114.52Z" transform="translate(-2.93 -1.66)" fill="url(#linear-gradient-6)"/><path d="M194.36,91.62a9.7,9.7,0,0,1,.85,5.7,20.88,20.88,0,0,1-2.07,4.94,7.65,7.65,0,0,0-.89,5.18,6,6,0,0,0,3.23,3.62,15.54,15.54,0,0,0,4.81,1.26,11.22,11.22,0,0,0,2.08.16,10.48,10.48,0,0,0,4.62-1.6,16.62,16.62,0,0,0,6.19-5.35,8.08,8.08,0,0,0,.69-7.87,6.32,6.32,0,0,0-3-2.81c-1.25-.57-2.72-.73-3.76-1.62a6.91,6.91,0,0,1-1.48-2.13l-3.33-6.41a3.17,3.17,0,0,0-.85-1.15,2.48,2.48,0,0,0-1.33-.41c-2.65-.21-5.11,1.1-7.24,2.51-1.33.87-1.49,1.18-.58,2.5A21.76,21.76,0,0,1,194.36,91.62Z" transform="translate(-2.93 -1.66)" fill="url(#linear-gradient-7)"/><path d="M203.32,69c1.91,3.67,2.65,8.19,1,12A12.3,12.3,0,0,1,200,85.92a8.27,8.27,0,0,1-2.83,1.34,11.36,11.36,0,0,1-3.77,0,26.21,26.21,0,0,1-7.15-1.46,19.34,19.34,0,0,1-3.64-2.08A3.13,3.13,0,0,0,181,83a3.8,3.8,0,0,0-1,.2,6,6,0,0,1-2.66.09,3.24,3.24,0,0,1-2.56-1.83c-.38-1,.39-2.44,1.48-2.34-2.36-1.24-3.74-3.74-5-6.09a7.38,7.38,0,0,1-.91-2.31,7.14,7.14,0,0,1,.66-3.56,20,20,0,0,1,2.09-4.25c2-2.83,5.17-4.6,8.43-5.75,3.44-1.2,7.58-1.89,11-.32a11.43,11.43,0,0,1,3,2.66c1.37,1.38,2.74,2.76,4,4.23A28,28,0,0,1,203.32,69Z" transform="translate(-2.93 -1.66)" fill="url(#linear-gradient-8)"/><path d="M181.84,61.89A14.26,14.26,0,0,0,176,66.6a16.25,16.25,0,0,0-1.59,4,5.07,5.07,0,0,0-.13,3.59,5,5,0,0,0,1.3,1.48l5.06,4.44c-2.38-2.09-6.08-.91-9.17-1.57A8.55,8.55,0,0,1,165.82,74a11,11,0,0,1-.81-7.33,12,12,0,0,0,.36-1.86c.07-1-.26-2.07-.27-3.12,0-2.45,1.77-4.52,3.6-6.15s3.91-3.18,4.87-5.44a12.79,12.79,0,0,1,1.27-2.93c.59-.75,4.51-.94,5.36-1.38,2-1,.86-2.26,2.82-3.26a2.3,2.3,0,0,1,1.13-.35,2.21,2.21,0,0,1,1.34.69c2.33,2,6.47,6.6,6.09,10C191,57.72,185.58,60,181.84,61.89Z" transform="translate(-2.93 -1.66)" fill="#3e3e54"/><path d="M171.3,78.08c-1.54.77-3.32-.25-4.73-1.23l-7.15-5a5.42,5.42,0,0,1-1.57-1.44,5.22,5.22,0,0,1-.57-1.87,26.89,26.89,0,0,1,.93-13.48,15.86,15.86,0,0,1,9.12-9.58c.63-.22,3.37-2.43,4-2.35s4.39,1.87,8.84,2.65c.9.16-6.82,5-9.58,15.22C167.92,71,170.5,71.82,171.3,78.08Z" transform="translate(-2.93 -1.66)" fill="#3c44b1"/><path d="M171.3,78.08c-1.54.77-3.32-.25-4.73-1.23l-7.15-5a5.42,5.42,0,0,1-1.57-1.44,5.22,5.22,0,0,1-.57-1.87,26.89,26.89,0,0,1,.93-13.48,15.86,15.86,0,0,1,9.12-9.58c.63-.22,3.37-2.43,4-2.35a61,61,0,0,1,8.84,2.65c.85.33-6.82,5-9.58,15.22C167.92,71,170.5,71.82,171.3,78.08Z" transform="translate(-2.93 -1.66)" fill="url(#linear-gradient-9)"/><path d="M137.28,71.29c-.44,3.52-1.35,7-1.32,10.52.07,9.07,3.19,17.82,4.32,26.82a15,15,0,0,1,0,5.05c-.41,1.91-1.46,3.61-2.15,5.44-1.23,3.27-1.28,6.85-1.32,10.34l2.13-4.16.23,1.8c.07-.32.67.07.4.26a5.35,5.35,0,0,0,.58-2.86,13.44,13.44,0,0,1,.14,3.8,53.78,53.78,0,0,0,2.44-12.62c.15-2-.05-4.4-1.81-5.34a64.36,64.36,0,0,0-1.54-10.43c-1.1-3.81-3.1-13.17-2.65-20.47a56.86,56.86,0,0,1,2.2-12.66S137.84,66.82,137.28,71.29Z" transform="translate(-2.93 -1.66)" fill="#3c44b1"/><path d="M103.32,159.13c-1.67-.4-3.4-1-5.06-.57s-3,2.58-1.87,3.91c.86,1,2.91,1.48,2.57,2.78a1.84,1.84,0,0,1-.62.85c-2.11,1.82-5,2.26-7.62,3.34s-5.1,3.5-4.53,6.23a25.68,25.68,0,0,0,7,4.92,12.84,12.84,0,0,0,10.91-.71c4.5-2.53,7-7.5,11-10.79,3.18-2.62,7.18-4.07,10.53-6.47.3-.22,2-.68,2.14-1a1.81,1.81,0,0,0-.08-1c-.63-2.25-2.51-6.71-4.29-8.1C117.76,157.61,111.22,161,103.32,159.13Z" transform="translate(-2.93 -1.66)" fill="url(#linear-gradient-10)"/><path d="M274.92,48.81c3.93-7.47,1.41-17,4.83-24.68,1.2-2.71,3.08-5.05,4.37-7.71s1.94-5.91.57-8.53A12.58,12.58,0,0,0,283,5.62L280.27,2.4a1.72,1.72,0,0,0-1-.73c-.59-.07-1.07.47-1.36,1-1.09,2-1,4.42-1.31,6.69s-1.27,4.77-3.42,5.57A8.69,8.69,0,0,0,269,9.85c-.33,4.44,3.23,8.34,3.47,12.78a15.59,15.59,0,0,1-1,5.63,71.83,71.83,0,0,1-3.28,8.39c1,2.51,2.17,5.24,3.15,7.75A13,13,0,0,0,273,47.69C273.54,48.38,274.16,48.38,274.92,48.81Z" transform="translate(-2.93 -1.66)" fill="url(#linear-gradient-11)"/><path d="M332.82,198.13a125.39,125.39,0,0,1,12.35-26.35c2.31-3.73,4.93-7.81,4.23-12.14Q328.88,150.2,308.73,140c-.58-.3-11.08,16.59-11.85,18.3-2.28,5.07-1.89,9.13,1.59,13.48C307,182.45,321.36,190.9,332.82,198.13Z" transform="translate(-2.93 -1.66)" fill="#3c44b1" opacity="0.18" style="isolation:isolate"/><path d="M336.05,194.9a125.86,125.86,0,0,1,12.35-26.35c2.31-3.73,4.93-7.81,4.23-12.14Q332.1,147,312,136.73c-.58-.3-11.08,16.59-11.85,18.3-2.28,5.07-1.89,9.13,1.59,13.48C310.27,179.22,324.59,187.67,336.05,194.9Z" transform="translate(-2.93 -1.66)" fill="#fff"/><path d="M96,208.53c-3.07-2.15-19,22.47-20.66,24.93-2.88-2.31-4.84-6.36-7.68-9.11-3.08-3-5.76-4.74-5.65-9.44.16-7.45,9.28-17.68,14.06-22.66C82.84,197.44,88.9,203.59,96,208.53Z" transform="translate(-2.93 -1.66)" fill="#3c44b1" opacity="0.18" style="isolation:isolate"/><path d="M94.57,205.3c-3.07-2.14-19,22.47-20.66,24.93-2.88-2.31-4.84-6.36-7.68-9.11-3.08-3-5.76-4.73-5.65-9.43.16-7.46,9.28-17.68,14.06-22.67C81.42,194.21,87.48,200.36,94.57,205.3Z" transform="translate(-2.93 -1.66)" fill="#fff"/><path d="M195.42,334.65a5,5,0,0,1-1.1,3.16,16.09,16.09,0,0,1-2.36,2.45L167.2,362.15c-2.43,2.15-5,4.36-8.1,5.25-6.77,1.93-13.47-2.86-18.89-7.36-4.63-3.83-9.36-7.79-13.07-12.46a35,35,0,0,1-4.48-7.18c-1.06-2.3,20.81-14.85,22.88-16l29.27-16.91,18.44,22.9C194.29,331.62,195.36,333,195.42,334.65Z" transform="translate(-2.93 -1.66)" fill="#fff"/><path d="M194.32,337.81a16.09,16.09,0,0,1-2.36,2.45L167.2,362.15c-2.43,2.15-5,4.36-8.1,5.25-6.77,1.93-13.47-2.86-18.89-7.36-4.63-3.83-9.36-7.79-13.07-12.46,1.65-3.72,6.06-6.42,10-9.22,9.46-6.77,19-13.6,29.58-18.41a1.46,1.46,0,0,1,2.12.44q5.85,6.24,12,12.19a22.21,22.21,0,0,0,4.85,3.86,7.7,7.7,0,0,0,6,.73c.89-.3,2.11-.7,2.54.13A.94.94,0,0,1,194.32,337.81Z" transform="translate(-2.93 -1.66)" fill="#3c44b1"/><path d="M194.32,337.81a16.09,16.09,0,0,1-2.36,2.45L167.2,362.15c-2.43,2.15-5,4.36-8.1,5.25-6.77,1.93-13.47-2.86-18.89-7.36-4.63-3.83-9.36-7.79-13.07-12.46,1.65-3.72,6.06-6.42,10-9.22,9.46-6.77,19-13.6,29.58-18.41a1.46,1.46,0,0,1,2.12.44q5.85,6.24,12,12.19a22.21,22.21,0,0,0,4.85,3.86,7.7,7.7,0,0,0,6,.73c.89-.3,2.11-.7,2.54.13A.94.94,0,0,1,194.32,337.81Z" transform="translate(-2.93 -1.66)" fill="url(#linear-gradient-12)"/><path d="M166.19,315.87l2.51-.88a.8.8,0,0,1,.48-.07.85.85,0,0,1,.36.32,69.73,69.73,0,0,0,10.84,11.35,2,2,0,0,1,.75.92" transform="translate(-2.93 -1.66)" fill="none" stroke="#3c44b1" stroke-miterlimit="10" stroke-width="1.17"/><path d="M174.31,314.51A62,62,0,0,0,181.4,323L190,332" transform="translate(-2.93 -1.66)" fill="none" stroke="#3c44b1" stroke-miterlimit="10" stroke-width="1.17"/><path d="M225.51,242.76c-14.93-1.08-29.72-2.93-40.75-2.56,11.48-23.51,4.47-72.14.45-93l6.27-5.05s7.62,45.07,9.42,54.37,7.24,35.39,15,39.52C222.35,239.46,224.86,242,225.51,242.76Z" transform="translate(-2.93 -1.66)" fill="url(#linear-gradient-13)"/></svg>