<svg id="Layer_1" data-name="Layer 1" xmlns="http://www.w3.org/2000/svg" viewBox="0 0 400 300"><title>#36 online shopping</title><path d="M121.86,108.92s-17.42-2.32-20.92,12.24-4,34.74-18,38.78-21.75-24-21.75-24-3.25-7.86-6.75-8.93-6,6.68,0,11.43c0,0,5.05,35.75,31.9,34.5S121.86,134.86,121.86,108.92Z" fill="#f4a28c"/><path d="M121.86,108.92s-17.42-2.32-20.92,12.24-4,34.74-18,38.78-21.75-24-21.75-24-3.25-7.86-6.75-8.93-6,6.68,0,11.43c0,0,5.05,35.75,31.9,34.5S121.86,134.86,121.86,108.92Z" opacity="0.08"/><ellipse cx="208.92" cy="262.31" rx="154.42" ry="20.7" fill="#e6e6e6" opacity="0.45"/><rect x="174.37" y="54.82" width="114.13" height="204.69" fill="#c9c9c9"/><rect x="183.81" y="78.15" width="94.47" height="144.05" fill="#fff"/><circle cx="231.78" cy="240.65" r="11.17" fill="#fff" opacity="0.56"/><rect x="221.78" y="62.82" width="32" height="4.67" opacity="0.12"/><circle cx="210.19" cy="65.66" r="5.21" fill="#fff"/><path d="M121.86,83s-11.49,13.53-2.31,18.41c13.47,7.16,15.11-17.59,15.11-17.59Z" fill="#24285b"/><path d="M122.76,84.34s-2.4,5.09-2.81,8.91a2.81,2.81,0,0,0,2.53,3.1,6.24,6.24,0,0,0,6.2-2.71l3.28-4a5.05,5.05,0,0,0-.22-5.83C129.56,80.55,124.06,81.17,122.76,84.34Z" fill="#f4a28c"/><polygon points="130.72 90.54 132.04 108.92 121.86 108.92 124.91 95.89 130.72 90.54" fill="#f4a28c"/><path d="M121.41,87.62l-2.22,1.49a.9.9,0,0,0,0,1.52l1.87,1.13Z" fill="#f4a28c"/><path d="M124.83,96.26a6.88,6.88,0,0,0,3.31-1.59s.66,4-4.19,5.32Z" fill="#ce8172" opacity="0.31"/><path d="M127.4,90.32s.79-2,2.26-1.3.34,3.64-1.83,3.15Z" fill="#f4a28c"/><polygon points="103.48 213.57 94.87 252.7 99.87 252.7 116.63 213.57 103.48 213.57" fill="#f4a28c"/><polygon points="131.49 208.82 140.67 252.7 145.7 252.7 144.94 208.51 131.49 208.82" fill="#f4a28c"/><path d="M94.87,252.7s-2.78,3.52-6.34,3.35-4.07,4.85,1.64,4.33a32.18,32.18,0,0,0,5.27-.9,9.22,9.22,0,0,1,4.83.17,1.56,1.56,0,0,0,1.63-.65c1.62-1.91-2.37-6.3-2.37-6.3Z" fill="#3c44b1"/><path d="M145.33,252.7s2.78,3.52,6.34,3.35,4.08,4.85-1.64,4.33a32.18,32.18,0,0,1-5.27-.9,9.22,9.22,0,0,0-4.83.17,1.56,1.56,0,0,1-1.63-.65c-1.62-1.91,2.37-6.3,2.37-6.3Z" fill="#3c44b1"/><rect x="204.95" y="130.53" width="53.67" height="60.46" opacity="0.12"/><rect x="214.37" y="197.59" width="34.14" height="14.61" fill="#ffd200"/><path d="M245.28,145.28l-7-2.17c-.59,5.59-6.33,5.53-6.33,5.53s-5.75.06-6.34-5.53l-7,2.17-8.5,9.08,6,7,5-3.87,1.3,17.55h19l1.3-17.55,5,3.87,6-7Z" fill="#fff"/><path d="M174.62,115.18v9.32s6.22,3,14.95-.72,13,4.16,23.94,0,14,4.93,26.05,1.67,15.87-4.45,22.41-.88,21,.61,26.53-3.66v-12l-16-11.51H188.26Z" fill="#2c2c3a" opacity="0.15"/><polygon points="183.88 78.15 166.32 104.34 297.24 104.34 278.5 78.15 183.88 78.15" fill="#24285b"/><path d="M175.67,114.75c5.17,0,9.35-4.66,9.35-10.41h-18.7C166.32,110.09,170.51,114.75,175.67,114.75Z" fill="#24285b"/><path d="M194.38,114.75c5.16,0,9.35-4.66,9.35-10.41H185C185,110.09,189.21,114.75,194.38,114.75Z" fill="#fafafa"/><path d="M213.08,114.75c5.16,0,9.35-4.66,9.35-10.41h-18.7C203.73,110.09,207.91,114.75,213.08,114.75Z" fill="#24285b"/><path d="M231.78,114.75c5.17,0,9.35-4.66,9.35-10.41h-18.7C222.43,110.09,226.62,114.75,231.78,114.75Z" fill="#fafafa"/><path d="M250.49,114.75c5.16,0,9.35-4.66,9.35-10.41H241.13C241.13,110.09,245.32,114.75,250.49,114.75Z" fill="#24285b"/><path d="M269.19,114.75c5.16,0,9.35-4.66,9.35-10.41h-18.7C259.84,110.09,264,114.75,269.19,114.75Z" fill="#fafafa"/><path d="M287.89,114.75c5.17,0,9.35-4.66,9.35-10.41h-18.7C278.54,110.09,282.73,114.75,287.89,114.75Z" fill="#24285b"/><polygon points="185.02 104.34 195.58 78.15 207.78 78.15 203.73 104.34 185.02 104.34" fill="#fafafa"/><polygon points="278.51 104.34 267.96 78.15 255.76 78.15 259.81 104.34 278.51 104.34" fill="#fafafa"/><polygon points="222.43 104.34 223.35 78.15 240.01 78.15 241.13 104.34 222.43 104.34" fill="#fafafa"/><path d="M123.43,76.31a5.39,5.39,0,0,0-3.32,3.79c-.34,1.55-.06,3.43,2.44,4.7,5,2.54,7.17.86,6.75,4.1s-5.84,14.44,5.33,13.69,7.5-7.46,5.5-11.44-2.08-7.39-2.83-10C136.61,78.8,130.91,73.35,123.43,76.31Z" fill="#24285b"/><path d="M121.86,108.92H132s.7,0,1.9,0c22.2.71,35.1,25.37,23.31,44.2-6.56,10.47-14.39,24.58-14.91,33l-39.57-2s3-25.67-4.33-40.34C98.44,143.8,85,120.71,121.86,108.92Z" fill="#3c44b1"/><path d="M124.19,179c-.06-.45-1.35-11.25,6.26-15.89l.52.85c-7.06,4.31-5.8,14.81-5.79,14.92Z" fill="#fff"/><path d="M143.56,116.89s-16.61,6.33-8.9,33c4,13.89-31.7,12.38-31.7,12.38s.65,10.66.28,15.51l18.18,1,22.14,1.44,1.08-3.12,6.73-12.67.63-16.5-5.25-9.19Z" opacity="0.08"/><path d="M136.79,179c-.06-.45-1.48-11.59,6.31-15.8l.46.76c-7.05,4.31-5.8,14.81-5.78,14.92Z" fill="#fff"/><polygon points="103.24 177.74 143.65 179.87 154.44 220.8 96.03 218.72 103.24 177.74" fill="#24285b"/><path d="M139.87,124.32a8.61,8.61,0,0,1,15.26-5.81,37,37,0,0,1,8.53,24.58c-.33,24-3.56,49.88-55.22,21.55l2.78-7.59s22.93,11,32.51,7.44C150.77,161.86,140.6,140.77,139.87,124.32Z" fill="#f4a28c"/><path d="M111.22,157.05s-8.62-4.1-12.28,0,2.16,7.75,9.5,7.59Z" fill="#f4a28c"/><polygon points="120.36 177.02 149.77 179.85 150.94 215.72 112.23 213.48 120.36 177.02" fill="#ffd200"/><polygon points="120.36 177.02 149.77 179.85 150.94 215.72 112.23 213.48 120.36 177.02" opacity="0.08"/><polygon points="126.83 177.64 153.74 180.29 158.31 216.09 119.61 213.86 126.83 177.64" fill="#ffd200"/><rect x="52.97" y="113.42" width="12.46" height="22" transform="translate(-35.54 24.37) rotate(-17.99)" fill="#ffd200"/><path d="M134.11,181.32l-.84-.54c0-.09,5.7-9,2.33-15.92h0a3.8,3.8,0,0,0-2.29-1.6,3.17,3.17,0,0,0-2.5.83l-.93-.51a4.39,4.39,0,0,1,3.59-1.31,4.81,4.81,0,0,1,3,2.11C140.11,171.85,134.35,180.94,134.11,181.32Z" fill="#fff"/><path d="M145.79,182l-.84-.54c.06-.09,5.7-9,2.34-15.92h0a3.84,3.84,0,0,0-2.3-1.6,3.5,3.5,0,0,0-2.82,1l-.6-.69a4.37,4.37,0,0,1,3.58-1.3,4.74,4.74,0,0,1,3,2.11C151.8,172.51,146,181.61,145.79,182Z" fill="#fff"/><polygon points="41.92 74.67 41.92 94.67 54.85 94.67 57.67 102.63 61.01 94.67 73.94 94.67 73.94 74.67 41.92 74.67" fill="#e6e6e6"/><path d="M56.31,89.14h0a1,1,0,0,1-.75-.38L52.14,84.4a1,1,0,0,1,1.58-1.23l2.66,3.42,6.55-7.08a1,1,0,0,1,1.42-.05,1,1,0,0,1,.05,1.41l-7.35,7.94A1,1,0,0,1,56.31,89.14Z" opacity="0.12"/><rect x="229.84" y="199.95" width="14.67" height="4.94" fill="#fff" opacity="0.52"/><rect x="288.5" y="222.21" width="31.25" height="16.17" fill="#e6e6e6" opacity="0.55"/><rect x="288.5" y="238.38" width="46.5" height="21.13" fill="#e6e6e6"/></svg>