<?xml version="1.0" encoding="utf-8"?>
<!-- Generator: Adobe Illustrator 25.3.1, SVG Export Plug-In . SVG Version: 6.00 Build 0)  -->
<svg version="1.1" id="fab53ecb-c04a-44eb-8d92-23f87bdb6c81"
	 xmlns="http://www.w3.org/2000/svg" xmlns:xlink="http://www.w3.org/1999/xlink" x="0px" y="0px" viewBox="0 0 780.6 626.1"
	 style="enable-background:new 0 0 780.6 626.1;" xml:space="preserve">
<style type="text/css">
	.st0{fill:#D39972;}
	.st1{fill:#2EBC7F;}
	.st2{fill:#03082D;}
	.st3{fill:#1D2B72;}
	.st4{fill:#E6E6E6;}
	.st5{fill:#F2F2F2;}
	.st6{fill:#FFFFFF;}
	.st7{fill:#FFD039;}
	.st8{fill:#49E287;}
	.st9{opacity:0.34;fill:#A5A5A5;enable-background:new    ;}
	.st10{opacity:8.000000e-02;enable-background:new    ;}
	.st11{opacity:0.79;fill:#A5A5A5;enable-background:new    ;}
	.st12{opacity:0.31;fill:#A5A5A5;enable-background:new    ;}
	.st13{opacity:0.19;fill:#A5A5A5;enable-background:new    ;}
</style>
<path class="st0" d="M541.1,326.7c2.3,4.4,7.7,6.2,12.1,3.9c0.5-0.2,0.9-0.5,1.3-0.8l17.8,10.4l9-9.3L556,316.6
	c-3.3-3.8-9-4.2-12.8-0.9C540,318.4,539.1,323,541.1,326.7L541.1,326.7z"/>
<path class="st1" d="M599.3,345.4c-13.1,0-36.2-5.9-37.5-6.2l-0.4-0.1l3.6-18.4l35.3,7l19.2-27l22-2.2l-0.6,0.8
	c-0.3,0.4-28.6,37.7-33,43.9C606.7,344.8,603.5,345.4,599.3,345.4z"/>
<path class="st1" d="M602.8,414.4l-0.5-0.3c-0.1-0.1-11.3-5.5-17-16.1c-5.7-10.5,21.1-55.2,23-58.3l0-14.2l9.7-26.1l12.3-7
	l-10.6,24.7L602.8,414.4z"/>
<polygon class="st0" points="590.5,566.9 578.7,566.9 573.1,521.4 590.5,521.4 "/>
<path class="st2" d="M593.5,578.3l-38,0v-0.5c0-8.2,6.6-14.8,14.8-14.8h0l23.2,0L593.5,578.3z"/>
<polygon class="st0" points="717.1,556.6 705.9,560.3 686.4,518.8 703,513.4 "/>
<path class="st2" d="M723.5,566.5l-36.1,11.8l-0.1-0.5c-2.5-7.8,1.7-16.1,9.5-18.7l0,0l22.1-7.2L723.5,566.5z"/>
<path class="st3" d="M694.3,549.2L660.7,493l-28.4-59.9l-25.5,53l-10.1,68.6l-35.6,0.5l0.1-0.6l54.4-216.3l42.6,6.4l-1.9,28.1
	l1.2,1.6c9.6,13.7,19.6,27.8,13.9,43.1l16.2,48.1l35.8,80L694.3,549.2z"/>
<path class="st4" d="M519.5,361.1H60.2c-5.1,0-9.2-4.8-9.2-10.6V60.2c0-5.9,4.1-10.6,9.2-10.6h459.3c5.1,0,9.2,4.8,9.2,10.6v290.3
	C528.7,356.4,524.6,361.1,519.5,361.1z"/>
<rect x="384.7" y="96.4" class="st5" width="127.8" height="97.7"/>
<rect x="391.1" y="101.2" class="st6" width="115.1" height="88"/>
<path class="st7" d="M450.7,166.5C450.7,166.5,450.7,166.5,450.7,166.5c17-0.9,30-15.3,29.1-32.3c-0.8-15.4-13-27.9-28.4-29
	c-0.2,0-0.4,0.1-0.5,0.2c-0.1,0.1-0.2,0.3-0.2,0.5l-0.7,59.9C450,166.2,450.3,166.5,450.7,166.5L450.7,166.5z"/>
<path class="st4" d="M426.6,115.1c0.2,0,0.5,0.1,0.6,0.3l20.6,21.1c0.2,0.2,0.3,0.4,0.3,0.6l-0.3,28.6c0,0.2-0.1,0.5-0.3,0.7
	c-0.2,0.2-0.4,0.3-0.7,0.2c-17-1.3-29.8-16.1-28.5-33.1c0.5-6.7,3.2-13.1,7.6-18.1C426.1,115.2,426.3,115.1,426.6,115.1
	C426.6,115.1,426.6,115.1,426.6,115.1z"/>
<path class="st8" d="M447.5,105c0.2,0,0.5,0.1,0.6,0.3c0.2,0.2,0.3,0.4,0.3,0.7l-0.3,25.8c0,0.5-0.4,0.9-0.9,0.9
	c-0.2,0-0.5-0.1-0.6-0.3l-18-18.4c-0.3-0.4-0.3-0.9,0-1.3c0,0,0,0,0,0C433.9,108,440.5,105.3,447.5,105
	C447.5,105,447.5,105,447.5,105z"/>
<path class="st8" d="M438.3,178.9c0,3-2.5,5.5-5.6,5.5s-5.5-2.5-5.5-5.6c0-3,2.5-5.5,5.6-5.5c0,0,0,0,0,0
	C435.9,173.4,438.3,175.9,438.3,178.9z"/>
<path class="st7" d="M454,179.1c0,3-2.5,5.5-5.6,5.5S443,182,443,179c0-3,2.5-5.5,5.6-5.5c0,0,0,0,0,0
	C451.6,173.5,454.1,176,454,179.1z"/>
<path class="st4" d="M469.8,179.3c0,3-2.5,5.5-5.6,5.5c-3,0-5.5-2.5-5.5-5.6c0-3,2.5-5.5,5.6-5.5l0,0
	C467.4,173.7,469.8,176.2,469.8,179.3z"/>
<rect x="383.4" y="209.4" class="st5" width="127.8" height="97.7"/>
<rect x="389.7" y="214.3" class="st6" width="115.1" height="88"/>
<circle class="st7" cx="409.3" cy="238.4" r="4.8"/>
<path class="st7" d="M466.2,242h-37.8c-2.2,0-4-1.8-4-4c0-2.2,1.8-4,4-4c0,0,0,0,0,0h37.8c2.2,0,4,1.8,4,4
	C470.2,240.2,468.4,242,466.2,242z"/>
<circle class="st8" cx="409.3" cy="258.3" r="4.8"/>
<path class="st8" d="M480.5,261.8h-52.1c-2.2,0-4-1.8-4-4c0-2.2,1.8-4,4-4c0,0,0,0,0,0h52.1c2.2,0,4,1.8,4,4
	C484.5,260,482.7,261.8,480.5,261.8z"/>
<circle class="st1" cx="409.3" cy="278.1" r="4.8"/>
<path class="st1" d="M449.5,281.7h-21.2c-2.2,0-4-1.8-4-4c0-2.2,1.8-4,4-4c0,0,0,0,0,0h21.2c2.2,0,4,1.8,4,4
	C453.6,279.9,451.8,281.7,449.5,281.7z"/>
<rect x="67.9" y="113.7" class="st5" width="287.2" height="183"/>
<rect x="79.2" y="122.8" class="st6" width="264" height="164.9"/>
<path class="st8" d="M123.5,274.2H96.8c-1.5,0-2.7-1.2-2.7-2.7v-36.9c0-1.5,1.2-2.7,2.7-2.7h26.7c1.5,0,2.7,1.2,2.7,2.7v36.9
	C126.3,273,125.1,274.2,123.5,274.2z"/>
<path class="st8" d="M172.3,274.2h-26.7c-1.5,0-2.7-1.2-2.7-2.7v-71.8c0-1.5,1.2-2.7,2.7-2.7h26.7c1.5,0,2.7,1.2,2.7,2.7v71.8
	C175.1,273,173.8,274.2,172.3,274.2z"/>
<path class="st8" d="M221.1,274.2h-26.7c-1.5,0-2.7-1.2-2.7-2.7v-36.9c0-1.5,1.2-2.7,2.7-2.7h26.7c1.5,0,2.7,1.2,2.7,2.7v36.9
	C223.8,273,222.6,274.2,221.1,274.2z"/>
<path class="st8" d="M269.9,274.2h-26.7c-1.5,0-2.7-1.1-2.7-2.6v-85.9c0-1.5,1.3-2.6,2.7-2.6h26.7c1.5,0,2.7,1.1,2.7,2.6v85.9
	C272.6,273.1,271.4,274.2,269.9,274.2z"/>
<path class="st8" d="M318.7,274.2h-26.7c-1.5,0-2.7-1.2-2.7-2.7V161c0-1.5,1.2-2.7,2.7-2.7h26.7c1.5,0,2.7,1.2,2.7,2.7v110.5
	C321.4,273,320.2,274.2,318.7,274.2z"/>
<circle class="st7" cx="110.2" cy="215.3" r="5.5"/>
<circle class="st7" cx="159" cy="179.4" r="5.5"/>
<circle class="st7" cx="207.7" cy="215.3" r="5.5"/>
<circle class="st7" cx="256.5" cy="161.9" r="5.5"/>
<circle class="st7" cx="305.3" cy="141.7" r="5.5"/>
<polygon class="st7" points="207.8,216.6 159,179.9 110.7,216.1 109.6,214.6 159,177.6 207.6,214.1 256,161.2 256.2,161.1 
	304.9,141.4 305.6,143.1 257,162.7 "/>
<path class="st2" d="M614.8,270.5l2.5-19.8c1.8-14.6,15.2-25,29.8-23.2c14.6,1.8,25,15.2,23.2,29.8l-2.5,19.8c-0.2,2-2,3.4-4,3.1
	l-45.9-5.7C616,274.3,614.6,272.5,614.8,270.5z"/>
<path class="st0" d="M631.7,256.7c-4,4.3-3.9,11,0.4,15c0.5,0.4,0.9,0.8,1.5,0.2l-4.6,23.8l15.9-8.2l3.8-18.3
	c2.9-5.1,1.1-11.6-4-14.5C640.5,252.2,635,253.1,631.7,256.7L631.7,256.7z"/>
<circle class="st0" cx="636.8" cy="256.9" r="19.6"/>
<path class="st2" d="M610.8,251.6c1.5-11.6,12-19.8,23.6-18.3l4,0.5c11.6,1.5,19.8,12,18.3,23.6l0,0.4l-8.4-1l-1.9-8.3l-1.6,7.9
	l-4.3-0.5l-0.9-4.2l-0.8,4l-28.1-3.5L610.8,251.6z"/>
<path class="st8" d="M617.6,385.2c-6.2,0-13.2-7.1-9.6-19.1l-0.2-0.2l8.8-38.8c-7.7-11,2.4-20,3.4-20.8l4.8-8.7l21.3-13.5l10.8,89.5
	l-0.2,0.2C648.9,381.2,622.8,385.2,617.6,385.2z"/>
<path class="st1" d="M661.2,405.3c-0.8,0-1.7-0.1-2.5-0.3c-0.8-0.2-2.2-1.3-4.2-8c-8.2-26.8-17.9-107.4-10.9-115.3l0.2-0.2l11.6,1.9
	c1-0.7,6-4.2,10.7-3.6c1.9,0.2,3.7,1.3,4.8,2.9l0.1,0.1l3.7,52.5l13.5,61.8l-0.3,0.1C687,397.7,670.1,405.3,661.2,405.3z"/>
<path class="st0" d="M653.4,384.8c5-0.2,8.9-4.3,8.7-9.3c0-0.5-0.1-1.1-0.2-1.6l17-11.7l-4.6-12L650.5,367
	c-4.8,1.4-7.6,6.4-6.3,11.2C645.4,382.3,649.2,385,653.4,384.8L653.4,384.8z"/>
<path class="st1" d="M673.3,371.6l-15.1-11.1l21.2-29l-16.3-28.8l7.3-20.9l0.5,0.9c0.2,0.4,22,41.9,25.8,48.6
	c4,6.9-22,38.6-23.1,39.9L673.3,371.6z"/>
<rect x="180.8" y="309" class="st9" width="61.5" height="14.1"/>
<rect x="515.3" y="52.3" class="st10" width="29.5" height="23.3"/>
<rect x="515.3" y="39" class="st5" width="49.5" height="30.2"/>
<rect x="527.1" y="53.3" class="st11" width="5.8" height="8.6"/>
<rect x="538.2" y="48.1" class="st12" width="5.8" height="13.7"/>
<rect x="548.3" y="56.8" class="st13" width="5.8" height="5"/>
</svg>
