<?xml version="1.0" encoding="utf-8"?>
<!-- Generator: Adobe Illustrator 25.3.1, SVG Export Plug-In . SVG Version: 6.00 Build 0)  -->
<svg version="1.1" id="bdfa5e51-8543-4635-b366-be55a5c0ef94"
	 xmlns="http://www.w3.org/2000/svg" xmlns:xlink="http://www.w3.org/1999/xlink" x="0px" y="0px" viewBox="0 0 838 494.2"
	 style="enable-background:new 0 0 838 494.2;" xml:space="preserve">
<style type="text/css">
	.st0{fill:#D39972;}
	.st1{fill:#AA7F63;}
	.st2{fill:#E6E6E6;}
	.st3{fill:#2EBC7F;}
	.st4{fill:#49E287;}
	.st5{fill:#2F2E41;}
	.st6{fill:#FFD039;}
	.st7{fill:#1D2B72;}
	.st8{fill:#49E287;stroke:#49E287;stroke-width:8;stroke-miterlimit:10;}
	.st9{fill:#03082D;}
	.st10{opacity:0.25;fill:#2EBC7F;enable-background:new    ;}
	.st11{fill:#6B452F;}
	.st12{fill:#FFFFFF;}
</style>
<path class="st0" d="M700,127.8c-1.4-4.9,1.5-10.1,6.4-11.5c0.5-0.1,1.1-0.3,1.6-0.3l6.1-20.4l13.3,0.7l-9.1,28.6
	c0.2,5.2-3.9,9.5-9,9.7C705,134.8,701.2,131.9,700,127.8L700,127.8z"/>
<path class="st1" d="M105.3,112.8c-2.4-4.6-0.6-10.2,3.9-12.6c0.5-0.3,1-0.5,1.5-0.6l1.9-21.2l13.2-2l-3,29.9
	c1.2,5-1.8,10.1-6.9,11.3C111.6,118.6,107.3,116.6,105.3,112.8L105.3,112.8z"/>
<path class="st2" d="M614.7,292.1h-393v-84h393V292.1z"/>
<circle class="st3" cx="272.7" cy="250.1" r="21.3"/>
<path class="st4" d="M321.9,235.8c-2,0-3.6,1.6-3.6,3.6c0,2,1.6,3.6,3.6,3.6h259.7c2,0,3.6-1.6,3.5-3.6c0-2-1.6-3.5-3.5-3.5H321.9z"
	/>
<path class="st4" d="M321.9,257.2c-2,0-3.6,1.6-3.6,3.5c0,2,1.6,3.6,3.5,3.6l0,0h164.2c2,0,3.6-1.6,3.6-3.6c0-2-1.6-3.6-3.6-3.6l0,0
	H321.9z"/>
<path class="st0" d="M725.9,269.3c-1.4-4.2,0.8-8.9,5.1-10.3c0.5-0.2,0.9-0.3,1.4-0.3l9-42.3l12.3,2.8L741.8,266
	c0.4,4.5-2.9,8.4-7.4,8.8C730.6,275.1,727.1,272.8,725.9,269.3L725.9,269.3z"/>
<path class="st4" d="M752.2,229.6h-15.7l-0.6-22.6l-5.5-56.5l18-7.4l12,62.7l0,0.1L752.2,229.6z"/>
<path class="st0" d="M607.6,253.5c-0.1-4.5,3.5-8.2,8-8.3c0.5,0,1,0,1.4,0.1l24.1-41.6l14.6-2l-31.9,53.6c-1,4.4-5.4,7.1-9.8,6.1
	C610.3,260.6,607.7,257.3,607.6,253.5L607.6,253.5z"/>
<polygon class="st0" points="662.4,450.9 653,450.9 648.5,414.4 662.4,414.4 "/>
<path class="st5" d="M664.8,460.1l-30.5,0v-0.4c0-6.5,5.3-11.9,11.9-11.9h0l18.6,0L664.8,460.1z"/>
<polygon class="st0" points="728.3,450.9 718.9,450.9 714.4,414.4 728.3,414.4 "/>
<path class="st5" d="M730.8,460.1l-30.5,0v-0.4c0-6.5,5.3-11.9,11.9-11.9h0l18.6,0L730.8,460.1z"/>
<circle class="st0" cx="719.4" cy="86.2" r="22.4"/>
<path class="st6" d="M711.8,85c-7.5,3.1-16-0.4-19.1-7.9c-2.7-6.5-0.5-13.9,5.4-17.8c6-4,14.9-2.7,20.7,2c8-3.6,17.5-1.7,23.4,4.8
	c5.6,6.5,6.2,16.7,2.1,24.3c-3.6,8-3,17.2,1.5,24.7c-1.8-0.1-5.6-0.4-10.4-0.8c-1.4-0.1-2-4.2-3.5-4.4c-1.4-0.1-3.6,3.7-5,3.6
	c-10.5-0.9-22.2-1.8-27.5-1.6C703.2,102.6,707.2,93.2,711.8,85z"/>
<path class="st7" d="M736.6,244.3c0,0,7.3,7.5,2.8,46.4l-3.1,82.5l-5.4,73l-17.5-1.2L698,277l-21.5,61.5l-11.6,101.7L648,439
	l-2.9-101.1l7.4-78.1L736.6,244.3z"/>
<path class="st4" d="M649,216.8l-16.2-5.3l12.6-25.1l26.5-55.9c1-2.1,3.5-3,5.6-2c1.1,0.5,1.9,1.5,2.3,2.7l6.6,23.8L674,172.4
	L649,216.8z"/>
<polygon class="st2" points="466.5,178.7 363.6,178.7 363.6,75.8 415.1,75.8 415.1,79.6 367.4,79.6 367.4,174.9 462.7,174.9 
	462.7,127.2 466.5,127.2 "/>
<polygon class="st8" points="413.1,148.3 388.1,119.6 392.4,115.8 413.2,139.6 470.1,75.8 474.3,79.6 "/>
<path class="st2" d="M108,101l1.3-6.3c0,0,18.6-6.3,20.6,6.3H108z"/>
<polygon class="st1" points="143.7,448.6 155.9,448.6 161.6,401.7 143.7,401.7 "/>
<path class="st9" d="M140.6,444.6l24,0h0c8.4,0,15.3,6.8,15.3,15.3v0.5l-39.3,0L140.6,444.6z"/>
<polygon class="st1" points="85,448.6 97.2,448.6 103,401.7 85,401.7 "/>
<path class="st9" d="M81.9,444.6l24,0h0c8.4,0,15.3,6.8,15.3,15.3v0.5l-39.3,0L81.9,444.6z"/>
<polygon class="st4" points="90.4,127.5 76.5,126.3 67.6,167.9 68.9,205.8 82.8,256.3 101.7,245 91.6,193.2 "/>
<polygon class="st7" points="81.6,251.9 84.7,278.4 87.6,340.3 80.9,432.5 104.9,431.2 116.6,335.2 123.8,291 133.9,341.5 
	140.2,436.2 164.9,434.3 164.9,341.2 165.5,273.4 156.6,246.9 "/>
<path class="st4" d="M133.3,102.3c0,0-8.8-12.6-25.3-3.8l-7.6,10.1l-24,17.7l5.1,59.3l-6.3,74.5l89.6-1.3l-15.2-74.5v-79.5
	L133.3,102.3z"/>
<polygon class="st10" points="84.7,147.2 77.4,233.8 86.6,186.9 "/>
<path class="st1" d="M235.4,219.8c-4.9,1.7-10.2-1-11.8-5.8c-0.2-0.5-0.3-1.1-0.4-1.6l-20.7-5.1l0-13.3l29.1,7.6
	c5.2-0.4,9.7,3.4,10.1,8.5C242.1,214.4,239.5,218.4,235.4,219.8L235.4,219.8z"/>
<rect x="206.3" y="200.1" transform="matrix(0.172 -0.9851 0.9851 0.172 -22.31 382.5147)" class="st2" width="20.2" height="8.8"/>
<circle class="st1" cx="119.2" cy="62.4" r="25.4"/>
<path class="st11" d="M121.1,84.7c-13.8,3.3-27.7-5.2-31-19c-2.9-11.9,3.1-24.2,14.2-29.3c4.5-2,9.3-2.9,14.2-2.5
	c7.6,0.4,15,3.2,22.5,3l1.1,1.8l4.1-1l0.9,3.3l1.1,0c2,3.6-1.2,8.8-5.3,8.8c-1.6-0.2-3.2-0.5-4.8-1c-1.6-0.3-3.5-0.3-4.6,0.9
	c-1.4,1.6-0.8,4-0.5,6.1s-0.4,4.9-2.6,5c-1.1,0-2.1-0.7-3.2-0.5c-1.2,0.2-1.9,1.7-1.7,3c0.3,1.2,0.8,2.4,1.5,3.5
	c3,6.5,0.6,14.2-5.5,17.8"/>
<path class="st4" d="M143.7,109.7l6-4.9c0,0,12.2-0.8,11.9,12l19.5,60.9l37.3,13.2l-5,26l-52.8-20.1l-26.8-44.5L143.7,109.7z"/>
<path class="st3" d="M664.4,264.4c-9,0-12.6-1.1-12.8-1.2l-0.4-0.1l0.1-0.4c0.1-0.4,6.1-35.5,14.3-53.9l5.8-74.8
	c0.3-4.6,3.8-8.3,8.3-9l0.1,0.5l-0.1-0.5l14.8-2.3l9-8l21.7,1.2l1.9,9.2c2.6,0.7,19.7,6,21.4,18.5l0,0.2l-0.1,0.1l-31.3,60.2
	c2.6,2.6,23.6,24.1,25,51.6l0,0.7l-0.6-0.1c-0.1,0-6.8-1.3-41.9,4.7C683.2,263.7,671.9,264.4,664.4,264.4z"/>
<path class="st12" d="M279.3,246.5V242c0-3.7-3-6.6-6.6-6.6s-6.6,3-6.6,6.6v4.6c-1.8,0.1-3.3,1.6-3.3,3.4v10.8h19.8V250
	C282.6,248.1,281.1,246.6,279.3,246.5z M272.7,237.7c2.4,0,4.3,1.9,4.3,4.3v4.6h-8.6V242C268.4,239.6,270.3,237.7,272.7,237.7z"/>
<path class="st4" d="M274.4,251.9c0-1-0.8-1.8-1.8-1.8c-1,0-1.8,0.8-1.8,1.8c0,0.6,0.3,1.1,0.8,1.5v3.9h2v-3.9
	C274.2,253,274.4,252.5,274.4,251.9z"/>
</svg>
