<?xml version="1.0" encoding="utf-8"?>
<!-- Generator: Adobe Illustrator 25.3.1, SVG Export Plug-In . SVG Version: 6.00 Build 0)  -->
<svg version="1.1" id="Layer_1" xmlns="http://www.w3.org/2000/svg" xmlns:xlink="http://www.w3.org/1999/xlink" x="0px" y="0px"
	 viewBox="0 0 925 825" style="enable-background:new 0 0 925 825;" xml:space="preserve">
<style type="text/css">
	.st0{fill:#D2F9E2;enable-background:new    ;}
	.st1{fill:url(#SVGID_1_);}
	.st2{fill:#444176;}
	.st3{fill:#1D2B72;}
	.st4{opacity:0.1;}
	.st5{fill:#AA7F63;}
	.st6{fill:#DFE5EE;}
	.st7{opacity:5.000000e-02;fill:#49E287;enable-background:new    ;}
	.st8{opacity:0.1;enable-background:new    ;}
	.st9{fill:#49E287;}
	.st10{fill:#03082D;}
	.st11{opacity:5.000000e-02;}
	.st12{opacity:5.000000e-02;enable-background:new    ;}
	.st13{fill:url(#SVGID_2_);}
	.st14{fill:#A5A5A5;}
	.st15{fill:#FFD039;}
	.st16{fill:#A8A8A8;}
	.st17{opacity:0.1;fill:none;stroke:#000000;stroke-miterlimit:10;enable-background:new    ;}
</style>
<path class="st0" d="M26.3,422.5c2.6,29.1,19.1,55.5,29.2,83.2c14.3,39.4,15.6,82.3,3.8,122.5c-2.4,8.3-5.4,16.6-5.4,25
	c0,29.2,33.2,48.6,63.5,61.4c76.8,32.6,156.9,56.8,238.9,72.2c26.8,5.1,60.3,7.2,77.3-11.8c8.1-9.1,10.1-21.1,16.1-31.3
	c15.2-26.2,52.4-36.3,85.7-42.2c40.2-7,80.7-11.7,121.4-14c41-2.3,87.5-4.3,114.6-31.2c17.3-17.1,22.3-40.7,23-63
	c2.3-73.1-32.7-152.2,12.2-215.6c18.8-26.6,49.5-46,68.2-72.6c27-38.6,24.7-87.6,6.4-128.7c-18.3-41.1-50.7-76.1-82.6-110.4
	c-10.6-11.3-21.8-23.1-37.7-28.4c-16.5-5.5-35.2-3-52.9-0.4C627.3,49.2,543.7,62,476.2,102.4c-33.5,20-61.5,46-91.5,70
	c-64.6,51.7-139.5,99.4-224.8,119.8C90.6,308.7,20.1,353.4,26.3,422.5z"/>
<linearGradient id="SVGID_1_" gradientUnits="userSpaceOnUse" x1="551.4077" y1="99.9452" x2="551.4077" y2="684.0856" gradientTransform="matrix(0.9943 0.1063 0.1063 -0.9943 -102.6179 742.4688)">
	<stop  offset="0" style="stop-color:#808080;stop-opacity:0.25"/>
	<stop  offset="0.54" style="stop-color:#808080;stop-opacity:0.12"/>
	<stop  offset="1" style="stop-color:#808080;stop-opacity:0.1"/>
</linearGradient>
<path class="st1" d="M610.8,702c1.4-19.2,1-33.9-0.9-35.4c-0.8-0.6-1.5-3-2.1-5.4c2-1.5,3-3.2,2.5-5.2c-2.3-9.6-38.6-80.1-44.4-81.4
	c-5.8-1.3-4.6-105.8-4.6-105.8l8.5-79.7h-0.1c0.7-4.3,1.9-8.5,3.5-12.6c0.3-0.8,0.7-1.6,1-2.3c7.1,0.3,13.8-2.9,19.6-11.1
	c6.4-9,12.3-17,17.6-24c12.6-9.8,28.2-25,32.7-42.6c8-31.1-28.5-63-28.5-63l-11.3-7.6c-0.1-0.4-0.3-0.9-0.4-1.3
	c-0.1-0.4-0.2-0.9-0.3-1.3c2.6-0.3,5.2-0.9,7.7-1.8l0,0c2.3,1.6,5.2,1.8,7.8,0.7l0.2-0.1c0.4-0.1,0.8-0.3,1.2-0.4
	c1.2-0.7,2.4-1.5,3.5-2.4c4.4-3.3,9.7-5.1,14.6-7.7c8.2-4.4,15.4-11.7,17.5-20.9c0.6-3,0.9-6,0.9-9c0.2-2.2,0-4.4-0.5-6.5
	c-0.6-1.7-1.6-3.1-2.3-4.7c-1.4-3.5-0.9-7.5-0.9-11.3c-0.1-7.2-2.6-14.4-7.6-19.6s-12.5-7.9-19.5-6.4c-1.9,0.4-3.7,1-5.5,1.7
	c-0.8,0.3-1.6,0.6-2.4,0.9c-3.1,1.1-6.3,2-9.5,1.3c-3.9-0.9-7.2-4.2-11.2-3.7c-0.8,0.1-1.6,0.4-2.4,0.7c-1.4,0.5-2.8,1.2-3.9,2.1
	c-1.8,1.3-3.5,2.7-5.1,4.2c-2,1.9-4,4.3-4.2,7.1c-0.1,2.3,0.7,4.6,2.2,6.4c-18.3,8.5-26.2,30.2-17.7,48.5c0.5,1,1,2.1,1.6,3.1
	c-0.1,0.4-0.1,0.8-0.2,1.2c-0.6,3-1.3,6.1-2.2,9c0-0.6,0.1-1.1,0.3-1.6c-0.6-0.1-1.2-0.2-1.8-0.3h-0.3c-0.5-0.1-1.1-0.2-1.6-0.2
	h-0.1c-8.3-1-18.4-0.1-24.2,3.2c-9.4,5.4-16.8,13.8-21,23.9c-6.1,6.1-10.7,13.5-13.6,21.6c-4.2-2-8.9-3-13.6-2.8
	c-7-13.8-20.2-31-37.5-12.6c-18.2,19.4,4.2,25,19.5,26.7c0.5,1.8,1.3,3.5,2.3,5c1.1,1.7,2.3,3.3,3.6,4.8c-0.5,0.2-1,0.2-1.5,0.1
	c-3.5-1-3.3,35.1,12.5,45.6c-2.6,6.6-6,12.8-10.1,18.6c-5.8,8.3-10.4,17.4-13.6,27c-1.6,5-2.8,9.8-2.5,12.5l0,0
	c0,0.3,0.1,0.6,0.2,0.9l0,0c0,0.1,0.1,0.3,0.1,0.4l0,0c0.1,0.1,0.1,0.2,0.2,0.3l0,0c0.1,0.1,0.1,0.2,0.2,0.3l0,0
	c0.1,0.1,0.2,0.1,0.3,0.2l0,0c0.1,0.1,0.2,0.1,0.3,0.1l0,0c0.1,0,0.2,0,0.3,0.1h0.1c0.1,0,0.2,0,0.3,0h0.1c0.1,0,0.3,0,0.4-0.1h0.1
	l0.4-0.1h0.1l0.4-0.2l0.2-0.1l0.4-0.2l0.2-0.1l0.5-0.3l0.2-0.1l0.6-0.4l0.1-0.1l0.8-0.6c-0.8,1.5-1.6,3.1-2.6,4.8
	c-5,8.1-13.2,17.6-25.3,20.2c-22.4,4.9-80.2,78.7-80.2,78.7s-17.8-1.2-10.6,55.5c7.2,56.7,8.6,87.5,8.6,87.5l0.3,0.2
	c-6.8,7.7-20.6,21.5-32.6,21.7c-16.6,0.2-26.4,11.2-18.5,18c7.9,6.8,94.1-3.9,94.1-3.9s0.6-22.5-3.5-32.9c0.7-0.6,1.3-1.3,1.9-2
	l-4.3-113.8c0,0,53.8-46.1,80-50.6c-0.2-0.1-0.3-0.2-0.5-0.3c1.7-0.3,3.3-0.3,5-0.1c22.9,3.1,40.3,107.6,40.3,107.6
	s4.2,16.4,16.8,29.1c12.6,12.7,40.6,61.6,40.6,61.6l1.2-0.1l0.2,0.3l0,0c0,7.4-1.1,18.6-6.9,27.2c-9.5,14.3,17.1,19.8,17.1,19.8
	S609.4,721.1,610.8,702z"/>
<path class="st2" d="M367.2,629.2c0,0-20,26.3-36.6,26.6s-26.4,11.1-18.5,17.9s93.8-3.9,93.8-3.9s0.8-32.4-6.6-37.1
	C391.9,628,367.2,629.2,367.2,629.2z"/>
<path class="st2" d="M582.5,660.9c0,0,3.1,20.9-6.4,35.1c-9.5,14.2,17.1,19.7,17.1,19.7s19.3,5.4,20.7-13.7s0.9-33.7-0.9-35.2
	s-3.3-12.3-3.3-12.3L582.5,660.9z"/>
<path class="st3" d="M581.6,668.8c0,0-27.9-48.7-40.5-61.3c-12.6-12.6-16.8-29-16.8-29s-17.4-103.9-40.2-107
	c-22.9-3.1-85.6,50.5-85.6,50.5l4.5,113.1c-13.6,15.8-40.3-1-40.3-1s-1.4-30.7-8.6-87.1c-7.2-56.4,10.5-55.2,10.5-55.2
	s57.5-73.3,79.9-78.2c12.1-2.6,20.2-12,25.2-20.1c2.5-4.1,4.6-8.4,6.2-12.9l95.6,10.2l-8.5,79.3c0,0-1.2,103.9,4.7,105.2
	c5.8,1.3,42.1,71.4,44.4,80.9C614.4,665.6,581.6,668.8,581.6,668.8z"/>
<g class="st4">
	<path d="M479.7,471.8c-1-0.6-2.2-1-3.4-1.2c-22.9-3.1-85.6,50.5-85.6,50.5l4.5,113.1c-4.1,4.7-9.3,6.5-14.7,6.7
		c8.1,1.9,17.4,1.7,23.9-5.8l-4.5-113.2C399.9,522.1,453.5,476.3,479.7,471.8z"/>
	<path d="M613.5,656.2c-2.3-9.5-38.5-79.6-44.4-80.9c-5.8-1.3-4.7-105.2-4.7-105.2l8.5-79.3l-9.2-1l-8.5,79.3
		c0,0-1.2,103.9,4.7,105.2c5.8,1.3,42.1,71.4,44.4,80.9c1.6,6.4-12.9,10-22.5,11.6l1.2,2.1C582.9,668.9,615.7,665.8,613.5,656.2z"/>
</g>
<path class="st5" d="M628.3,257c0,0-90.4-3-73.9-15.2c10.2-7.5,14.6-22.2,16.5-32.3c0.7-3.6,1.1-7.2,1.4-10.8
	c0,0,48.2-4.8,36.4,13.2c-3.1,4.7-3.2,10.1-1.7,15.4C611.1,242.2,628.3,257,628.3,257z"/>
<path class="st6" d="M529.9,235.2c0,0-21.9,12.2-26.2,40.3c-4.3,28-7.9-0.9-7.9-0.9s-12.5,11.9-16.4,10.8
	c-3.9-1.1-3.2,42.1,17.4,47.6c20.6,5.5,36.9-84.8,36.9-84.8L529.9,235.2z"/>
<path class="st7" d="M529.9,235.2c0,0-21.9,12.2-26.2,40.3c-4.3,28-7.9-0.9-7.9-0.9s-12.5,11.9-16.4,10.8
	c-3.9-1.1-3.2,42.1,17.4,47.6c20.6,5.5,36.9-84.8,36.9-84.8L529.9,235.2z"/>
<path class="st5" d="M498.6,274.9c0,0-16.8-53.5-43-25.8s31.5,27.2,31.5,27.2L498.6,274.9z"/>
<path class="st8" d="M608.6,211.8c-3.1,4.7-3.2,10.1-1.7,15.4c-14.5,1.9-28.7-5.1-36-17.7c0.7-3.6,1.1-7.2,1.4-10.8
	C572.3,198.7,620.5,193.9,608.6,211.8z"/>
<ellipse transform="matrix(0.143 -0.9897 0.9897 0.143 328.1979 758.9133)" class="st5" cx="602.3" cy="189.9" rx="36.2" ry="36.2"/>
<path class="st8" d="M571.6,390.7l-1.2,11.6c-10.6-2.8-82.9-21.6-98.3-10.3c-0.7,0.5-1.5,1-2.3,1.5c2.5-4.1,4.6-8.4,6.2-12.9
	L571.6,390.7z"/>
<path class="st9" d="M647,298.8c-4.8,18.8-22.3,34.7-35.3,44.4c-4.8,3.6-9.8,6.9-14.9,9.9c0,0-13.4,7.8-20.5,25.3
	c-2.7,6.7-4.2,13.8-4.3,21.1c0,0-83-22.8-99.6-10.6c-8.7,6.4-7.3-2.6-4.1-12.6c3.2-9.6,7.7-18.6,13.5-26.8
	c4.6-6.6,10.3-16.2,12-25.2c2.3-11.9,17.8-57.2,25-77.9c3.9-11.3,11.7-20.9,22.1-26.8c6.7-3.8,19.2-4.4,28-2.5c0,0-2.8,9.4,10.1,11
	c1.4,0.2,2.8,0.4,4.2,0.8c5.2,1.2,17.9,3.6,23.6-0.4l11.7,7.9C618.6,236.1,655,267.8,647,298.8z"/>
<path class="st8" d="M608.8,173.7c0.8-1.5,0.2-3.5-0.9-4.8c-1.3-1.2-2.8-2.2-4.4-2.8l-7.9-3.6c-2.7-1-5.1-2.5-7.3-4.3
	c-2.1-1.9-3.6-4.7-3.3-7.5c0.3-2.8,2.2-5.1,4.2-7c1.6-1.5,3.3-2.9,5.1-4.2c1.4-1.2,3.1-1.9,4.9-2.3c3.9-0.5,7.3,2.8,11.2,3.7
	c5.8,1.4,11.4-2.7,17.3-3.9c7-1.5,14.5,1.3,19.5,6.4c5,5.1,7.5,12.3,7.6,19.4c0.1,3.8-0.5,7.8,0.9,11.2c0.7,1.6,1.7,3,2.3,4.7
	c0.6,2.1,0.8,4.3,0.5,6.5c0,3-0.3,6-0.9,9c-2.1,9.1-9.3,16.3-17.5,20.7c-4.8,2.6-10.1,4.4-14.5,7.6c-1.1,0.9-2.2,1.7-3.5,2.4
	c-2.5,1.1-5.4,0.9-7.7-0.7c-1.6-1-2.6-2.8-2.6-4.7c0.1-1.8,1.3-3.4,2.3-5c2.5-4.1,3.1-9.9-0.2-13.4c-1.5-1.5-3.5-2.4-4.9-4
	c-2.3-2.6-2.6-6.3-2.7-9.8c-0.2-6.4-0.4-13.2,2.3-19"/>
<path class="st10" d="M609.3,168.4c-1.3-1.2-2.8-2.2-4.4-2.8L597,162c-2.7-1-5.1-2.5-7.3-4.3c-2.1-1.9-3.6-4.7-3.3-7.5
	c0.3-2.8,2.2-5.1,4.2-7c1.6-1.5,3.3-2.9,5.1-4.2c1.4-1.2,3.1-1.9,4.9-2.3c3.9-0.5,7.3,2.8,11.2,3.7c5.8,1.4,11.4-2.7,17.3-3.9
	c7-1.5,14.5,1.3,19.5,6.4c5,5.1,7.5,12.3,7.6,19.4c0.1,3.8-0.5,7.8,0.9,11.2c0.7,1.6,1.7,3,2.3,4.7c0.6,2.1,0.8,4.3,0.5,6.5
	c0,3-0.3,6-0.9,8.9c-2.1,9.1-9.3,16.3-17.5,20.7c-4.8,2.6-10.1,4.4-14.5,7.6c-1.1,0.9-2.2,1.7-3.5,2.4c-2.5,1.1-5.4,0.9-7.7-0.7
	c-1.6-1-2.6-2.8-2.6-4.7c0.1-1.8,1.3-3.4,2.3-5c2.5-4.1,3.1-9.9-0.2-13.4c-1.5-1.5-3.5-2.4-4.9-4c-2.3-2.6-2.6-6.3-2.7-9.8
	c-0.2-6.4-1.3-12.5,1.4-18.4"/>
<path class="st8" d="M634,315.7c-5.3,6.1-12.9,15.3-22.2,27.4c-4.8,3.6-9.8,6.9-14.9,9.9c0,0-13.4,7.8-20.5,25.3
	c-28.3,1.5-62.5-54.7-62.5-54.7l22.4-23.4l38.2,27.3l12.4-26.6c6.7-14.4,20.5-24.2,36.3-25.7l0.6-0.1c7.9-0.7,12.5,4,15.2,10
	C643.3,295.4,641.4,307.3,634,315.7z"/>
<g class="st11">
	<path d="M563.1,216.3c0,0-2.8,9.4,10.1,11c1.4,0.2,2.8,0.4,4.2,0.8c3.8,0.9,7.8,1.5,11.7,1.8c-2.3-0.4-4.4-0.8-5.8-1.1
		c-1.4-0.3-2.8-0.6-4.2-0.8c-12.9-1.7-10.1-11-10.1-11c-2.5-0.5-5.1-0.9-7.7-1C561.9,216,562.5,216.1,563.1,216.3z"/>
	<path d="M618.6,236.1l-11.7-7.9c-0.9,0.6-1.9,1.1-2.9,1.4l8.7,5.9c0,0,36.4,31.7,28.4,62.7c-4.8,18.8-22.3,34.7-35.3,44.4
		c-4.8,3.6-9.8,6.9-14.9,9.9c0,0-13.4,7.8-20.5,25.3c-2.6,6.4-4,13.2-4.2,20.1c3.7,0.9,5.9,1.5,5.9,1.5c0.1-7.2,1.6-14.4,4.3-21.1
		c7.1-17.5,20.5-25.3,20.5-25.3c5.2-3,10.2-6.3,14.9-9.9c12.9-9.6,30.4-25.6,35.3-44.4C655,267.8,618.6,236.1,618.6,236.1z"/>
	<path d="M466.6,388.1l-0.6,0.4c0.3,2.7,2.2,3.4,6.5,0.2c5.2-3.8,16.7-4.2,30.2-2.9C486.7,383.9,472.4,383.8,466.6,388.1z"/>
</g>
<path class="st12" d="M489.8,336c0,0,6.7,17.3,15.9,23.5c9.3,6.3,21.4,16.9,21.4,16.9"/>
<linearGradient id="SVGID_2_" gradientUnits="userSpaceOnUse" x1="526.1602" y1="67.9561" x2="526.1602" y2="588.1981" gradientTransform="matrix(0.97 5.000000e-02 5.000000e-02 -1 -54.96 784.8)">
	<stop  offset="0" style="stop-color:#808080;stop-opacity:0.25"/>
	<stop  offset="0.54" style="stop-color:#808080;stop-opacity:0.12"/>
	<stop  offset="1" style="stop-color:#808080;stop-opacity:0.1"/>
</linearGradient>
<path class="st13" d="M615.9,646.9L602,586.9c-5.9-9.9-12-15.2-17.2-18c-6.6-4.1-11.8-4-13.5-3.9l-1.9-2
	c-7.1-10-10.9-36.2-10.9-36.2c-0.4-12.3-8.2-20.6-18.2-26.2c-16.9-10.1-41.1-12.1-46.3-12.4l-4.1-8.2l-1.1-0.3l-0.3-0.5
	c-0.9-0.2-1.8-0.4-2.8-0.6l7.3-149.1l0.1-1.4l28.7,1.4c4.8,0.1,8.7-3.8,8.8-8.6c0-4.5-3.4-8.3-7.9-8.8l-33.6-1.6v-0.7l3.1-64.4v-0.7
	c3-2.4,4.9-5.9,5-9.8c0.5-7-4.8-13-11.7-13.4c-7-0.5-13,4.8-13.4,11.7c0,0.2,0,0.3,0,0.5c-0.2,3.8,1.3,7.6,4.1,10.2v0.7l-3.2,64.4
	v0.7l-33.6-1.6c-4.8-0.1-8.7,3.8-8.8,8.6c0,4.5,3.4,8.3,7.9,8.8l27.3,1.3l-0.1,1.4l-7.4,151c-10.6,1.3-21,3.5-31.2,6.5l-11.9,42.2
	l-34.7,6.3l-18.1,39.7l-16.8,29.5c-1.8,0.7-3.5,1.4-5.2,2.1l0,0c-62.8,26.5-65.3,92.3-65.3,92.3c17.5,29.8,105.8,16.7,105.8,16.7
	c50.4,45.2,150.6,18.9,150.6,18.9c24.2,6,43.3,8.5,58.4,9.1l0,0c42.1,1.6,52.6-12.4,52.6-12.4C657.9,691.7,615.9,646.9,615.9,646.9z
	"/>
<rect x="442.8" y="273.9" transform="matrix(0.1063 -0.9943 0.9943 0.1063 149.2375 730.098)" class="st14" width="75.9" height="16.2"/>
<rect x="381.5" y="394.8" transform="matrix(0.1063 -0.9943 0.9943 0.1063 10.8053 828.9509)" class="st15" width="170.1" height="27.4"/>
<rect x="388.5" y="402.5" transform="matrix(0.1063 -0.9943 0.9943 0.1063 16.347 836.6066)" class="st12" width="170.1" height="13.4"/>
<rect x="471.7" y="313.7" transform="matrix(0.1063 -0.9943 0.9943 0.1063 99.1652 765.1188)" class="st8" width="7" height="27.4"/>
<rect x="473.3" y="307.8" transform="matrix(0.1063 -0.9943 0.9943 0.1063 112.2882 756.7962)" class="st8" width="7.7" height="16.2"/>
<path class="st14" d="M435.9,308.3l83.2,8.9c4.6,0.5,8,4.7,7.5,9.3l0,0c-0.5,4.6-4.7,8-9.3,7.5l-83.2-8.9c-4.6-0.5-8-4.7-7.5-9.3
	l0,0C427.1,311.2,431.3,307.8,435.9,308.3z"/>
<path class="st16" d="M279.4,700.3c0,0-0.7-67.5,66.1-94.9l15.5-29.5l16.2-39.4l34.4-7.8l9.8-41.5c0,0,38-13.4,62.6-8.4l4.9,8.4
	c0,0,63.3-0.7,66.1,33.7c0,0,6.3,31.6,15.5,37.3c0,0,15.5-3.5,30.9,19l16.9,57.6c0,0,44.3,41.5,30.9,79.4c0,0-18.3,26-111.1,8.4
	c0,0-99.1,30.2-151.9-11.2C386.3,711.5,298.4,728.4,279.4,700.3z"/>
<path class="st17" d="M323.7,689.7c0,0,14.1-19.7,13.4-33.7c-0.7-14.1,3.3-48.4,3.3-48.4"/>
<path class="st17" d="M375,637c0,0,14.1-26,12.6-40.1c0,0,14.8-26.7,26-24.6"/>
<path class="st17" d="M452.4,563.2c0,0,38.7-14.1,40.8-25.3"/>
<path class="st17" d="M466.4,595.5c0,0,40.8-18.2,40.8-23.2h20.4c0,0,29.5,38.7,26,55.5"/>
<path class="st17" d="M514.2,623.7c0,0-39.4-2.8-53.4,8.4S421.4,649,421.4,649s-14.8,31.6-20.4,37.3c-5.6,5.6-14.8,25.3-14.8,25.3"
	/>
<path class="st17" d="M514.2,660.9c0,0,4.2,14.8,9.8,23.2s14.1,38.7,14.1,38.7"/>
<path class="st17" d="M580.3,703.8c0,0,8.9,24.8,16.8,25"/>
<path class="st17" d="M521.9,597.2c0,0,23.2,6.3,32.9,21.4c9.7,15.2,39.3,28.9,39.3,28.9"/>
<path class="st17" d="M531.8,522.4c0,0,0,32.3,9.1,32.3s29.5,3.5,29.5,3.5"/>
<path class="st17" d="M487,484.1c0,0-2.3,55.9-14.3,70.3"/>
<g class="st11">
	<path d="M616.8,634.2L600,576.6c-15.5-22.5-30.9-19-30.9-19c-9.1-5.6-15.5-37.2-15.5-37.2c-2.8-34.4-66.1-33.7-66.1-33.7l-4.9-8.4
		c-6.2-1.2-13.3-1.3-20.4-0.7c1.7,0.2,3.4,0.4,5,0.7l4.9,8.4c0,0,63.3-0.7,66.1,33.7c0,0,6.3,31.6,15.5,37.3c0,0,15.5-3.5,30.9,19
		l16.9,57.6c0,0,44.3,41.4,30.9,79.4c0,0-9,12.8-46.5,14.4c50.6,1.9,62-14.4,62-14.4C661.1,675.7,616.8,634.2,616.8,634.2z"/>
	<path d="M369.4,710.8c-14.9,2.7-29.9,4.3-45,4.9c17.6,0.7,35.9-1.2,47.7-2.9C371.2,712.2,370.3,711.5,369.4,710.8z"/>
	<path d="M521.2,722.1c-21.6,6.1-43.9,9.6-66.4,10.5c32.4,1.2,63.1-5.6,75.8-8.8C527.6,723.2,524.4,722.7,521.2,722.1z"/>
</g>
<rect x="450.3" y="274.3" transform="matrix(0.1063 -0.9943 0.9943 0.1063 156.2198 730.9211)" class="st12" width="68.9" height="8.4"/>
<path class="st8" d="M492.9,245.2l-0.6,5.5c-5.1,3.4-11.8,2.6-16.1-1.7l0.6-5.5L492.9,245.2z"/>
<ellipse transform="matrix(0.1063 -0.9943 0.9943 0.1063 195.6951 696.5322)" class="st14" cx="485.3" cy="239.4" rx="12.6" ry="12.6"/>
<path class="st12" d="M497.9,240.8c-0.8,6.9-7,12-13.9,11.2l2.7-25.2C493.6,227.6,498.7,233.8,497.9,240.8
	C497.9,240.8,497.9,240.8,497.9,240.8z"/>
<path class="st5" d="M541.3,302.7l-8.8,14.3l-8.4-7.3l-11.6-10c0,0-21.4,1.7-35.1-19c-5.9-8.9-1.3-13.9,5.8-16.8
	c12.1-4.8,25.9-1.1,34,9.1L541.3,302.7z"/>
<polygon class="st8" points="541.3,302.7 532.5,317 524,309.7 536.4,296.7 "/>
<path class="st9" d="M589.7,298.5l-12.4,26.6l-38.2-27.3l-22.3,23.4c0,0,51.3,84.3,80.2,43.7c17.5-24.7,31.6-41.9,40-51.6
	c7.4-8.4,9.3-20.3,4.9-30.6c-2.6-6-7.2-10.7-15.2-10l-0.6,0.1C610.3,274.3,596.4,284.1,589.7,298.5z"/>
</svg>
