<?xml version="1.0" encoding="utf-8"?>
<!-- Generator: Adobe Illustrator 25.3.1, SVG Export Plug-In . SVG Version: 6.00 Build 0)  -->
<svg version="1.1" id="Layer_1" xmlns="http://www.w3.org/2000/svg" xmlns:xlink="http://www.w3.org/1999/xlink" x="0px" y="0px"
	 viewBox="0 0 925 825" style="enable-background:new 0 0 925 825;" xml:space="preserve">
<style type="text/css">
	.st0{opacity:0.1;fill:#49E287;enable-background:new    ;}
	.st1{fill:#49E287;}
	.st2{opacity:0.1;enable-background:new    ;}
	.st3{fill:#D39972;}
	.st4{fill:#1D2B72;}
	.st5{fill:#03082D;}
	.st6{fill:#2EBC7F;}
	.st7{fill:#A5A5A5;}
	.st8{fill:#6B452F;}
</style>
<g>
	<path class="st0" d="M548.8,565.3c17-1.3,38.1-16.5,54.4-23.3c19.4-8,38.9-15.6,58.4-23c68-25.6,136.8-47.5,206.3-65.5
		c6.5-1.7,13-3.3,19.5-4.9c-10.1-29-25.8-53.9-45.5-72.4c0.5-6.3,0.8-12.7,0.8-19.1c0-100.8-60.9-182.6-136-182.6
		c-23.1,0-45.9,7.9-66,22.9c-53.2-46.3-122.6-74.3-198.5-74.3c-107.9,0-202.6,56.6-256.3,141.8L438,321.3l154.7,34.6
		c-176.4,7-353.3,13.9-529.2-2.5C15.7,414.8,7.3,512.3,43.5,586.3l0,0c0,3.7,0.1,7.3,0.3,10.9c4.5,1.7,8.8,3.3,12.7,4.4
		c62.3,17.4,125,32,188.1,43.7c-46.5,37.9-103.1,43.3-156.8,59.4c26,28.4,61.2,45.8,100.1,45.8h578.7c62.7,0,113.5-57.7,113.5-129
		l0,0c9.4-20.5,15.7-43.3,18.4-67C782.6,569.4,665.2,556.5,548.8,565.3z"/>
	<path class="st0" d="M899.4,526.1c0.1-59.6-21.7-115.5-58.4-149.9c0.5-6.3,0.8-12.7,0.8-19.1c0-100.8-60.9-182.5-136-182.5
		c-23.1,0-45.9,7.9-66,22.9c-53.2-46.3-122.6-74.3-198.5-74.3c-123.5,0-229.8,74.2-277,180.6c-2.6-0.2-5.3-0.3-7.9-0.3
		c-75.1,0-136,81.7-136,182.6c-0.1,35.6,7.7,70.5,22.4,100.4l0,0c0,90.7,64.7,164.3,144.5,164.3h578.7c62.7,0,113.5-57.8,113.5-129
		l0,0C892.5,592.8,899.5,559.8,899.4,526.1z"/>
</g>
<g>
	<path class="st1" d="M524,180l-54.5,10.3c0,0,4.5,45.9,17.9,51.1c13.4,5.2,87.1-32,87.1-32L524,180z"/>
	<path class="st2" d="M523.8,180l-54.5,10.3c0,0,4.5,45.9,17.9,51.1c13.4,5.2,87.1-32,87.1-32L523.8,180z"/>
</g>
<ellipse class="st1" cx="459.9" cy="755.3" rx="374.6" ry="9"/>
<ellipse class="st1" cx="419.9" cy="764.3" rx="224.6" ry="18"/>
<ellipse class="st1" cx="298.9" cy="782.3" rx="47.4" ry="9.3"/>
<polygon class="st3" points="464.7,683.5 469.3,716 492.2,713.7 489.9,680.1 "/>
<polygon class="st3" points="356.2,683.5 351.5,716 328.6,713.7 331,680.1 "/>
<path class="st4" d="M322.9,347.9c0,0-20.6,24.3-16,62.5c4.5,38.1,12.5,125,12.5,125l5.7,153.9l36.6-2.3l5.7-130.8l18.2-105.4
	l49.1,122.6c0,0,24,114.5,25.2,114.5c1.2,0,34.3-3.5,34.3-3.5l-16-135.4c0,0-25.2-196.7-40.1-200.2
	C423.4,345.3,322.9,347.9,322.9,347.9z"/>
<path class="st5" d="M494.4,709c0,0-20.6-13.9-28.6,2.3c-8,16.2-1.2,27.8-1.2,27.8s6.9,4.6,3.5,9.3c-3.5,4.6-4.5,34.8,25.2,30.1
	c29.7-4.6,14.9-35.8,14.9-35.8L494.4,709z"/>
<path class="st5" d="M326.4,709c0,0,20.6-13.9,28.6,2.3c8,16.2,1.2,27.8,1.2,27.8s-6.9,4.6-3.5,9.3c3.5,4.6,4.5,34.8-25.2,30.1
	c-29.7-4.7-14.9-35.8-14.9-35.8L326.4,709z"/>
<path class="st3" d="M350.9,122.8c0,0,10.3,29,2.3,45.1s12.5,34.8,12.5,34.8s53.8-27.8,46.8-41.6c-6.9-13.9-18.2-32.5-16-43.9
	L350.9,122.8z"/>
<ellipse class="st3" cx="370.9" cy="96.8" rx="36.6" ry="37.1"/>
<path class="st6" d="M344.7,166.2c0,0,36.7,30.9,64.1-12.9l28.5,16.4l14.9,176c0,0-83.4,48.6-123.5,7l5.7-163.2L344.7,166.2z"/>
<polygon class="st7" points="356.2,148.8 304.7,183.6 322.9,269.2 298.9,402.3 337.8,343.3 "/>
<path class="st7" d="M401.7,139.2l12.6,8.4l51.5,18.6l-8,143.5l21.7,92.6l-30.9,16.2c0,0-5.7-43.9-41.1-66
	C372.1,330.6,396.4,148.8,401.7,139.2z"/>
<path class="st3" d="M316.1,364.1l14.9,10.4c0,0-18.8,20.3-22.3,16.8c-2-1.9-3.1-4.7-2.9-7.5l-3.5-8.1L316.1,364.1z"/>
<path class="st3" d="M414.9,361.9l-5,8.1c0,0-14.9,7-11.4,11.6c3.5,4.6,32.1,15.1,37.7,4.6l5.7-10.4L414.9,361.9z"/>
<path class="st7" d="M311.6,182.4l-8,1.2l-13.1,86.2c0,0-5.1,15.6,0.6,52.6c5.7,37.1,11.3,61.2,11.3,61.2l25.2-18.3l-11.4-30.1
	L331,225.2L311.6,182.4z"/>
<path class="st7" d="M447.6,163.9l18.2,2.3c0,0,20.6,22,24,45.1c3.3,23.2,2.3,89.1,2.3,89.1l-52.6,84.5L411,364.1l40.1-71.8
	l-19.4-85.7L447.6,163.9z"/>
<path class="st8" d="M404.9,61.8c-5.6-8.3-13.8-14.5-23.4-17.4l-7.4,6l2.9-7c-2.4-0.4-4.9-0.5-7.4-0.5l-6.7,8.7l2.7-8.4
	c-11.7,1.4-22.3,7.8-29.2,17.6c-7.6,11.2-6.1,18.9-2.7,36.3c0.4,1.6,2.5,1.8,3.1,0.2c1.8-5.1,3.8-10.1,5.5-15.3
	c1.8,0.2,3.7,0.2,5.5,0l2.7-6.6l0.8,6.3c8.7-0.7,21.6-2.4,29.7-4l-0.8-4.8l4.8,4c2.5-0.6,4.1-1.1,3.9-1.6
	c5.8,9.4,11.6,15.7,17.3,24.9c0.4,0.5,1.1,0.4,1.2-0.2c2-12.7,2.1-22-1.2-35.1C406,63.9,405.5,62.8,404.9,61.8z"/>
<ellipse class="st3" cx="403.8" cy="95.6" rx="2.5" ry="5.1"/>
<path class="st1" d="M394.5,159.5c-4.2,15.4-36.8,15.7-36.8,15.7l0.5,7.8c0,0,9.9,13.8,56.7-7.5c29.9-13.5,71.5,13.3,97.9,34.4
	c42.6,34.3,162.9-4.2,195.4-48.4c1.8-2.4,2.7-4,2.7-4c-16.8,7.8-31.1,3.4-41.1-2.7c-7.6-4.7-13.5-11.7-16.8-20
	c-4.3-10.4-15.7-27.8-44.5-29.9c-41.2-3.1-28-20.6-28-20.6c0-8.8,15.3-6.8,15.3-6.8c-18.4-16.5-53.5-7.7-53.5-7.7
	c-67.2,30.4-140.7,69.4-140.7,69.4S398.5,145.3,394.5,159.5z"/>
<path class="st1" d="M354.8,167.3c-2.1,7,9.5,8.2,9.5,8.2l-1.8,6c0,0-8.8,8.6-15.7-4.1c-5.2-9.5-3.2-15.1-3.2-15.1
	c2-14.5,12.5-13.4,12.5-13.4S357.5,158.9,354.8,167.3z"/>
<path class="st1" d="M366.8,191.9c-4.1-1.6-0.5-7.7,1.5-9.8c2-2.1,7.2,3.6,6.2,3.6c-1.1,0,2.5,9.3,2.5,9.3S370.8,193.5,366.8,191.9z
	"/>
<path class="st1" d="M356.3,179.7c1.7-4.1,7.6-0.2,9.7,1.9s-3.9,7.1-3.8,6c0-1.1-9.3,2.2-9.3,2.2S354.6,183.8,356.3,179.7z"/>
<path class="st2" d="M370.6,179.6c0,0-0.6,6.9-4.8,6.9s-9.5-5.3-6.8-9.5c2.7-4.1,7.4-1.6,7.4-1.6L370.6,179.6z"/>
</svg>
