<?xml version="1.0" encoding="utf-8"?>
<!-- Generator: Adobe Illustrator 25.3.1, SVG Export Plug-In . SVG Version: 6.00 Build 0)  -->
<svg version="1.1" id="Layer_1" xmlns="http://www.w3.org/2000/svg" xmlns:xlink="http://www.w3.org/1999/xlink" x="0px" y="0px"
	 viewBox="0 0 925 825" style="enable-background:new 0 0 925 825;" xml:space="preserve">
<style type="text/css">
	.st0{opacity:0.82;fill:#49E287;enable-background:new    ;}
	.st1{opacity:0.82;fill:#49E287;}
	.st2{opacity:0.1;fill:#D2F9E2;enable-background:new    ;}
	.st3{fill:#2EBC7F;stroke:#2EBC7F;stroke-miterlimit:10;}
	.st4{fill:#49E287;stroke:#49E287;stroke-miterlimit:10;}
	.st5{display:none;fill:#49E287;stroke:#2EBC7F;stroke-miterlimit:10;}
	.st6{opacity:0.46;fill:#FFD039;}
	.st7{fill:#FFD039;}
	.st8{fill:#FFFFFF;}
	.st9{fill:#49E287;}
	.st10{fill:#D39972;}
	.st11{opacity:0.1;enable-background:new    ;}
	.st12{fill:#E1E7EF;}
	.st13{opacity:5.000000e-02;enable-background:new    ;}
	.st14{fill:#03082D;}
	.st15{opacity:0.1;fill:#03082D;enable-background:new    ;}
	.st16{fill:#1D2B72;}
	.st17{fill:url(#SVGID_1_);}
	.st18{opacity:0.1;}
	.st19{fill:#F2F2F2;}
	.st20{fill:#E6E6E6;}
	.st21{fill:#A5A5A5;}
	.st22{opacity:0.1;fill:#49E287;enable-background:new    ;}
	.st23{opacity:0.3;fill:#49E287;enable-background:new    ;}
</style>
<path class="st0" d="M381.1,144.3c-9.7-13.3-29.7,1.1-20.6,14.7c2.4,3.6,4.9,7,7.4,10.3c29.8,40.2,45.2,89,58.5,137.2
	c3.3,11.8,6.4,24.5,2.7,36.2c5.3-31.4,1.9-63.6-6.2-94.5c-8-30.9-20.5-60.2-33.4-89.2C387.2,153.9,384.4,148.9,381.1,144.3z"/>
<path class="st1" d="M188,228.8c-20.1-0.6-22.6,29.8-2.7,31.4c5.3,0.4,10.6,0.6,15.6,0.7c61.5,1.7,119.6,23.9,175.5,47.9
	c13.7,5.9,28.1,12.5,36.1,25.1c-25.2-29.2-58.3-50.6-93.6-66.3s-72.9-26.1-110.4-35.8C201.8,230.2,194.9,229.2,188,228.8z"/>
<path class="st0" d="M193.5,303.7c-12.7,0.5-9.8,18.6,3,18.6c3.3,0,6.7,0,9.8-0.3c38.8-1.6,78.5,9.1,117.1,20.9
	c9.5,2.9,19.4,6.2,26.3,13.3c-20.1-16.1-44-27.4-68.4-35.1c-24.4-7.8-49.5-12.3-74.4-16.4C202.5,303.9,198,303.6,193.5,303.7z"/>
<path class="st0" d="M453,638.8c3.6,12.2,20.4,4.9,17.3-7.5c-0.8-3.2-1.8-6.4-2.7-9.5c-11.2-37.1-10.6-78.3-8.8-118.6
	c0.5-9.9,1.2-20.4,6.3-28.8c-10.6,23.5-15.6,49.4-17,75c-1.5,25.6,0.4,51,2.7,76.2C451.1,630.1,451.9,634.5,453,638.8z"/>
<path class="st0" d="M216.6,127.4c-7.6-1.3-8.2,9.8-0.6,11.5c2,0.4,4,0.8,5.9,1.1c23.4,4,45.7,15.4,67.2,27.4
	c5.3,2.9,10.8,6.2,14,11.3c-10.2-12.1-22.5-22.2-36.4-29.8c-13.6-7.4-27.8-13.9-42.4-19.2C221.9,128.6,219.3,127.9,216.6,127.4z"/>
<path class="st1" d="M98.8,422.1c-19.4,10-3,37.3,16.9,28.3c5.3-2.4,10.3-5,15.1-7.6c59.2-30.7,127.9-42,195.6-50.7
	c16.6-2.1,34.3-4,49.6,2.7C334.2,383,289.6,382,246.6,387s-85,15.9-126.4,27.2C112.8,416.1,105.6,418.8,98.8,422.1z"/>
<path class="st0" d="M154.2,528.7c-13.9,13,7.8,28.3,22.4,15.9c3.8-3.3,7.4-6.7,10.9-10c42.4-39.8,98.5-68.2,154.3-94.3
	c13.7-6.4,70.1-13,85.1-12.6c-39.3,3.5-119.6,15.9-155.3,32c-35.7,16.1-68.8,36.3-101.4,56.8C164.5,520.1,159.1,524.1,154.2,528.7z"
	/>
<path class="st1" d="M253.4,698.7c-4.1,18.6,22.5,18.8,27.5,0.3c1.3-4.9,2.3-9.8,3.3-14.4c12.2-56.9,42.3-112.1,73.3-165.3
	c7.6-13.1,50.4-50.5,62.9-58.8c-30.3,25.3-89.4,81-109.6,114.7c-20.1,33.7-35.9,68.9-51,104.3C257.1,685.7,254.9,692.1,253.4,698.7z
	"/>
<path class="st1" d="M453.3,45.9c-9.5-19.3-36.6-3.4-28,16.4c2.3,5.3,4.8,10.3,7.2,15.1c29.2,59,39.3,127.3,46.8,194.5
	c1.8,16.5,3.4,34-3.3,49.2c12.2-41.3,13.9-85.5,9.6-128.2c-4.2-42.8-14.2-84.4-24.8-125.7C459,59.8,456.5,52.7,453.3,45.9z"/>
<path class="st1" d="M302.3,78.8c0.5,0.3,1,0.5,1.6,0.5c1.1,0,1.8-1.1,2.2-2c2.4-5.1,1-11.8,4.7-16.1c3.7,4.4,6.7,9.4,8.9,14.8
	l13.9-4.3c1.3,5.4,0.3,11.2-2.7,15.9c2.4,1.1,4.7,2.6,6.6,4.5c1.9,1.9,2.5,4.8,1.7,7.4c-3.2,0.8-6.5,1.1-9.8,1
	c0.5,6.1,0.2,12.3-1,18.3c-0.1,0.9-0.5,1.7-1.2,2.3c-1,0.7-2.4,0-3.4-0.6c-4.8-3-8.8-7.2-11.4-12.1l-5.2,12.4
	c-0.4,1.3-1.2,2.4-2.3,3.1c-1.6,0.6-3.4-0.1-4.3-1.5c-0.9-1.4-1.4-3-1.5-4.7l-1.9-11.8c0-0.6-0.2-1.2-0.6-1.7
	c-0.6-0.4-1.3-0.6-2.1-0.6c-4.9-0.1-9.8-0.2-14.7-0.2c-0.8-2.7,1.7-5,4.3-6.1c2.5-1.1,5.5-1.9,6.8-4.4c2.7-5-4.1-11.9-1.2-16.2
	C292.6,71.7,298,76.7,302.3,78.8z"/>
<path class="st0" d="M570.8,144.3c9.7-13.3,29.7,1.1,20.6,14.7c-2.4,3.6-5,7-7.4,10.3c-29.8,40.2-45.1,89-58.5,137.2
	c-3.3,11.8-6.4,24.5-2.7,36.2c-5.3-31.4-1.9-63.6,6.2-94.5s20.5-60.2,33.4-89.2C564.7,153.9,567.5,148.9,570.8,144.3z"/>
<path class="st1" d="M763.9,228.8c20.1-0.6,22.6,29.8,2.7,31.4c-5.3,0.4-10.6,0.6-15.6,0.7c-61.5,1.7-119.6,23.9-175.5,47.9
	c-13.7,5.9-28.1,12.5-36.1,25.1c25.2-29.2,58.3-50.6,93.6-66.3c35.3-15.6,72.8-26,110.4-35.7C750.1,230.3,757,229.2,763.9,228.8z"/>
<path class="st0" d="M758.4,303.7c12.7,0.5,9.8,18.6-2.9,18.6c-3.3,0-6.7,0-9.9-0.3c-38.8-1.6-78.5,9.1-117,20.9
	c-9.5,2.9-19.5,6.2-26.3,13.3c20.1-16.1,44-27.4,68.4-35.1c24.4-7.8,49.5-12.3,74.4-16.4C749.5,303.9,754,303.6,758.4,303.7z"/>
<path class="st0" d="M735.3,127.4c7.6-1.3,8.2,9.8,0.6,11.5c-2,0.4-4,0.8-5.9,1.1c-23.4,4-45.7,15.4-67.3,27.4
	c-5.3,2.9-10.8,6.2-14,11.3c10.2-12.1,22.5-22.2,36.4-29.8c13.6-7.4,27.8-13.9,42.4-19.2C730,128.6,732.6,127.9,735.3,127.4z"/>
<path class="st0" d="M536.5,661.8c-1.7,7.6-12.2,3.8-10.8-3.9c0.4-2,0.8-4,1.3-5.9c5.3-23.1,3.4-48.2,0.7-72.6
	c-0.7-6-1.5-12.4-5-17.3c7.1,14.1,11.6,29.4,13.3,45.1c1.6,15.5,2.1,31,1.4,46.5C537.3,656.5,537.1,659.2,536.5,661.8z"/>
<path class="st0" d="M730.4,611.6c6,10.1-8.7,9.4-15.1-0.7c-1.7-2.7-3.2-5.3-4.7-8c-18.2-30.9-45.8-61.4-73.6-91
	c-6.8-7.2-14.2-14.9-22.8-19.7c21.8,14.8,41.8,32,59.8,51.2c17.9,18.6,33.6,38.1,49.1,57.6C725.7,604.4,728.2,607.9,730.4,611.6z"/>
<path class="st0" d="M199.9,611.6c-6,10.1,8.7,9.4,15.1-0.7c1.7-2.7,3.3-5.3,4.7-8c18.2-30.9,45.8-61.4,73.6-91
	c6.8-7.2,14.2-14.9,22.8-19.7c-21.8,14.8-41.8,32-59.8,51.2c-17.9,18.6-33.6,38.1-49.1,57.6C204.6,604.4,202.2,607.9,199.9,611.6z"
	/>
<path class="st0" d="M393.9,661.8c1.7,7.6,12.2,3.8,10.8-3.9c-0.4-2-0.8-4-1.3-5.9c-5.3-23.1-3.4-48.2-0.7-72.6
	c0.7-6,1.5-12.4,5-17.3c-7.1,14.1-11.6,29.4-13.3,45.1c-1.6,15.4-2.1,31-1.4,46.5C393.1,656.5,393.4,659.2,393.9,661.8z"/>
<path class="st0" d="M674.2,203.3c7.6-1.3,8.2,9.8,0.6,11.5c-2,0.4-4,0.8-5.9,1.1c-23.4,4-45.7,15.4-67.2,27.4
	c-5.3,2.9-10.8,6.2-14,11.3c10.2-12,22.5-22.1,36.4-29.7c13.6-7.4,27.8-13.9,42.4-19.2C668.9,204.6,671.5,203.8,674.2,203.3z"/>
<path class="st0" d="M602.9,54.3c6.6-4.1,11.3,6,4.9,10.4c-1.7,1.2-3.4,2.2-5.1,3.2c-20.2,12.5-36.7,31.4-52.2,50.5
	c-3.8,4.7-7.7,9.8-8.8,15.7c5-14.9,12.7-28.8,22.7-41c9.9-12,20.6-23.3,32.1-33.7C598.4,57.6,600.6,55.8,602.9,54.3z"/>
<path class="st1" d="M853.1,422.1c19.4,10,3,37.3-16.9,28.3c-5.3-2.4-10.3-5-15.1-7.6c-59.2-30.7-128-42-195.6-50.7
	c-16.6-2.1-34.3-4-49.6,2.7c41.8-11.8,86.4-12.8,129.5-7.8c43.1,5,84.8,15.9,126.4,27.2C839.2,416.1,846.3,418.8,853.1,422.1z"/>
<path class="st0" d="M797.8,528.7c13.9,13-8,28.3-22.4,15.9c-3.8-3.3-7.4-6.7-10.9-10c-42.4-39.8-98.5-68.2-154.3-94.3
	c-13.7-6.4-70.1-13-85.2-12.6c39.3,3.5,119.7,15.9,155.4,32c35.7,16.1,68.8,36.4,101.3,56.9C787.4,520.1,792.8,524.1,797.8,528.7z"
	/>
<path class="st1" d="M633.9,719.9c1.7,19-24.7,15.9-27.3-3.2c-0.7-5-1.1-10-1.5-14.7c-5-58-27.9-116.6-52.1-173.2
	c-5.9-13.9-43.6-56.4-55-66.3c27,28.8,78.6,91.6,94.4,127.5s27,73,37.6,109.9C631.9,706.5,633.2,713.2,633.9,719.9z"/>
<path class="st1" d="M649.8,78.8c-0.5,0.3-1.1,0.5-1.6,0.5c-1,0-1.8-1.1-2.2-2c-2.4-5.1-1-11.8-4.6-16.1c-3.7,4.4-6.7,9.4-8.9,14.8
	l-13.9-4.3c-1.3,5.4-0.3,11.2,2.7,15.9c-2.4,1.1-4.7,2.6-6.5,4.5c-1.9,1.9-2.5,4.8-1.7,7.4c3.2,0.8,6.5,1.1,9.8,1
	c-0.5,6.1-0.2,12.3,1,18.3c0.1,0.9,0.5,1.7,1.2,2.3c1,0.7,2.4,0,3.4-0.6c4.8-3,8.8-7.2,11.4-12.1l5.3,12.4c0.4,1.3,1.2,2.4,2.3,3.1
	c1.6,0.6,3.4-0.1,4.3-1.5c0.8-1.4,1.4-3,1.5-4.7l1.9-11.8c0-0.6,0.2-1.2,0.6-1.7c0.6-0.4,1.3-0.6,2-0.6c4.9-0.1,9.8-0.2,14.7-0.2
	c0.8-2.7-1.8-5-4.3-6.1c-2.5-1.1-5.5-1.9-6.8-4.4c-2.7-5,4.1-11.9,1.2-16.2C659.3,71.7,653.9,76.7,649.8,78.8z"/>
<path class="st0" d="M691.6,651.7c-0.5,0.3-1.1,0.4-1.6,0.5c-1.1,0-1.8-1.1-2.2-2c-2.4-5.1-1-11.8-4.7-16.2
	c-3.7,4.5-6.7,9.5-8.9,14.8l-13.9-4.4c-1.3,5.4-0.3,11.2,2.7,15.9c-2.4,1.1-4.7,2.6-6.6,4.5c-1.9,1.9-2.5,4.8-1.7,7.4
	c3.2,0.8,6.5,1.1,9.8,1c-0.5,6.1-0.2,12.3,1,18.3c0.1,0.9,0.5,1.7,1.2,2.3c1.1,0.4,2.4,0.2,3.4-0.6c4.8-3,8.8-7.2,11.4-12.1
	l5.3,12.4c0.4,1.3,1.2,2.4,2.3,3.1c1.6,0.5,3.4-0.1,4.3-1.5c0.9-1.4,1.4-3,1.5-4.7l1.9-11.7c-0.1-1.2,0.9-2.2,2.1-2.3
	c0.2,0,0.4,0,0.6,0c4.9-0.2,9.8-0.2,14.7-0.2c0.8-2.7-1.7-5-4.3-6.1c-2.5-1.1-5.5-1.9-6.8-4.4c-2.7-5,4.1-11.9,1.2-16.2
	C701.3,644.6,695.9,649.6,691.6,651.7z"/>
<path class="st1" d="M809.5,267.7c-0.5,0.3-1,0.5-1.6,0.5c-1-0.2-1.9-1-2.2-2c-2.4-5.2-1-11.8-4.7-16.2c-3.7,4.5-6.7,9.5-8.9,14.8
	l-13.9-4.3c-1.3,5.4-0.3,11.2,2.7,15.9c-2.4,1.1-4.7,2.6-6.5,4.5c-1.9,1.9-2.5,4.8-1.7,7.3c3.2,0.8,6.5,1.1,9.8,1
	c-0.5,6.1-0.2,12.3,1,18.3c0.1,0.9,0.5,1.7,1.2,2.3c1.2,0.4,2.5,0.2,3.4-0.6c4.8-3,8.8-7.1,11.4-12.1l5.3,12.4
	c0.4,1.3,1.2,2.4,2.3,3.1c1.6,0.6,3.4,0,4.3-1.5c0.9-1.4,1.4-3,1.5-4.7l1.9-11.8c0-0.6,0.3-1.2,0.6-1.6c0.6-0.5,1.3-0.7,2.1-0.6
	c4.9,0,9.8-0.2,14.7,0c0.8-2.7-1.7-5-4.3-6.1c-2.5-1.1-5.5-1.9-6.8-4.3c-2.7-5,4.1-11.9,1.2-16.2
	C819.1,260.6,813.8,265.5,809.5,267.7z"/>
<path class="st1" d="M338.2,709.2c-0.7,0.4-1.5,0.6-2.3,0.7c-1.5,0-2.5-1.5-3.1-2.8c-3.3-7.2-1.4-16.5-6.5-22.5
	c-5.2,6.2-9.3,13.2-12.3,20.7l-19.4-6c-1.8,7.6-0.5,15.6,3.7,22.2c-3.4,1.5-6.5,3.6-9.1,6.2c-2.6,2.7-3.5,6.7-2.4,10.3
	c4.5,1.1,9.1,1.6,13.7,1.4c-0.7,8.5-0.2,17.1,1.5,25.5c-0.1,2,1.4,3.7,3.3,3.8c1.2,0.1,2.3-0.4,3-1.4c6.7-4.1,12.2-10,15.9-16.9
	l7.2,17.2c0.5,1.8,1.7,3.3,3.2,4.3c2.2,0.8,4.8-0.1,6-2.1c1.2-2,1.9-4.2,2.1-6.5l2.7-16.4c0-0.8,0.4-1.6,0.9-2.3
	c0.8-0.6,1.8-0.9,2.9-0.8c6.8-0.2,13.7-0.3,20.5-0.2c1.2-3.6-2.5-7-6-8.6c-3.5-1.5-7.7-2.7-9.4-6.1c-3.6-6.9,5.7-16.6,1.7-22.5
	C351.6,699.3,344.2,706.2,338.2,709.2z"/>
<path class="st1" d="M142.1,279.1c-0.7,0.4-1.5,0.6-2.3,0.7c-1.5,0-2.5-1.5-3.1-2.8c-3.3-7.2-1.4-16.5-6.5-22.5
	c-5.2,6.2-9.3,13.2-12.3,20.7l-19.4-6c-1.8,7.6-0.5,15.6,3.7,22.2c-3.4,1.5-6.5,3.6-9.1,6.2c-2.6,2.7-3.5,6.7-2.4,10.3
	c4.5,1.1,9.1,1.5,13.7,1.4c-0.7,8.5-0.2,17.1,1.5,25.5c0.1,1.3,0.7,2.4,1.7,3.2c1.6,0.6,3.4,0.3,4.7-0.8c6.7-4.2,12.2-10,15.9-16.9
	l7.2,17.2c0.5,1.8,1.7,3.3,3.2,4.3c2.3,0.7,4.7-0.1,6-2.1c1.2-2,2-4.2,2.1-6.5l2.7-16.4c0-0.8,0.4-1.7,0.9-2.3
	c0.8-0.6,1.8-0.9,2.9-0.8c6.8-0.2,13.7-0.2,20.5-0.2c1.2-3.6-2.5-7-6-8.6c-3.5-1.5-7.7-2.7-9.4-6.1c-3.6-6.9,5.6-16.6,1.7-22.5
	C155.5,269.3,148.1,276.1,142.1,279.1z"/>
<path class="st0" d="M117.2,495.4c-0.4,0.2-0.8,0.4-1.2,0.4c-0.8,0-1.3-0.8-1.6-1.5c-1.8-3.8-0.7-8.7-3.4-12c-2.8,3.3-5,7-6.5,11
	l-10.3-3.2c-1,4-0.3,8.3,1.9,11.8c-1.8,0.8-3.4,1.9-4.8,3.3c-1.4,1.4-1.9,3.5-1.3,5.5c2.4,0.6,4.8,0.8,7.3,0.7
	c-0.4,4.5-0.1,9.1,0.8,13.5c0,0.7,0.4,1.3,0.9,1.7c0.7,0.5,1.7,0,2.7-0.4c3.5-2.2,6.5-5.3,8.5-9l3.8,9.1c0.3,0.9,0.9,1.8,1.7,2.3
	c1.2,0.5,2.5,0,3.2-1.1c0.6-1.1,1-2.2,1.1-3.5l1.4-8.7c0-0.5,0.2-0.9,0.5-1.2c0.4-0.3,1-0.5,1.5-0.4c3.6,0,7.3-0.1,10.9,0
	c0.6-1.9-1.3-3.7-3.2-4.6c-1.9-0.8-4.1-1.4-5-3.2c-1.9-3.7,3-8.8,0.9-12C124.3,490.2,120.3,493.8,117.2,495.4z"/>
<path class="st0" d="M470.8,699.2c-0.4,0.2-0.8,0.3-1.2,0.4c-0.8,0-1.3-0.8-1.6-1.5c-1.7-3.8-0.7-8.7-3.4-12c-2.7,3.3-4.9,7-6.5,11
	l-10.3-3.2c-1,4-0.3,8.3,1.9,11.8c-1.8,0.8-3.5,1.9-4.9,3.3c-1.4,1.4-1.9,3.5-1.3,5.4c2.4,0.6,4.8,0.8,7.3,0.7
	c-0.4,4.5-0.1,9.1,0.8,13.5c0.1,0.7,0.4,1.3,0.9,1.7c0.9,0.3,1.8,0.2,2.5-0.4c3.6-2.2,6.5-5.3,8.5-9l3.8,9.1c0.3,1,0.9,1.8,1.7,2.3
	c1.2,0.4,2.5-0.1,3.2-1.1c0.6-1.1,1-2.2,1.1-3.5l1.4-8.7c0-0.4,0.2-0.9,0.5-1.2c0.4-0.3,1-0.5,1.5-0.4c3.6,0,7.3-0.2,10.9-0.1
	c0.6-1.9-1.3-3.7-3.2-4.5s-4.1-1.4-5-3.2c-1.9-3.7,3-8.8,0.9-12C477.9,694,473.9,697.7,470.8,699.2z"/>
<path class="st0" d="M213,160.9c-0.4,0.2-0.8,0.3-1.2,0.4c-0.8,0-1.3-0.8-1.6-1.5c-1.8-3.8-0.7-8.7-3.4-12c-2.8,3.3-5,7-6.5,11
	l-10.3-3.2c-1,4-0.3,8.3,2,11.8c-1.8,0.8-3.5,1.9-4.9,3.3c-1.4,1.4-1.9,3.5-1.3,5.4c2.4,0.6,4.8,0.8,7.3,0.7
	c-0.4,4.5-0.1,9.1,0.8,13.5c0,0.7,0.4,1.3,0.9,1.7c0.7,0.5,1.7,0,2.5-0.4c3.5-2.2,6.5-5.3,8.5-9l3.8,9.1c0.3,0.9,0.9,1.8,1.7,2.3
	c1.2,0.5,2.5,0,3.2-1.1c0.6-1.1,1-2.2,1.1-3.5l1.4-8.7c0-0.5,0.2-0.9,0.5-1.2c0.4-0.3,1-0.5,1.5-0.4c3.6,0,7.3-0.1,10.9,0
	c0.6-1.9-1.3-3.7-3.2-4.6c-1.9-0.8-4.1-1.4-5-3.2c-1.9-3.7,3-8.8,0.9-12C220.1,155.7,216.1,159.5,213,160.9z"/>
<path class="st0" d="M350.3,464.2c-0.4,0.2-0.8,0.4-1.2,0.4c-0.8,0-1.3-0.8-1.7-1.5c-1.7-3.8-0.7-8.7-3.4-12c-2.7,3.3-5,7-6.6,11
	l-10.4-3.2c-1,4-0.3,8.3,1.9,11.8c-1.8,0.8-3.5,1.9-4.9,3.3c-1.4,1.4-1.8,3.4-1.2,5.3c2.4,0.6,4.8,0.8,7.3,0.7
	c-0.4,4.5-0.1,9.1,0.8,13.5c0,0.7,0.4,1.3,0.9,1.7c0.7,0.5,1.7,0,2.5-0.4c3.6-2.2,6.5-5.3,8.5-9l3.8,9.1c0.3,0.9,0.9,1.8,1.7,2.3
	c1.2,0.5,2.5,0,3.2-1.1c0.6-1.1,1-2.2,1.1-3.5l1.4-8.7c0-0.5,0.2-0.9,0.5-1.2c0.4-0.3,1-0.5,1.5-0.4c3.6,0,7.3,0,10.9,0
	c0.6-1.9-1.3-3.7-3.2-4.6c-1.9-0.8-4.1-1.4-5-3.2c-1.9-3.7,3-8.8,0.9-12C357.3,458.9,353.3,462.7,350.3,464.2z"/>
<path class="st0" d="M250.6,346c-0.4,0.2-0.8,0.3-1.2,0.3c-0.8,0-1.3-0.8-1.7-1.5c-1.7-3.8-0.7-8.7-3.4-12c-2.7,3.3-4.9,7-6.5,11
	l-10.3-3.2c-1,4-0.3,8.3,1.9,11.8c-1.8,0.8-3.4,1.9-4.9,3.3c-1.4,1.4-1.9,3.6-1.2,5.5c2.4,0.6,4.8,0.8,7.3,0.7
	c-0.4,4.5-0.1,9.1,0.8,13.5c0.1,0.7,0.4,1.3,0.9,1.7c0.7,0.5,1.7,0,2.5-0.4c3.6-2.2,6.5-5.3,8.5-9l3.8,9.1c0.3,0.9,0.9,1.8,1.7,2.3
	c1.2,0.5,2.5,0,3.2-1.1c0.6-1.1,1-2.2,1.1-3.5l1.4-8.7c0-0.4,0.2-0.9,0.5-1.2c0.4-0.3,1-0.5,1.5-0.5c3.6,0,7.3-0.1,10.9,0
	c0.6-1.9-1.3-3.7-3.2-4.5s-4.1-1.4-5-3.2c-1.9-3.7,3-8.8,0.9-12C257.7,340.8,253.8,344.5,250.6,346z"/>
<path class="st0" d="M678.3,373.9c-0.4,0.2-0.8,0.4-1.2,0.4c-0.8,0-1.3-0.8-1.6-1.5c-1.8-3.8-0.8-8.7-3.4-12c-2.8,3.3-5,7-6.5,11
	l-10.4-3.2c-1,4-0.3,8.3,1.9,11.8c-1.8,0.8-3.5,1.9-4.9,3.3c-1.4,1.4-1.9,3.5-1.2,5.4c2.4,0.6,4.8,0.8,7.3,0.7
	c-0.4,4.5-0.1,9.1,0.8,13.5c0.1,0.7,0.4,1.3,0.9,1.7c0.7,0.5,1.7,0,2.5-0.4c3.6-2.2,6.5-5.3,8.5-9l3.8,9.1c0.3,0.9,0.9,1.8,1.7,2.3
	c1.2,0.5,2.5,0,3.2-1.1c0.6-1.1,1-2.2,1.1-3.5l1.4-8.7c0-0.5,0.2-0.9,0.5-1.2c0.4-0.3,1-0.5,1.5-0.4c3.6,0,7.3-0.1,10.9,0
	c0.6-1.9-1.3-3.7-3.2-4.6s-4.1-1.4-5-3.2c-1.9-3.7,3-8.8,0.9-12C685.4,368.6,681.6,372.3,678.3,373.9z"/>
<path class="st0" d="M530.8,360.6c-0.4,0.2-0.8,0.3-1.2,0.4c-0.8,0-1.3-0.8-1.6-1.5c-1.7-3.8-0.7-8.7-3.4-12c-2.7,3.3-4.9,7-6.5,11
	l-10.3-3.2c-1,4-0.3,8.3,1.9,11.8c-1.8,0.8-3.5,1.9-4.9,3.3c-1.4,1.4-1.9,3.5-1.3,5.4c2.4,0.6,4.8,0.8,7.3,0.7
	c-0.4,4.5-0.1,9.1,0.8,13.5c0,0.7,0.4,1.3,0.9,1.7c0.9,0.3,1.8,0.2,2.5-0.4c3.6-2.2,6.5-5.3,8.5-9l3.8,9.1c0.3,0.9,0.9,1.8,1.7,2.3
	c1.2,0.5,2.5,0,3.2-1.1c0.6-1.1,1-2.2,1.1-3.5l1.4-8.7c0-0.5,0.2-0.9,0.5-1.2c0.4-0.3,1-0.5,1.5-0.4c3.6,0,7.3-0.1,10.9,0
	c0.6-1.9-1.3-3.7-3.2-4.6c-1.9-0.8-4.1-1.4-5-3.2c-1.9-3.7,3-8.8,0.9-12C537.9,355.4,533.9,359,530.8,360.6z"/>
<path class="st0" d="M385.6,338.9c-0.4,0.2-0.8,0.3-1.2,0.4c-0.8,0-1.3-0.8-1.6-1.5c-1.7-3.8-0.7-8.8-3.4-12c-2.8,3.3-5,7-6.6,10.9
	l-10.3-3.2c-1,4-0.3,8.3,2,11.8c-1.8,0.8-3.5,1.9-4.9,3.3c-1.4,1.4-1.9,3.5-1.3,5.4c2.4,0.6,4.8,0.8,7.3,0.7
	c-0.4,4.5-0.1,9.1,0.8,13.5c0,0.7,0.4,1.3,0.9,1.7c0.9,0.3,1.8,0.2,2.5-0.4c3.6-2.2,6.5-5.3,8.5-9l3.8,9.1c0.3,0.9,0.9,1.7,1.7,2.3
	c1.2,0.5,2.6,0,3.2-1.1c0.6-1.1,1-2.2,1.1-3.5l1.4-8.7c0-0.5,0.2-0.9,0.5-1.2c0.4-0.3,1-0.5,1.5-0.4c3.6,0,7.3-0.1,10.9,0
	c0.6-1.9-1.3-3.7-3.2-4.6s-4.1-1.4-5-3.2c-1.9-3.7,3-8.8,0.9-12C392.8,333.7,388.8,337.4,385.6,338.9z"/>
<path class="st0" d="M345,207.5c-0.4,0.2-0.8,0.3-1.2,0.4c-0.8,0-1.3-0.8-1.6-1.5c-1.7-3.8-0.7-8.7-3.4-12c-2.7,3.3-5,7-6.5,11
	l-10.3-3.2c-1,4-0.3,8.3,2,11.8c-1.8,0.8-3.5,1.9-4.9,3.3c-1.4,1.4-1.9,3.5-1.3,5.4c2.4,0.6,4.8,0.8,7.3,0.7
	c-0.4,4.5-0.1,9.1,0.8,13.5c0,0.7,0.4,1.3,0.9,1.7c0.7,0.5,1.7,0,2.5-0.4c3.6-2.2,6.5-5.3,8.5-9l3.8,9.1c0.3,0.9,0.9,1.8,1.7,2.3
	c1.2,0.5,2.5,0,3.2-1.1c0.6-1.1,1-2.2,1.1-3.5l1.4-8.7c0-0.5,0.2-0.9,0.5-1.2c0.4-0.3,1-0.5,1.5-0.4c3.6,0,7.3-0.2,10.9-0.1
	c0.6-1.9-1.3-3.7-3.2-4.5s-4.1-1.4-5-3.2c-1.9-3.7,3-8.8,0.9-12C352.1,202.2,348.1,205.9,345,207.5z"/>
<path class="st0" d="M506.3,493.4c-0.4,0.2-0.8,0.3-1.2,0.3c-0.8,0-1.3-0.8-1.6-1.5c-1.7-3.8-0.7-8.7-3.4-12c-2.7,3.3-4.9,7-6.5,11
	l-10.3-3.2c-1,4-0.3,8.3,1.9,11.8c-1.8,0.8-3.4,1.9-4.9,3.3c-1.4,1.4-1.9,3.6-1.2,5.5c2.4,0.6,4.8,0.8,7.3,0.7
	c-0.4,4.5-0.1,9.1,0.8,13.5c0.1,0.7,0.4,1.3,0.9,1.7c0.9,0.4,1.9,0.2,2.7-0.4c3.6-2.2,6.5-5.3,8.5-9l3.8,9.1
	c0.3,0.9,0.9,1.8,1.7,2.3c1.2,0.4,2.5-0.1,3.2-1.1c0.6-1.1,1-2.2,1.1-3.5l1.4-8.7c0-0.4,0.2-0.9,0.5-1.2c0.4-0.3,1-0.5,1.5-0.5
	c3.6,0,7.3-0.1,10.9,0c0.6-1.9-1.3-3.7-3.2-4.5c-1.9-0.8-4.1-1.4-5-3.2c-1.9-3.7,3-8.8,0.9-12C513.4,488.2,509.5,491.8,506.3,493.4z
	"/>
<path class="st2" d="M72.3,529.3c0,2.2-1.7,4-3.8,4H63c2.2,0,3.8,1.7,3.8,4s-1.7,4-3.8,4h7.7c2.2,0,3.8,1.7,3.8,4s-1.7,4-3.8,4H34.4
	c24.8,71.6,71.3,134.2,132.5,181.4c0.7-0.5,1.4-0.7,2.2-0.7h44.7c2.2,0,3.8,1.7,3.8,4c0,2.2-1.7,4-3.8,4h-5.4c2.2,0,3.8,1.7,3.8,4
	c0,2.2-1.7,4-3.8,4h7.7c2.2,0,3.8,1.7,3.8,4c0,2.2-1.7,4-3.8,4h-16c68.6,43.1,151.4,68.4,240.9,68.4c53,0.1,105.6-9,155.6-26.9
	c6.7-2.4,13.2-4.9,19.7-7.6c11.3-4.7,22.3-9.8,33.2-15.4c4.6-2.4,9.3-4.9,13.8-7.5l0.2-0.1l1-0.6l2.7-1.5c5.3-3.1,10.6-6.3,15.8-9.6
	l3.2-2.1c2.7-1.7,5.4-3.5,8-5.4c5.3-3.6,10.5-7.3,15.6-11.1l1.8-1.4l1.5-1.2c6.9-5.2,13.6-10.7,20-16.3l0.2-0.2
	c3.2-2.8,6.3-5.6,9.4-8.4l0.2-0.2c10.1-9.3,19.7-19.1,28.9-29.4c13.7-15.4,26.1-31.9,37.2-49.3h-17.9c-2.2,0-3.8-1.7-3.8-4
	c0-2.2,1.7-4,3.8-4h-7.7c-2.2,0-3.8-1.7-3.8-4c0-2.2,1.7-4,3.8-4l0,0h5.4c-2.2,0.1-4-1.6-4.1-3.7c-0.1-2.2,1.6-4.1,3.6-4.2
	c0.1,0,0.2,0,0.3,0H823c28.4-52.5,44.3-111.7,44.3-174.3c0-39.5-6.5-78.7-19-116h-76c-4.5-0.1-8-4.1-7.9-8.7c0.1-4.4,3.6-8,7.9-8.2
	h-16.3c-4.5,0-8.1-3.7-8.1-8.4s3.6-8.4,8.1-8.4h11.7c-4.5-0.1-8-4.1-7.9-8.7c0.1-4.4,3.6-8,7.9-8.2H827
	C759.3,130,611.9,37.7,440.9,37.7c-99.8,0-191.6,31.5-264.4,84.3h19.1c4.5,0.1,8,4.1,7.9,8.7c-0.1,4.4-3.6,8-7.9,8.2H184
	c4.5,0,8.1,3.7,8.1,8.4s-3.6,8.4-8.1,8.4h16.3c4.5-0.1,8.3,3.5,8.5,8.2c0.1,4.7-3.4,8.5-7.9,8.7c-0.2,0-0.3,0-0.6,0H119
	C53.7,241.5,14.2,331.5,14.2,430c0,32.2,4.3,64.4,12.7,95.4h41.4C70.5,525.3,72.3,527.1,72.3,529.3z"/>
<path class="st3" d="M326.9,602.9c-4.5-2.4-8.9-5-13.1-7.7l1.4-2.1c4.2,2.7,8.6,5.2,13,7.6l0.1,0.1l-1.2,2.2L326.9,602.9
	L326.9,602.9z M340.8,609.9l1.1-2.3c4.6,2.1,9.3,4.1,14,5.9l-0.9,2.4C350.2,614.1,345.4,612.1,340.8,609.9z M301.1,586.6
	c-4.1-3-8.2-6.2-12.1-9.4l1.6-2c3.9,3.2,7.9,6.4,12,9.3L301.1,586.6z M369.4,621l0.8-2.4c4.8,1.5,9.7,2.9,14.6,4.1l-0.6,2.5
	C379.3,623.9,374.3,622.5,369.4,621L369.4,621z M277.5,567c-3.7-3.5-7.3-7.2-10.8-10.9l1.9-1.7c3.4,3.7,7,7.3,10.7,10.8L277.5,567z
	 M399.3,628.2l0.4-2.5c5,0.9,10,1.6,15,2.1l-0.3,2.5C409.4,629.8,404.3,629,399.3,628.2z M256.6,544.5c-3.2-4-6.3-8.1-9.3-12.3
	l2.1-1.5c2.9,4.1,6,8.2,9.2,12.1L256.6,544.5z M429.7,631.4l0.1-2.5c5,0.2,10.1,0.2,15.2,0.1l0.1,2.5
	C440,631.6,434.8,631.6,429.7,631.4z M238.9,519.3c-2.7-4.4-5.2-8.9-7.6-13.4l2.2-1.2c2.3,4.5,4.9,8.9,7.5,13.2L238.9,519.3z
	 M460.4,630.6l-0.2-2.5c5-0.5,10.1-1.1,15.1-1.9l0.4,2.5C470.6,629.5,465.5,630.1,460.4,630.6z M224.7,492.1
	c-2.1-4.7-4-9.4-5.8-14.2l2.4-0.9c1.7,4.7,3.7,9.5,5.7,14.1L224.7,492.1z M490.7,625.8l-0.6-2.5c4.9-1.1,9.9-2.4,14.7-3.8l0.7,2.4
	C500.7,623.4,495.7,624.7,490.7,625.8z M214.1,463.3c-1.4-4.9-2.7-9.9-3.9-14.9l2.5-0.6c1.1,4.9,2.4,9.9,3.8,14.7L214.1,463.3z
	 M520.2,617.1l-0.9-2.4c4.7-1.7,9.5-3.7,14.1-5.7l1,2.3C529.7,613.4,524.9,615.4,520.2,617.1z M207.3,433.4
	c-0.8-5-1.4-10.2-1.9-15.2l2.5-0.2c0.5,5,1.1,10.1,1.9,15.1L207.3,433.4z M548.2,604.7l-1.2-2.2c4.5-2.3,8.9-4.9,13.2-7.5l1.3,2.2
	C557.3,599.8,552.8,602.3,548.2,604.7z M204.5,402.8c-0.1-5.1-0.1-10.3,0.1-15.3l2.5,0.1c-0.2,5-0.2,10.1-0.1,15.2L204.5,402.8z
	 M574.5,588.7l-1.5-2.1c4.1-2.9,8.2-6,12.1-9.2l1.6,2C582.8,582.7,578.6,585.8,574.5,588.7z M205.7,372.2c0.5-5.1,1.2-10.2,2.1-15.2
	l2.5,0.4c-0.9,5-1.6,10-2.1,15L205.7,372.2z M598.4,569.4l-1.7-1.9c3.7-3.4,7.3-7,10.8-10.7l1.8,1.7
	C605.8,562.3,602.1,565.9,598.4,569.4z M210.9,341.9c1.2-5,2.6-9.9,4.1-14.8l2.4,0.8c-1.5,4.8-2.9,9.7-4,14.6L210.9,341.9z
	 M619.5,547.2l-2-1.6c3.2-3.9,6.4-7.9,9.3-12l2.1,1.5C626,539.2,622.8,543.2,619.5,547.2L619.5,547.2z M220,312.6
	c1.8-4.7,3.8-9.5,6-14.1l2.3,1.1c-2.1,4.6-4.1,9.3-5.9,14L220,312.6z M637.6,522.3l-2.1-1.4c2.7-4.2,5.3-8.7,7.7-13.1l0.3-0.5
	l2.2,1.2l-0.3,0.5C642.9,513.6,640.3,518,637.6,522.3L637.6,522.3z M235.2,286l-2.2-1.2l0.1-0.3c2.4-4.4,5-8.8,7.6-13l2.1,1.4
	c-2.6,4.2-5.2,8.5-7.5,12.8L235.2,286z M650.2,493.8c2.1-4.6,4.1-9.3,5.9-14l2.4,0.9c-1.8,4.8-3.8,9.5-6,14.1L650.2,493.8z
	 M251.3,260.3l-2.1-1.5c3-4.1,6.2-8.2,9.4-12.1l2,1.6C257.4,252.2,254.3,256.2,251.3,260.3z M661.1,465.4c1.5-4.8,2.8-9.7,4-14.6
	l2.5,0.6c-1.2,5-2.6,9.9-4.1,14.8L661.1,465.4z M270.7,236.9l-1.8-1.7c3.5-3.7,7.2-7.3,10.9-10.8l1.7,1.9
	C277.8,229.7,274.2,233.3,270.7,236.9z M668.2,435.9c0.8-5,1.5-10,2.1-15l2.5,0.3c-0.5,5.1-1.2,10.2-2.1,15.2L668.2,435.9z
	 M293,216.3l-1.6-2c4-3.2,8.1-6.3,12.3-9.3l1.5,2.1C301,210,297,213.1,293,216.3z M671.3,405.7c0.2-5,0.2-10.1,0.1-15.2l2.5-0.1
	c0.1,5.1,0.1,10.3-0.1,15.3L671.3,405.7z M317.9,198.8l-1.3-2.2c4.3-2.7,8.8-5.2,13.4-7.6l1.2,2.2
	C326.6,193.6,322.2,196.2,317.9,198.8z M670.4,375.4c-0.5-5-1.1-10.1-1.9-15.1l2.5-0.4c0.8,5,1.5,10.2,1.9,15.2L670.4,375.4z
	 M344.8,184.7l-1-2.3c4.7-2.1,9.5-4,14.2-5.8l0.9,2.4C354.1,180.7,349.4,182.6,344.8,184.7z M665.7,345.4c-1.1-4.9-2.4-9.9-3.8-14.7
	l2.4-0.7c1.5,4.9,2.8,9.9,3.9,14.9L665.7,345.4z M373.3,174.2l-0.7-2.4c4.9-1.4,9.9-2.8,14.9-3.9l0.6,2.5
	C383.1,171.4,378.1,172.7,373.3,174.2z M657,316.3c-1.7-4.7-3.7-9.5-5.7-14.1l2.3-1c2.1,4.7,4,9.4,5.8,14.2L657,316.3z M402.9,167.4
	l-0.4-2.5c5-0.8,10.2-1.4,15.2-1.9l0.2,2.5C412.9,166,407.9,166.7,402.9,167.4L402.9,167.4z M644.7,288.6c-2.3-4.5-4.9-8.9-7.5-13.2
	l2.2-1.3c2.7,4.4,5.2,8.8,7.6,13.4L644.7,288.6z M433.1,164.6l-0.1-2.5c5.1-0.1,10.2-0.1,15.3,0.1l-0.1,2.5
	C443.2,164.5,438.1,164.5,433.1,164.6z M628.8,262.6c-2.9-4.1-6-8.2-9.2-12.1l2-1.6c3.2,4,6.3,8.1,9.3,12.3L628.8,262.6z
	 M463.4,165.8l0.3-2.5c5.1,0.5,10.2,1.2,15.2,2.1l-0.4,2.5C473.5,167,468.4,166.3,463.4,165.8z M609.6,239c-3.4-3.7-7-7.3-10.7-10.8
	l1.7-1.8c3.7,3.5,7.3,7.2,10.8,10.9L609.6,239z M493.3,170.9l0.6-2.5c5,1.2,9.9,2.6,14.8,4.1L508,175
	C503.1,173.5,498.2,172.1,493.3,170.9L493.3,170.9z M587.6,218.1c-3.9-3.2-7.9-6.3-12-9.3l1.5-2.1c4.1,3,8.2,6.2,12.1,9.4
	L587.6,218.1z M522.3,180l0.9-2.4c4.7,1.8,9.5,3.8,14.1,6l-1.1,2.3C531.7,183.7,527,181.8,522.3,180L522.3,180z M563,200.3
	c-4.1-2.6-8.4-5.1-12.7-7.5l-0.4-0.2l1.2-2.2l0.4,0.2c4.4,2.4,8.7,4.9,12.9,7.5L563,200.3z"/>
<path class="st4" d="M361,540.6l1.2-2.2c4.4,2.4,8.9,4.6,13.4,6.5l-1,2.3C370,545.2,365.4,543,361,540.6z M348.1,532.8
	c-4.2-2.8-8.3-5.8-12.2-9l1.6-2c3.8,3.1,7.9,6.1,12,8.8L348.1,532.8z M388.7,552.5l0.8-2.4c4.7,1.5,9.5,2.9,14.3,3.9l-0.6,2.5
	C398.4,555.4,393.5,554.1,388.7,552.5L388.7,552.5z M324.6,513.7c-3.6-3.5-7.1-7.2-10.3-11.1l1.9-1.6c3.2,3.8,6.6,7.4,10.1,10.9
	L324.6,513.7z M418.2,559.2l0.3-2.5c4.9,0.6,9.9,1,14.8,1.2l-0.1,2.5C428.2,560.2,423.2,559.8,418.2,559.2L418.2,559.2z
	 M305.1,490.7c-2.9-4.1-5.6-8.4-8.1-12.8l2.2-1.3c2.4,4.3,5.1,8.5,8,12.6L305.1,490.7z M448.4,560.2l-0.1-2.5
	c4.9-0.3,9.9-0.8,14.8-1.5l0.4,2.5C458.4,559.4,453.4,560,448.4,560.2L448.4,560.2z M290.2,464.4c-2.1-4.6-4-9.3-5.6-14l2.4-0.8
	c1.6,4.7,3.5,9.3,5.5,13.8L290.2,464.4z M478.2,555.8l-0.6-2.5c4.8-1.2,9.6-2.6,14.3-4.2l0.8,2.4C488,553.1,483.1,554.6,478.2,555.8
	L478.2,555.8z M280.3,435.9c-1.2-4.9-2.2-9.9-2.9-14.8l2.5-0.4c0.7,4.9,1.7,9.8,2.9,14.6L280.3,435.9z M506.8,545.9l-1-2.3
	c4.5-2,9-4.3,13.3-6.8l1.3,2.2C515.9,541.5,511.4,543.8,506.8,545.9z M275.8,406c-0.3-5-0.3-10.1-0.2-15.1l2.5,0.1
	c-0.2,4.9-0.1,9.9,0.2,14.9L275.8,406z M533,531l-1.5-2.1c4-2.8,8-5.9,11.8-9.1l1.6,1.9C541.2,525,537.1,528.1,533,531z
	 M276.8,375.9c0.6-5,1.5-10,2.6-14.9l2.5,0.6c-1.1,4.8-2,9.8-2.6,14.7L276.8,375.9z M556.1,511.5l-1.8-1.8c3.5-3.5,6.8-7.3,9.9-11.1
	l2,1.6C563,504.1,559.6,507.9,556.1,511.5z M283.4,346.4c1.5-4.8,3.3-9.5,5.3-14.1l2.3,1c-2,4.5-3.7,9.2-5.2,13.9L283.4,346.4z
	 M575.1,488l-2.1-1.4c2.7-4.1,5.3-8.4,7.7-12.7l0.2-0.3l2.2,1.2l-0.2,0.3C580.5,479.5,577.9,483.9,575.1,488z M297.6,319.9l-2.2-1.2
	l0.1-0.2c2.4-4.4,5-8.7,7.7-12.8l2.1,1.4c-2.7,4-5.3,8.3-7.6,12.6L297.6,319.9z M587.4,460.2c2-4.6,3.7-9.2,5.2-13.9l2.4,0.8
	c-1.5,4.8-3.3,9.5-5.3,14.1L587.4,460.2z M314.1,295.2l-2-1.6c3.2-3.9,6.5-7.7,10.1-11.3l1.8,1.8
	C320.6,287.6,317.2,291.3,314.1,295.2z M596.5,431.9c1.1-4.8,1.9-9.8,2.6-14.7l2.5,0.3c-0.6,5-1.5,10-2.6,14.9L596.5,431.9z
	 M334.9,273.9l-1.6-1.9c3.8-3.2,7.9-6.4,12-9.2l1.5,2.1C342.6,267.7,338.7,270.7,334.9,273.9z M600.3,402.4
	c0.2-4.9,0.1-9.9-0.2-14.9l2.5-0.1c0.3,5,0.4,10.1,0.2,15.1L600.3,402.4z M359.3,256.9l-1.3-2.2c4.4-2.5,8.9-4.8,13.5-6.9l1,2.3
	C368,252.1,363.6,254.4,359.3,256.9z M598.6,372.7c-0.7-4.9-1.7-9.8-2.9-14.6l2.5-0.6c1.2,4.9,2.2,9.9,3,14.8L598.6,372.7z
	 M386.3,244.6l-0.8-2.4c4.7-1.6,9.6-3.1,14.5-4.3l0.6,2.5C395.8,241.5,391,243,386.3,244.6z M591.4,343.8c-1.6-4.7-3.5-9.3-5.5-13.8
	l2.3-1c2.1,4.6,4,9.3,5.6,14L591.4,343.8z M415.2,237.4l-0.4-2.5c5-0.8,10-1.3,15-1.6l0.1,2.5C425.1,236.2,420.1,236.7,415.2,237.4
	L415.2,237.4z M579.1,316.8c-2.4-4.3-5.1-8.5-8-12.6l2.1-1.5c2.9,4.1,5.6,8.4,8.1,12.8L579.1,316.8z M444.9,235.7l0.1-2.5
	c5,0.2,10.1,0.6,15.1,1.2l-0.3,2.5C454.8,236.3,449.8,235.9,444.9,235.7z M562,292.4c-3.2-3.8-6.6-7.4-10.2-10.9l1.8-1.8
	c3.6,3.5,7.1,7.2,10.3,11.1L562,292.4z M474.4,239.5l0.6-2.5c4.9,1.1,9.8,2.4,14.6,4l-0.8,2.4C484,241.9,479.2,240.6,474.4,239.5z
	 M540.8,271.7c-3.8-3.1-7.9-6.1-12-8.8l1.4-2.1c4.2,2.8,8.3,5.8,12.2,9L540.8,271.7z M502.7,248.7l1-2.3c4.6,2,9.2,4.2,13.6,6.6
	l-1.2,2.2C511.7,252.8,507.2,250.6,502.7,248.7L502.7,248.7z"/>
<circle class="st5" cx="439.2" cy="396.8" r="52"/>
<path class="st6" d="M619.5,466.6c-3,1.4-8.5,3.6-2.4,7c2.6,1.4,3.4,0.4,4.7-0.3c5-2.5,11.9-3.2,19.9-1.8
	c13.9,2.2,25.9,7.5,39.8,15.2c30.6,16.9,23.5,42.8,54.1,59.7c11.7,6.5,17.3,4.4,20.6,6.2c2.1,1.2,1.9,1.5,1.3,2.7
	c-2.3,4.1-18.1,2.8-25.3,1.2c-3.8-0.8-7.7-2.4-11.2-4.6c-6.7-3.7-13.3-7.8-20.1-11.6c-25.7-14.2-28,6-15.6,12.9
	c5.7,3.2,12.1,4.3,17.6,7.3c0.7,0.4,1.1,0.6,0.9,1c-1,1.7-10.1,0.8-12.8,0.4c-10.1-1.7-22.2-6.6-32.3-12.2
	c-30.9-17.1-38.3-41-44.9-44.7c-0.9-0.5-8.2-2.6-5.3,5.2c5.9,23.3,30.2,52.5,70.4,74.7c32,17.7,57.4,25.9,87.8,27
	c5,0.2,20.8,0.4,22.5-2.7c2.3-4.2-19.8-6.1-31.8-12.7c-6.2-3.2-10.1-8.6-8.6-12.1c0.1-0.3,0.2-0.5,0.4-0.7c3.3-6,28.3,5.9,36.2,9.3
	c33.9,14.8,59.1,24.1,83.8,15.1c7.7-2.7,21.7-12.6,12.5-17.7c-2.3-1.3-4.7-0.8-6.2-0.3c-7.9,1.8-26-1.2-42-10
	c-43.9-24.3-67.6-76.2-113.3-101.5c-38.3-21.3-77.2-23.8-100.7-11.7L619.5,466.6z"/>
<path class="st7" d="M613.5,460.9c-3,1.4-8.5,3.6-2.4,7c2.6,1.4,3.4,0.4,4.7-0.3c5-2.5,11.9-3.2,19.9-1.8
	c13.9,2.2,25.9,7.5,39.8,15.2c30.6,16.9,23.5,42.8,54.1,59.7c11.7,6.5,17.3,4.4,20.6,6.2c2.1,1.2,1.9,1.5,1.3,2.7
	c-2.3,4.1-18.1,2.8-25.3,1.2c-3.8-0.8-7.7-2.4-11.2-4.6c-6.7-3.7-13.3-7.8-20.1-11.6c-25.7-14.2-28,6-15.6,12.9
	c5.7,3.2,12.1,4.3,17.6,7.3c0.7,0.4,1.1,0.6,0.9,1c-1,1.7-10.1,0.8-12.8,0.4c-10.1-1.7-22.2-6.6-32.3-12.2
	c-30.9-17.1-38.3-41-44.9-44.7c-0.9-0.5-8.2-2.6-5.3,5.2c5.9,23.3,30.2,52.5,70.4,74.7c32,17.7,57.4,25.9,87.8,27
	c5,0.2,20.8,0.4,22.5-2.7c2.3-4.2-19.8-6.1-31.8-12.7c-6.2-3.2-10.1-8.6-8.6-12.1c0.1-0.3,0.2-0.5,0.4-0.7c3.3-6,28.3,5.9,36.2,9.3
	c33.9,14.8,59.1,24.1,83.8,15.1c7.7-2.7,21.7-12.6,12.5-17.7c-2.3-1.3-4.7-0.8-6.2-0.3c-7.9,1.8-26-1.2-42-10
	c-43.9-24.3-67.6-76.2-113.3-101.5c-38.3-21.3-77.2-23.8-100.7-11.7L613.5,460.9z"/>
<g>
	<path class="st8" d="M694.5,512.1c-3.2-4-3.5-28.3-7.3-38.9c-1.6-4.9-7.1-3.8-12.5-1c-1-7.8-2-16.4-3.8-21.7
		c-0.4-1.5-1.5-2.5-2.8-3.1c-7-2.4-22.4,10.7-22.4,10.7l-0.7,1.1c-4.4-0.3-12.4-5.9-15.6-8.7c-3.7-3.3-8.9-7.3-11.5-8.1
		c-2.6-0.6-26.8-14.6-41.5-21.9c-14.7-7.3-62.3-16.6-62.3-16.6l-33.6-20.1l-2.8-4.6c3.9-6.1-1.6-11.7-9.9-16.2
		c-8-12.8-16.4-24.9-21.6-26.6c15.2,4,36.1,7,46-2.9c13.6-13.7-28.5-18.2-44.9-19.4l-1.4-0.1l0.7-1.1c0,0-9.2-3.6-22.3-17.8
		c-13.1-14.1-26.6-12.9-28.5-13.4c-1.9-0.4-19.1-8.3-20.3-9c-0.9-0.6-24.3-20.2-36.2-29.8c-13.2-16.8-37.2-35.9-41-34.5
		c-4.4,1.5-31.7-4.1-31.7-4.1l-7.3-4c0,0-2.6,1.3-6.1,3c0.5-1.5,1-3,1.8-4.5c1.8-3.4,4.1-6.9,6.3-10.1l0,0c0.3-0.5,0.6-0.8,0.9-1.3
		c0.1-0.1,0.1-0.1,0.1-0.4l0.8-1.2l0.3-0.2c0.9-1.5,1.8-3,2.6-4.6l0,0c0.7-1.5,1.4-3.1,1.9-4.8l0,0c0.7-2.3,1-4.8,0.5-7
		c-0.6-3.6-2.8-6.7-4.9-9.5c-1.7-2.5-3.7-4.8-5.9-6.8c-2-1.6-4.3-2.9-6.2-4.6c-3.2-2.8-5-6.7-7.4-10.1s-5.5-6.6-9.9-7.4
		c-3.7-0.6-7.7,1-11.5,2c-7.2,2-14.5,2.8-21.7,2.2c-4.8-0.4-9.7-1.4-14.3,1.2c-4.5,2.5-6.7,7.2-9.6,11.3c-6.4,8.8-17,15.1-21.9,24.3
		l0,0c-0.1,0.1-0.3,0.5-0.3,0.7c-0.3,0.5-0.4,1.1-0.7,1.5l0,0c-0.3,0.5-0.3,0.9-0.5,1.5c-0.2,0.6-0.3,0.9-0.4,1.4
		c0,0.5-0.1,0.9-0.1,1.4c0,0.5,0,1,0.2,1.5c0.5,1.6,1.4,3,2.8,3.8l0.8,0.5l0.7,0.4c0.8,0.5,1.6,0.9,2.5,1.6c0.9,0.4,1.8,0.8,2.8,0.8
		c1.8,0.3,3.8-0.1,5.4-1.5c0.7-0.5,1.4-1.1,2-1.7l0.5-0.5l-0.4,0.6l0,0c-11,20.2-4.8,42.9,14,50.8c8.4,3.6,18.3,3.6,27.7,0.3
		l1.3,0.6c4.2,2,8.2,4.4,12.1,7.1l0,0c-0.6,1.2-0.9,2.3-1.4,3.6c-9.1,29.7,22.9,63.8,22.9,63.8s37.7,35.4,41.4,37.4
		c3.6,1.9,10.5,12,10.3,17.1s9.2,17,19.5,13.7c10.4-3.2,12.9,2.1,12.9,2.1c1.9-0.4,3.8-0.9,5.6-1.9l2.2,2.5
		c5.7,6.6,14.7,17.4,15.8,20.5c1.6,4.7,15.1,18.3,25.9,22c10.9,3.9,48.8,11.8,48.8,11.8s19,9.4,22.5,11c3.5,1.6,17.5,1,17.5,1
		l19.6,7.8c0,0,23.4,5.6,30.2,10.9c7,5.2,18.5,4.6,18.5,4.6l59.1,18.4c3,2.1,5.4,5,7.2,8.3c2.1,4.7,28.2,23.6,43.4,22.1
		c0,0,1.3-0.9,3.4-2.3c0.3,0.3,0.8,0.5,1.1,0.8c1.1,1.9,1.7,3,1.7,3c0.3,5.4,1,10.6,2.4,15.8c1.9,7.2,5.3,13.5,11.4,10.9
		c0.8-0.4,1.8-0.9,2.7-1.5c0.6,8.2,3.9,34.2,17.9,21.4C704.4,552.2,697.6,516,694.5,512.1z"/>
	<path class="st9" d="M686,517.1c-3.2-4-4.5-27-8.5-37.3c-1.7-4.8-6.9-3.9-11.9-1.5c-1.3-7.5-2.5-15.6-4.5-20.8
		c-0.5-1.4-1.5-2.5-2.8-3.1c-6.8-2.6-20.8,9.3-20.8,9.3l-0.6,1c-4.2-0.4-12-6.2-15.2-8.9c-3.7-3.3-8.7-7.3-11.3-8.1
		c-2.5-0.7-26-15-40.3-22.5c-14.3-7.5-59.8-18.3-59.8-18.3l-32.7-20.5l-2.8-4.5c3.4-5.6-2-11.2-10-15.8
		c-8.1-12.5-16.6-24.4-21.6-26.2c14.6,4.5,34.5,8.2,43.6-0.9c12.4-12.5-27.8-18.4-43.4-20.3l-1.3-0.2l0.6-1c0,0-8.9-3.8-21.8-17.8
		c-13-14-25.8-13.4-27.6-13.9c-1.8-0.5-18.5-8.6-19.6-9.4c-0.8-0.6-23.9-20.2-35.6-29.8c-13.2-16.5-36.8-35.7-40.4-34.5
		c-4.1,1.3-30.3-5.2-30.3-5.2l-7.1-4.1c0,0-2.5,1.1-5.7,2.6c0.4-1.4,0.8-2.9,1.5-4.2c1.6-3.2,3.6-6.4,5.6-9.4l0,0
		c0.2-0.4,0.6-0.8,0.8-1.2c0.1-0.1,0.1-0.1,0.1-0.3l0.7-1.1l0.2-0.2c0.8-1.4,1.6-2.8,2.3-4.3l0,0c0.6-1.4,1.2-2.9,1.6-4.5l0,0
		c0.5-2.2,0.8-4.5,0.2-6.7c-0.7-3.5-3-6.5-5-9.3c-1.7-2.5-3.7-4.7-5.9-6.7c-2-1.6-4.2-3-6.1-4.7c-3.1-2.8-5-6.5-7.4-9.9
		c-2.4-3.3-5.5-6.5-9.7-7.4c-3.6-0.7-7.2,0.6-10.9,1.4c-6.7,1.6-13.6,2.1-20.5,1.2c-4.6-0.6-9.3-1.8-13.6,0.5
		c-4.1,2.2-6.1,6.6-8.7,10.3c-5.7,8.1-15.5,13.7-19.8,22.3l0,0c-0.1,0.1-0.2,0.4-0.2,0.7c-0.2,0.4-0.4,1-0.6,1.4l0,0
		c-0.2,0.4-0.3,0.9-0.4,1.4c-0.1,0.5-0.3,0.9-0.3,1.3s0,0.9-0.1,1.3s0.1,1,0.3,1.4c0.6,1.5,1.5,2.9,2.8,3.8l0.7,0.5l0.6,0.4
		c0.7,0.5,1.6,0.9,2.4,1.6c0.9,0.4,1.7,0.8,2.7,0.9c1.7,0.4,3.6,0,5.1-1.2c0.7-0.5,1.2-1,1.8-1.6l0.5-0.4l-0.4,0.6l0,0
		c-9.6,18.8-2.8,40.6,15.3,48.9c8.1,3.7,17.5,4.2,26.3,1.4l1.3,0.6c4,2.1,8,4.5,11.8,7.3l0,0c-0.5,1.1-0.8,2.2-1.1,3.4
		c-7.4,27.9,24.3,61.6,24.3,61.6s37.3,35.2,40.8,37.2c3.5,2,10.5,11.9,10.4,16.7c0,4.8,9.5,16.6,19.1,13.8
		c9.7-2.6,12.3,2.6,12.3,2.6c1.8-0.3,3.5-0.7,5.2-1.5l2.2,2.5c5.7,6.5,14.7,17.1,15.8,20.1c1.7,4.5,15.1,18,25.5,22
		c10.5,4.1,46.8,13.2,46.8,13.2s18.4,9.7,21.8,11.4c3.4,1.7,16.6,1.7,16.6,1.7l18.9,8.2c0,0,22.4,6.3,29.1,11.5
		c6.8,5.2,17.8,5.2,17.8,5.2l56.9,19.9c3,2.1,5.3,5,7.1,8.2c2.2,4.5,27.7,23.6,42.1,22.8c0,0,1.2-0.8,3.2-2c0.3,0.3,0.7,0.5,1.1,0.8
		c1.1,1.8,1.7,2.9,1.7,2.9c0.5,5.1,1.4,10.1,2.9,15.1c2.1,6.9,5.6,13.1,11.3,10.9c0.8-0.3,1.7-0.8,2.5-1.4
		c0.9,7.8,5.1,32.7,17.9,21.1C697,555.7,689.1,520.9,686,517.1z"/>
	<path class="st10" d="M241.4,247.6c0,0-6.4-7.4-19-14.1c-4.2-2.2-8.4-4.1-13-5.7c-21.2-7.3,29.3-33.4,29.3-33.4s3.9,4,9,8.4
		c6.1,5.4,13.7,11.3,18.1,11.7C274.2,215.8,241.4,247.6,241.4,247.6z"/>
	<path class="st10" d="M482.7,342.4c-10.7,10.9-39.1,0.8-52-4.5c-4-1.7-6.5-2.8-6.5-2.8l10.5-14.2c0,0,2.2,0.3,5.8,0.8
		C455.6,323.8,494,330.9,482.7,342.4z"/>
	<path class="st11" d="M430.7,337.9c-4-1.7-6.5-2.8-6.5-2.8l10.5-14.2c0,0,2.2,0.3,5.8,0.8L430.7,337.9z"/>
	<path class="st12" d="M330.8,243.4c0,0,40.4,34.5,41.4,35.4c1.2,0.8,17.3,9.2,19.1,9.8s13.9,0.4,26.8,14.2
		c12.8,13.8,21.4,17.7,21.4,17.7l-12.5,21l-97.8-80L330.8,243.4z"/>
	<path class="st13" d="M330.8,243.4c0,0,40.4,34.5,41.4,35.4c1.2,0.8,17.3,9.2,19.1,9.8s13.9,0.4,26.8,14.2
		c12.8,13.8,21.4,17.7,21.4,17.7l-12.5,21l-97.8-80L330.8,243.4z"/>
	<path class="st14" d="M630.9,466.7c0,0,18.4-15.2,22.4-5.1c4.1,10,6.1,32.2,9.3,36.1c3.1,3.8,11.9,37.3-1.9,49.9
		c-13.9,12.5-18.1-22.8-18.1-22.8s-13.8-23.3-21.7-27.4C612.7,493.2,630.9,466.7,630.9,466.7z"/>
	<path class="st15" d="M659.8,549c-13.9,12.5-18.1-22.8-18.1-22.8s-13.8-23.3-21.7-27.4c-2.3-1.1-2.5-4.3-1.4-8.1
		c2-7.2,8-17,10.4-20.8c0.6-1,1.1-1.7,1.1-1.7s18.4-15.2,22.4-5.1c4,10.1,6.1,32.2,9.3,36.1C664.9,503.1,673.7,536.5,659.8,549z"/>
	<path class="st11" d="M637.8,494c-2.2,0.9-8.9-1-18.6-4.8c2-7.2,8-17,10.4-20.8c1.8,0.8,3.3,1,4.2,0.5
		C636.8,467,650.3,488.8,637.8,494z"/>
	<path class="st16" d="M457.8,375.8l49.8,32.2c0,0,43.8,12,57.8,19.6c14,7.7,36.7,22,39.2,22.9c2.4,0.8,7.3,5,10.9,8.2
		c3.6,3.2,13.7,10.6,16.5,8.8c2.9-1.8,16.3,19.8,3.9,25c-12.4,5.2-174.4-82.1-174.4-82.1L457.8,375.8z"/>
	<path class="st11" d="M457.8,375.8l49.8,32.2c0,0,43.8,12,57.8,19.6c14,7.7,36.7,22,39.2,22.9c2.4,0.8,7.3,5,10.9,8.2
		c3.6,3.2,13.7,10.6,16.5,8.8c2.9-1.8,16.3,19.8,3.9,25c-12.4,5.2-174.4-82.1-174.4-82.1L457.8,375.8z"/>
	<path class="st14" d="M677,569.5c-13.9,12.5-18.1-22.8-18.1-22.8s-9.6-16.3-17.5-24.1c-1.3-1.3-2.8-2.5-4.3-3.3
		c-8-4.1,10.1-30.5,10.1-30.5s1.2-0.9,3-2.3c5.4-3.8,16.4-10.4,19.4-2.8c4,10.1,6.1,32.2,9.3,36.1
		C682.3,523.5,690.8,556.9,677,569.5z"/>
	<path class="st11" d="M641.5,522.6c-1.3-1.3-2.8-2.5-4.3-3.3c-8-4.1,10.1-30.5,10.1-30.5s1.2-0.9,3-2.3c6,4,11.1,7.3,11.1,7.3
		C670.1,503.5,649.3,517.7,641.5,522.6z"/>
	<path class="st16" d="M636.7,522.8c-13.7,0.3-38.8-18.8-41-23.2c-1.8-3.1-4.3-5.9-7.1-8.1l-55-20.9c0,0-10.6-0.3-17.3-5.5
		c-6.7-5.2-28.2-12-28.2-12l-18.3-8.5c0,0-12.8-0.5-16-2.1c-3.3-1.6-21.3-11.6-21.3-11.6s-35-10-45.2-14.2
		c-10.2-4.3-23.2-17.6-25.1-21.9c-1.2-3-10.1-13.3-15.7-19.8c-2.7-3-4.6-5.1-4.6-5.1l46.9-59.8c0,0,7,4.6,16.1,10.4
		c13.1,8.3,30.3,18.9,36,21.1c9.6,3.6,34.6,47.7,40.9,54.3c6.3,6.6,48.8,29.3,48.8,29.3s63.3,18.4,71.4,26.8
		c8.1,8.3,22.3,15.6,29.8,21.3c7.5,5.8,27.7,18.7,27.7,18.7C670,504.1,636.7,522.8,636.7,522.8z"/>
	<path class="st11" d="M241,220.6c-4.6,6.2-11,10.7-18.6,12.9c-4.2-2.2-8.4-4.1-13-5.7c-21.2-7.3,29.3-33.4,29.3-33.4s3.9,4,9,8.4
		C247.2,209.3,244.8,215.4,241,220.6z"/>
	<path class="st10" d="M240,219.9c-11.6,15.7-33.9,19-49.6,7.2c-13.7-10.2-18.1-28.7-10.8-44l0,0c0.3-0.5,0.5-1.2,0.9-1.7
		c0.8-1.4,1.6-2.6,2.5-3.9c11.7-15.6,34-18.9,49.6-7.2c14.6,10.9,18.5,31,9.2,46.5C241.3,218,240.7,219,240,219.9z"/>
	<path class="st11" d="M369,352.1c-5.3,15.6-16.3,21.1-22.3,23c-2.7-3-4.6-5.1-4.6-5.1l46.9-59.8c0,0,7,4.6,16.1,10.4l0.8,0.6
		C406,321.3,376.4,329.9,369,352.1z"/>
	<path class="st12" d="M366.1,350c-7.5,22.1-26.4,24.1-26.4,24.1s-2.8-5-11.9-2.8c-9.1,2.2-18.7-9.3-18.6-14c0-4.5-7-14.3-10.5-16.3
		c-3.5-2.1-40.2-37-40.2-37s-31.5-33.4-25.4-59.8c0.2-1.1,0.6-2.2,0.9-3.2c0,0,7.4-23.5,10.6-27c1.3-1.5,4.1-3.1,7.2-4.8
		c4.7-2.5,9.9-4.6,9.9-4.6l6.9,4.1c0,0,25.3,7.3,29.1,6.1c3.8-1.2,33.7,24.1,44.7,41.2c11,17.1,37.5,43.4,37.5,43.4l23.2,20.2
		C403,319.2,373.5,327.9,366.1,350z"/>
	<path class="st11" d="M309.1,342.7c4.5,2.1,9,3.7,13.9,5C330.9,349.9,309.1,342.7,309.1,342.7z"/>
	<path class="st11" d="M266.7,227.9c0,0-9.5,30.3,19.5,47c29.1,16.5,41.1,38.7,41.1,38.7s22.3,20.3,27.8,22.8
		c8.1,3.8,15.9,7.9,23.4,12.7c4,2.8,10,6.2,14.8,8.7c4.8,2.6,28.6,18.6,28.6,18.6s8-20.1,12.7-18.9c0,0-23.4-15.8-22.1-17.5
		c1.2-1.6-19.5-24.7-22.7-25c-3.2-0.5-24-18.8-26.3-19.9c-2.3-1.1-34.8-29.1-34.8-29.1S302.4,201.6,266.7,227.9z"/>
	<path class="st10" d="M428.3,353.8c0,0,56,15.7,43.5,30.5c-12.6,14.7-51.9-15.6-51.9-15.6L428.3,353.8z"/>
	<path class="st11" d="M269.8,225.7c0,0-9.5,30.3,19.5,47c29.1,16.5,41.1,38.7,41.1,38.7s22.3,20.3,27.7,22.7
		c8.1,3.8,16,8,23.4,12.7c4,2.8,10,6.2,14.8,8.7c4.8,2.6,28.6,18.6,28.6,18.6s8-20.1,12.7-18.9c0,0-23.4-15.8-22.1-17.5
		c1.2-1.6-19.5-24.7-22.7-25c-3.3-0.4-24-18.8-26.3-19.9c-2.3-1.1-34.8-29.1-34.8-29.1S305.6,199.3,269.8,225.7z"/>
	<path class="st12" d="M268.1,225.9c0,0-9.5,30.3,19.5,47c29.1,16.5,41.1,38.7,41.1,38.7s22.3,20.3,27.7,22.7
		c8.1,3.8,16,8,23.4,12.7c4,2.8,10,6.2,14.8,8.7c4.8,2.6,28.6,18.6,28.6,18.6s8-20.1,12.7-18.9c0,0-23.4-15.8-22.1-17.5
		c1.2-1.6-19.5-24.7-22.7-25c-3.2-0.5-24-18.8-26.3-19.9c-2.4-1.2-34.8-29.1-34.8-29.1S303.8,199.6,268.1,225.9z"/>
	<path class="st11" d="M345.8,296.9c0.7-1.3,5.9,4.9,19.2,14.3c13.4,9.3,37.5,23.5,37.5,23.5S341.4,306.2,345.8,296.9z"/>
	<path class="st11" d="M309.1,246.4c0,0-1.1,2.1-9.8-0.2"/>
	<path class="st11" d="M318.3,260.3c-2.4,3.8-7.4,5.1-11.3,3.1"/>
	<path class="st11" d="M234.6,243.7l0.2,8.6c0,0,2.1,7.3,1.3,9.2c-0.9,1.9,8.8,11.4,8.8,11.4l3.9,18.1l1.9-11.3
		c2.8,4.8,7.6,8,13.1,8.7c9.4,1.5,30.6,2.1,30.6,2.1l34.4,4.7l10.2-9.3l-12.6-17.8l-71.4-0.5l-9.1-7l-7.5-9.6L234.6,243.7z"/>
	<path class="st16" d="M234.5,242l0.2,8.6c0,0,2.1,7.3,1.3,9.2c-0.9,1.9,8.8,11.4,8.8,11.4l3.9,18.1l1.9-11.3
		c2.8,4.8,7.6,8,13.1,8.7c9.4,1.5,30.6,2.1,30.6,2.1l34.3,4.8l10.2-9.3l-12.6-17.8l-71.4-0.5l-9.1-7l-7.5-9.6L234.5,242z"/>
	<path class="st11" d="M248.3,251.9l-14.1-5.5c0.2-1.1,0.6-2.2,0.9-3.2c0,0,7.4-23.5,10.6-27c1.3-1.5,4.1-3.1,7.2-4.8L248.3,251.9z"
		/>
	<path class="st12" d="M247,249.6l-14.1-5.5c0.2-1.1,0.6-2.2,0.9-3.2c0,0,7.4-23.5,10.6-27c1.3-1.5,4.1-3.1,7.2-4.8L247,249.6z"/>
	
		<linearGradient id="SVGID_1_" gradientUnits="userSpaceOnUse" x1="178.5455" y1="422.0651" x2="249.2474" y2="422.0651" gradientTransform="matrix(0.8022 0.597 -0.597 0.8022 300.4281 -279.1194)">
		<stop  offset="0" style="stop-color:#808080;stop-opacity:0.25"/>
		<stop  offset="0.54" style="stop-color:#808080;stop-opacity:0.12"/>
		<stop  offset="1" style="stop-color:#808080;stop-opacity:0.1"/>
	</linearGradient>
	<path class="st17" d="M242,216.9c-1,0.1-1.9,0-2.7-0.2c-2.2-0.8-3.2-3.3-5-4.9c-1.8-1.6-4.3-2.5-6.2-4c-1.1-1.2-2.3-2.6-3.1-4.1
		c-1.8-2.7-3.9-5.5-7.1-6.6s-7.2,0.3-8,3.4c-3.3,0.5-6.4-1.5-8.4-4.1c-4.6-6.2-4.4-15.4-13.3-17.3c-4-0.9-6.3,1.7-8.6,4
		c0.3-0.5,0.5-1.2,0.9-1.7c0.8-1.4,1.6-2.6,2.5-3.9c11.7-15.6,34-18.9,49.6-7.2C247.2,181.2,251.1,201.3,242,216.9L242,216.9z"/>
	<path class="st7" d="M173,185.4c-1.8-0.6-3.5-1.4-4.9-2.5c-1.9-1.1-3.3-2.8-4.2-4.7c-0.4-1.7-0.4-3.6,0.4-5.2
		c3.2-9.4,13.3-14.4,19.1-22.6c2.4-3.4,4.2-7.7,7.8-9.5c3.7-2,8.6-0.8,12.9,0c6.4,1,13,0.9,19.5-0.4c3.5-0.7,6.9-1.7,10.3-1
		c4,0.9,7,4,9.4,7.3c2.4,3.3,4.4,7,7.4,9.7c1.9,1.7,4.2,3,6.1,4.7c2.2,2,4.2,4.3,5.8,6.6c2.1,2.8,4.4,5.6,5.1,9
		c1.4,5.9-1.8,12-5.2,17.2c-3.3,5.1-7,10.8-6.7,16.9c0.2,0.8,0.1,1.8-0.4,2.6c-0.7,0.7-1.6,1.1-2.7,1.1l-9.1,1.2
		c-1.4,0.3-2.6,0.3-3.9-0.2c-2.2-0.8-3.2-3.3-5-4.9s-4.2-2.4-6.2-4c-1.1-1.2-2.3-2.6-3.1-4.1c-1.8-2.7-3.9-5.5-7-6.5
		c-3.1-1-7.2,0.3-8,3.4c-3.3,0.5-6.4-1.5-8.4-4.1c-4.6-6.2-4.4-15.4-13.3-17.3C181.6,176.4,179.9,187.1,173,185.4z"/>
	<g class="st18">
		<path d="M264,190c-2.6,4-5.4,8.2-6.3,12.6c1.4-3,3.1-6,5.1-8.7c2.4-3.4,4-7,5.1-10.8C266.7,185.5,265.4,187.8,264,190z"/>
		<path d="M255.9,210.9l-0.1-0.5c-0.6,0.2-1.2,0.3-1.7,0.4l-9.1,1.2c-1.4,0.3-2.6,0.3-3.9-0.2c-2.2-0.8-3.2-3.3-5-4.9
			s-4.2-2.4-6.2-4c-1.1-1.2-2.3-2.6-3.1-4.1c-1.8-2.7-3.9-5.5-7.1-6.6s-7.2,0.3-8,3.4c-3.3,0.5-6.4-1.5-8.4-4.1
			c-4.6-6.2-4.4-15.4-13.3-17.3c-7.4-1.6-9.2,9-16.1,7.3c-1.8-0.6-3.5-1.4-4.9-2.5c-1.8-1.2-3.6-2.6-4.2-4.7c-0.3-1-0.4-2.1-0.2-3.2
			c-0.2,0.6-0.7,1.3-0.8,2c-0.7,1.7-0.8,3.5-0.4,5.2c0.8,1.9,2.3,3.6,4.2,4.7c1.5,1.1,3.1,1.9,4.9,2.5c6.8,1.7,8.6-9,16.1-7.3
			c9,1.9,8.7,11.1,13.3,17.3c2,2.7,5.1,4.6,8.4,4.1c0.8-3.3,4.9-4.6,8-3.4c3.2,1.1,5.2,3.9,7,6.5c0.8,1.5,1.9,2.8,3.1,4.1
			c1.8,1.6,4.3,2.3,6.2,4c1.8,1.6,2.7,4.1,5,4.9c1.3,0.4,2.6,0.4,3.9,0.2l9.1-1.2c1.1,0,1.9-0.4,2.7-1.1
			C256,212.7,256.1,211.7,255.9,210.9z"/>
	</g>
	<g>
		<path class="st19" d="M434.7,360.2l-10.6,3.4c-0.1,1,0,2,0.4,2.9l11.5-3.7C435.8,361.8,435.4,360.9,434.7,360.2z"/>
		<path class="st7" d="M434.7,360.2l2.4-4.2l-3.4-2l-2.4,4.2C432.6,358.4,433.8,359.1,434.7,360.2z"/>
		<path class="st7" d="M425.6,368l-2.5,4.3l3.4,2l2.5-4.3C427.7,369.7,426.5,369,425.6,368z"/>
		<circle class="st7" cx="430.2" cy="364.1" r="6.1"/>
		<path class="st20" d="M426.5,361.9c-1.2,2-0.5,4.7,1.5,5.8v0l4.3-7.4C430.3,359.2,427.7,359.9,426.5,361.9z"/>
		<path class="st21" d="M432.3,360.4l-4.3,7.4c2,1.2,4.7,0.5,5.8-1.5C435,364.2,434.4,361.6,432.3,360.4L432.3,360.4L432.3,360.4z"
			/>
		<circle cx="430.1" cy="364.3" r="0.6"/>
		<polygon points="431.1,362.4 430.7,363.5 430.2,364.6 430,364.4 429.7,364.3 430.4,363.3 		"/>
		<polygon points="433.1,366.1 431.4,365.2 429.7,364.3 429.8,364.1 429.9,364 431.5,365 		"/>
	</g>
</g>
<g>
	
		<ellipse transform="matrix(0.1602 -0.9871 0.9871 0.1602 -67.6941 150.002)" class="st22" cx="54.3" cy="114.8" rx="16.9" ry="16.9"/>
	<circle class="st22" cx="134.4" cy="30.8" r="9.3"/>
	<path class="st11" d="M513.9,425c0,0,0.2,16.4-2.4,17.7C508.8,443.9,513.9,425,513.9,425z"/>
	<path class="st11" d="M539.1,434c0,0,0.2,10.2-1.5,11.2"/>
	<path class="st11" d="M575.4,430.5c0,0,3.2,6.4,0,7.7"/>
	<path class="st11" d="M581.6,431.3c0,0,2.2,11.4-1.2,12.5"/>
	<path class="st11" d="M683.1,458.2c0,0-6.3,13.9-1.7,14.8S683.1,458.2,683.1,458.2z"/>
	<path class="st22" d="M407.9,59.2H421c-5.1-0.1-9-4.4-8.9-9.5c0.1-4.8,4.1-8.8,8.9-8.9h105.9c5.1,0.1,9,4.4,8.9,9.5
		c-0.1,4.8-4.1,8.8-8.9,8.9h-13.1c5.1,0,9.1,4.1,9.1,9.1s-4.1,9.1-9.1,9.1h18.3c5.1,0.1,9,4.4,8.9,9.5c-0.1,4.8-4.1,8.8-8.9,8.9
		H426.2c-5.1-0.1-9-4.4-8.9-9.5c0.1-4.8,4.1-8.8,8.9-8.9h-18.3c-5.1,0-9.1-4.1-9.1-9.1C398.6,63.4,402.8,59.2,407.9,59.2z"/>
	<path class="st22" d="M558.9,199.7h13.1c-5.1,0-9.1-4.1-9.1-9.1c0-5.1,4.1-9.1,9.1-9.1h105.9c5.1,0,9.1,4.1,9.1,9.1
		c0,5.1-4.1,9.1-9.1,9.1l0,0h-13.1c5.1,0,9.1,4.1,9.1,9.1c0,5.1-4.1,9.1-9.1,9.1h18.4c5.1,0.1,9,4.4,8.9,9.5
		c-0.1,4.8-4.1,8.8-8.9,8.9H577.3c-5.1-0.1-9-4.4-8.9-9.5c0.1-4.8,4.1-8.8,8.9-8.9H559c-5.1,0-9.1-4.1-9.1-9.1
		C549.9,203.7,553.9,199.7,558.9,199.7L558.9,199.7z"/>
	<path class="st22" d="M405.3,637.9h6.1c-2.4,0-4.3-1.9-4.3-4.3s1.9-4.3,4.3-4.3h50.4c2.4,0,4.3,1.9,4.3,4.3s-1.9,4.3-4.3,4.3h-6.1
		c2.4,0,4.3,1.9,4.3,4.3s-1.9,4.3-4.3,4.3h8.6c2.4,0,4.3,1.9,4.3,4.3s-1.9,4.3-4.3,4.3h-50.2c-2.4,0-4.3-1.9-4.3-4.3
		s1.9-4.3,4.3-4.3h-8.6c-2.4,0-4.3-1.9-4.3-4.3S402.9,637.9,405.3,637.9z"/>
	<path class="st22" d="M267.2,711.7h4.9c-1.9-0.1-3.4-1.8-3.3-3.7c0.1-1.8,1.5-3.2,3.3-3.3h40.1c1.9,0.1,3.4,1.8,3.3,3.7
		c-0.1,1.8-1.5,3.2-3.3,3.3h-4.9c1.9,0.1,3.4,1.8,3.3,3.7c-0.1,1.8-1.5,3.2-3.3,3.3h7c1.9,0.1,3.4,1.8,3.3,3.7
		c-0.1,1.8-1.5,3.2-3.3,3.3H274c-1.9,0.1-3.6-1.4-3.7-3.3s1.4-3.6,3.3-3.7c0.1,0,0.3,0,0.4,0h-7c-1.9,0.1-3.6-1.4-3.7-3.3
		s1.4-3.6,3.3-3.7C266.9,711.7,267,711.7,267.2,711.7L267.2,711.7z"/>
	<path class="st22" d="M97.9,582.7h6.2c-2.4,0-4.3-1.9-4.3-4.3s1.9-4.3,4.3-4.3l0,0h50.1c2.4,0,4.3,1.9,4.3,4.3s-1.9,4.3-4.3,4.3
		h-6.1c2.4,0,4.3,1.9,4.3,4.3s-1.9,4.3-4.3,4.3h8.6c2.4,0,4.3,1.9,4.3,4.3s-1.9,4.3-4.3,4.3h-50.2c-2.4,0-4.3-1.9-4.3-4.3
		s1.9-4.3,4.3-4.3h-8.6c-2.4,0-4.3-1.9-4.3-4.3S95.5,582.7,97.9,582.7L97.9,582.7z"/>
	<path class="st22" d="M535.7,718.3h6.1c-2.4,0-4.3-1.9-4.3-4.3s1.9-4.3,4.3-4.3H592c2.4,0,4.3,1.9,4.3,4.3s-1.9,4.3-4.3,4.3h-6.1
		c2.4,0,4.3,1.9,4.3,4.3s-1.9,4.3-4.3,4.3h8.6c2.4,0.1,4.2,2.2,4.1,4.6c-0.1,2.3-1.9,4.1-4.1,4.1h-50.2c-2.4,0.1-4.4-1.8-4.6-4.1
		c-0.1-2.4,1.8-4.4,4.1-4.6c0.1,0,0.3,0,0.4,0h-8.6c-2.4,0-4.3-1.9-4.3-4.3S533.2,718.3,535.7,718.3L535.7,718.3z"/>
	<path class="st23" d="M642.8,378.3c1.2-0.8,1.6-2.4,1-3.8c-0.1-0.1-0.1-0.2-0.1-0.3l0,0c-0.1-0.8,0.3-1.6,1.1-1.7
		c0.5-0.2,1,0,1.4,0.3l0,0c0.1,0.1,0.2,0.2,0.2,0.2c0.8,1.2,2.4,1.6,3.8,1c0.1-0.1,0.2-0.1,0.3-0.1l0,0c0.8-0.1,1.6,0.3,1.7,1.1
		c0.2,0.5,0,1-0.3,1.3l0,0c-0.1,0.1-0.2,0.2-0.2,0.2c-1.2,0.8-1.6,2.4-1,3.8c0.1,0.1,0.1,0.2,0.1,0.3l0,0c0.1,0.8-0.3,1.6-1.1,1.7
		c-0.5,0.2-1,0-1.3-0.3l0,0c-0.1-0.1-0.2-0.2-0.2-0.2c-0.8-1.2-2.4-1.6-3.8-1c-0.1,0.1-0.2,0.1-0.3,0.1l0,0
		c-0.8,0.1-1.6-0.3-1.7-1.1c-0.2-0.5,0-1,0.3-1.4l0,0C642.6,378.4,642.7,378.4,642.8,378.3z"/>
	<path class="st23" d="M810.6,759.8c0.6-1.3,0.3-2.9-0.9-3.8c-0.1,0-0.1-0.1-0.3-0.3l0,0c-0.5-0.6-0.5-1.5,0.1-2
		c0.4-0.4,0.9-0.5,1.4-0.4l0,0c0.1,0,0.3,0.1,0.3,0.1c1.3,0.6,2.9,0.3,3.8-0.9c0-0.1,0.1-0.1,0.3-0.3l0,0c0.6-0.5,1.5-0.5,2,0.1
		c0.4,0.4,0.5,0.9,0.4,1.4l0,0c0,0.1-0.1,0.3-0.1,0.3c-0.6,1.3-0.3,2.9,0.9,3.8c0.1,0,0.1,0.1,0.3,0.3l0,0c0.5,0.6,0.4,1.5-0.3,2
		c-0.4,0.3-0.8,0.4-1.1,0.3l0,0c-0.1,0-0.3,0-0.3-0.1c-1.3-0.6-2.9-0.3-3.8,0.9c0,0.1-0.1,0.1-0.3,0.3l0,0c-0.6,0.5-1.5,0.5-2-0.1
		c-0.4-0.4-0.5-0.9-0.4-1.3l0,0C810.6,760,810.6,759.9,810.6,759.8z"/>
	<path class="st23" d="M271,216.7c0.6-1.3,0.3-2.9-0.9-3.8c-0.1,0-0.1-0.1-0.3-0.3l0,0c-0.5-0.6-0.5-1.5,0.1-2
		c0.4-0.4,0.9-0.5,1.4-0.4l0,0c0.1,0,0.3,0.1,0.3,0.1c1.3,0.6,2.9,0.3,3.8-0.9c0-0.1,0.1-0.1,0.3-0.3l0,0c0.6-0.5,1.5-0.5,2,0.1
		c0.4,0.4,0.5,0.9,0.4,1.4l0,0c0,0.1-0.1,0.3-0.1,0.3c-0.6,1.3-0.3,2.9,0.9,3.8c0.1,0,0.1,0.1,0.3,0.3l0,0c0.5,0.6,0.5,1.5-0.1,2
		c-0.4,0.4-0.9,0.5-1.4,0.4l0,0c-0.1,0-0.3-0.1-0.3-0.1c-1.3-0.6-2.9-0.3-3.8,0.9c0,0.1-0.1,0.1-0.3,0.3l0,0c-0.6,0.5-1.5,0.5-2-0.1
		c-0.4-0.4-0.5-0.9-0.4-1.3l0,0C270.9,216.8,271,216.8,271,216.7z"/>
	<path class="st23" d="M90.2,337.1c0.6-1.3,0.3-2.9-0.9-3.8c-0.1,0-0.1-0.1-0.3-0.3l0,0c-0.5-0.6-0.5-1.5,0.1-2
		c0.4-0.4,0.9-0.5,1.4-0.4l0,0c0.1,0,0.3,0.1,0.3,0.1c1.3,0.6,2.9,0.3,3.8-0.9c0-0.1,0.1-0.1,0.3-0.3l0,0c0.6-0.5,1.5-0.5,2,0.1
		c0.4,0.4,0.5,0.9,0.4,1.4l0,0c0,0.1-0.1,0.3-0.1,0.3c-0.6,1.3-0.3,2.9,0.9,3.8c0.1,0,0.1,0.1,0.3,0.3l0,0c0.5,0.6,0.5,1.5-0.1,2
		c-0.4,0.4-0.9,0.5-1.4,0.4l0,0c-0.1,0-0.3-0.1-0.3-0.1c-1.3-0.6-2.9-0.3-3.8,0.9c0,0.1-0.1,0.1-0.3,0.3l0,0c-0.6,0.5-1.5,0.5-2-0.1
		c-0.4-0.4-0.5-0.9-0.4-1.4l0,0C90,337.4,90,337.2,90.2,337.1z"/>
	<path class="st23" d="M373.1,179.6c0.5-1.4,0-2.9-1.4-3.7c-0.1,0-0.3-0.1-0.3-0.1l0,0c-0.6-0.5-0.6-1.4-0.1-2
		c0.4-0.4,0.8-0.6,1.3-0.5l0,0c0.1,0,0.3,0,0.4,0.1c1.4,0.5,2.9,0,3.7-1.4c0-0.1,0.1-0.3,0.1-0.3l0,0c0.5-0.6,1.5-0.6,2-0.1
		c0.4,0.4,0.5,0.8,0.5,1.3l0,0c0,0.1,0,0.3-0.1,0.4c-0.5,1.4,0.1,2.9,1.4,3.7c0.1,0,0.1,0.1,0.3,0.1l0,0c0.6,0.5,0.6,1.5,0.1,2
		c-0.4,0.4-0.8,0.5-1.3,0.5l0,0c-0.1,0-0.3,0-0.4-0.1c-1.4-0.5-2.9,0-3.7,1.4c0,0.1-0.1,0.1-0.1,0.3l0,0c-0.5,0.6-1.5,0.6-2,0.1
		c-0.4-0.4-0.5-0.8-0.5-1.3l0,0C373.1,179.8,373.1,179.6,373.1,179.6z"/>
	<path class="st23" d="M834.6,496.5c1.9-0.8,2.9-2.9,2.3-4.9c0-0.1-0.1-0.3-0.1-0.5l0,0c0-1.1,0.9-2,2-2.2c0.6,0,1.3,0.3,1.6,0.8
		l0,0c0.1,0.1,0.1,0.3,0.3,0.4c0.8,1.9,2.9,2.9,4.9,2.3c0.1,0,0.3-0.1,0.5-0.1l0,0c1.1,0,2,0.9,2.2,2c0,0.6-0.3,1.3-0.8,1.6l0,0
		c-0.1,0.1-0.3,0.1-0.4,0.3c-1.9,0.9-2.8,2.9-2.3,4.9c0,0.1,0.1,0.3,0.1,0.5l0,0c0,1.1-0.9,2-2,2.2c-0.6,0-1.3-0.3-1.6-0.8l0,0
		c-0.1-0.1-0.1-0.3-0.3-0.4c-0.8-1.9-2.9-2.9-4.9-2.3c-0.1,0-0.3,0.1-0.5,0.1l0,0c-1.1,0-2-0.9-2.2-2c0-0.6,0.3-1.3,0.8-1.6l0,0
		C834.3,496.6,834.5,496.5,834.6,496.5z"/>
	<path class="st23" d="M210.1,535.3c1.9-0.9,2.8-2.9,2.3-4.9c0-0.1-0.1-0.3-0.1-0.4l0,0c0-1.1,0.9-2,2-2.2c0.6,0,1.3,0.3,1.6,0.8
		l0,0c0.1,0.1,0.1,0.3,0.3,0.4c0.8,1.9,2.9,2.9,4.9,2.3c0.1,0,0.3-0.1,0.4-0.1l0,0c1.1,0,2,0.9,2.2,2c0,0.6-0.3,1.3-0.8,1.6l0,0
		c-0.1,0.1-0.3,0.1-0.4,0.3c-1.9,0.8-2.9,2.9-2.3,4.9c0,0.1,0.1,0.3,0.1,0.5l0,0c0,1.1-0.9,2-2,2.2c-0.6,0-1.3-0.3-1.6-0.8l0,0
		c-0.1-0.1-0.1-0.3-0.3-0.4c-0.9-1.9-2.9-2.8-4.9-2.3c-0.1,0-0.3,0.1-0.5,0.1l0,0c-1.1,0-2-0.9-2.2-2c0-0.6,0.3-1.3,0.8-1.6l0,0
		C209.8,535.4,209.9,535.3,210.1,535.3z"/>
	<path class="st23" d="M405.2,545.2c1.9-0.8,2.9-2.9,2.3-4.9c0-0.1-0.1-0.3-0.1-0.5l0,0c0-1.1,0.9-2,2-2.2c0.6,0,1.3,0.3,1.6,0.8
		l0,0c0.1,0.1,0.1,0.3,0.3,0.4c0.8,1.9,2.9,2.8,4.9,2.3c0.1,0,0.3-0.1,0.5-0.1l0,0c1.1,0,2,0.9,2.2,2c0,0.6-0.3,1.3-0.8,1.6l0,0
		c-0.1,0.1-0.3,0.1-0.4,0.3c-1.9,0.8-2.9,2.9-2.3,4.9c0,0.1,0.1,0.3,0.1,0.5l0,0c0,1.1-0.9,2-2,2.2c-0.6,0-1.3-0.3-1.6-0.8l0,0
		c-0.1-0.1-0.1-0.3-0.3-0.4c-0.9-1.9-2.9-2.8-4.9-2.3c-0.1,0-0.3,0.1-0.5,0.1l0,0c-1.1,0-2-0.9-2.2-2c0-0.6,0.3-1.3,0.8-1.6l0,0
		C405,545.3,405.1,545.3,405.2,545.2z"/>
	<circle class="st22" cx="848.2" cy="105.5" r="16.9"/>
</g>
<g>
	<path class="st23" d="M873.7,678.6c1-1,1.2-2.7,0.5-3.9c-0.1,0-0.1-0.2-0.2-0.3l0,0c-0.3-0.8,0-1.6,0.8-1.9c0.5-0.2,1-0.2,1.4,0.1
		l0,0c0.1,0,0.2,0.2,0.2,0.2c1,1,2.7,1.2,3.9,0.5c0-0.1,0.2-0.1,0.3-0.2l0,0c0.8-0.3,1.6,0,1.9,0.8c0.2,0.5,0.2,1-0.1,1.3l0,0
		c0,0.1-0.2,0.2-0.2,0.2c-1,1-1.2,2.7-0.5,3.9c0.1,0,0.1,0.2,0.2,0.3l0,0c0.3,0.8,0,1.6-0.8,1.9c-0.5,0.2-1,0.2-1.3-0.1l0,0
		c-0.1,0-0.2-0.2-0.2-0.2c-1-1-2.7-1.2-3.9-0.5c-0.2,0.1-0.2,0.1-0.3,0.2l0,0c-0.8,0.3-1.6,0-1.9-0.8c-0.2-0.5-0.2-1,0.1-1.4l0,0
		C873.5,678.8,873.5,678.6,873.7,678.6z"/>
	<circle class="st22" cx="843.1" cy="788.5" r="9.3"/>
</g>
<g>
	<circle class="st22" cx="81.3" cy="725.7" r="9.3"/>
	<circle class="st22" cx="116.7" cy="767.2" r="9.3"/>
	<circle class="st22" cx="47.4" cy="792.3" r="9.3"/>
</g>
</svg>
