<?xml version="1.0" encoding="utf-8"?>
<!-- Generator: Adobe Illustrator 25.3.1, SVG Export Plug-In . SVG Version: 6.00 Build 0)  -->
<svg version="1.1" id="f1b25b43-9e03-45b3-af71-047f5bd7d8f3"
	 xmlns="http://www.w3.org/2000/svg" xmlns:xlink="http://www.w3.org/1999/xlink" x="0px" y="0px" viewBox="0 0 1186.7 886"
	 style="enable-background:new 0 0 1186.7 886;" xml:space="preserve">
<style type="text/css">
	.st0{fill:#D39972;}
	.st1{fill:#F2F2F2;}
	.st2{fill:#1D2B72;}
	.st3{fill:#E6E6E6;}
	.st4{fill:#2F2E41;}
	.st5{fill:#03082D;}
	.st6{fill:#2EBC7F;}
	.st7{fill:#49E287;}
	.st8{fill:#A5A5A5;}
	.st9{opacity:8.000000e-02;}
	.st10{fill:#FFD039;}
	.st11{fill:#FFFFFF;}
</style>
<g>
	<path class="st0" d="M352.7,395.6c-11.3-9.9-6.4-26.6,10.9-37.5c1.8-1.2,3.8-2.2,5.8-3.2l-8.9-89.4l60,12.6l-0.7,83
		c6.8,12.2-3.5,28.8-23.1,37C380.3,405,362.1,403.9,352.7,395.6L352.7,395.6z"/>
	<path class="st1" d="M875.3,458.1c0.1,91.7-35.3,179.8-98.8,245.9c-3.8,4-7.8,7.9-11.8,11.7c-6.1,5.8-12.5,11.5-19.1,16.9
		c-61.4,50.6-138,79-217.6,80.7c-2.6,0.1-5.3,0.1-8,0.1c-63.4,0-143.2-33.9-215.6-80.8c-6-3.9-11.9-7.9-17.8-11.9
		c-2.8-1.9-5.5-3.8-8.2-5.7c-27.9-19.7-54.4-41.4-79.3-64.8c-16.3-15.3-31.6-31.6-45.8-48.9c-55.6-68.6-67.9-130.4,11.4-143.2
		c9.4-1.5,18.5-3.1,27.3-4.8c12.8-2.5,25.1-5.1,36.8-8c15.8-3.8,30.6-8,44.4-12.5c4.7-1.5,9.2-3,13.7-4.6
		c65.7-23.1,109.7-53.2,139.7-85.9c5.1-5.5,9.8-11.1,14-16.8c6.6-8.6,12.5-17.7,17.8-27.1c7.3-13.1,13.5-26.9,18.4-41l0.3-0.8
		c23.8-68.7,16.6-132.5,42.9-153.8c112.4-91.2,252.3,38.7,318,191.9c3.3,7.7,6.4,15.5,9.3,23.3c1.3,3.5,2.6,7,3.8,10.5
		c3.2,9.1,6.1,18.3,8.7,27.5c1,3.5,2,7,2.9,10.5c1,3.8,1.9,7.5,2.8,11.3C871.8,405.3,875.3,432.4,875.3,458.1z"/>
	<path class="st2" d="M523,812.4c-2.6,0.1-5.2,0.1-7.8,0.1c-62.4,0-140.8-33.9-212.1-80.8c-5.9-3.9-11.7-7.8-17.5-11.9l5.1-31.4
		l153.6-20.7l77.6,64L523,812.4z"/>
	<path class="st3" d="M535.5,328.5h-22.3c-1.4,0-2.6,1.2-2.6,2.6v22.3c0,1.4,1.2,2.6,2.6,2.6c0,0,0,0,0,0h22.3
		c1.4,0,2.6-1.2,2.6-2.6v-22.3C538.1,329.7,536.9,328.5,535.5,328.5z"/>
	<path class="st3" d="M538,368.6c-0.2-1.2-1.3-2.1-2.6-2.1h-22.3c-1.4,0-2.6,1.2-2.6,2.6v22.3c0,1.4,1.2,2.6,2.6,2.6c0,0,0,0,0,0
		h22.3c1.4,0,2.6-1.2,2.6-2.6v-22.3C538.1,368.9,538.1,368.8,538,368.6z"/>
	<path class="st3" d="M536.5,404.6c-0.3-0.1-0.7-0.2-1-0.2h-22.3c-1.4,0-2.6,1.2-2.6,2.6c0,0,0,0,0,0v22.3c0,1.4,1.1,2.6,2.6,2.6
		c0,0,0,0,0,0h22.3c1.4,0,2.6-1.2,2.6-2.6V407C538.1,406,537.4,405,536.5,404.6z"/>
	<path class="st3" d="M582.2,404.4H560c-1.4,0-2.6,1.2-2.6,2.6c0,0,0,0,0,0v22.3c0,1.4,1.2,2.6,2.6,2.6c0,0,0,0,0,0h22.3
		c1.4,0,2.6-1.2,2.6-2.6V407C584.8,405.6,583.7,404.4,582.2,404.4z"/>
	<polygon class="st4" points="444.5,732.6 443.9,732.6 444.4,732.5 	"/>
	<circle id="b6132315-04e2-4cdb-a713-107c9cd58b0b" class="st0" cx="391.2" cy="249.3" r="68.3"/>
	<path id="f4304bdd-ba2d-4fff-b404-410205410c5d" class="st5" d="M451,199.2c0,0,17.9-34.2-21.4-37.3c0,0-33.5-30.4-67.7-5.6
		c0,0-18.6,0-28.8,21.1c0,0-14.7-5.6-17.9,9.3c0,0-10.7,31.1,0,59c10.7,27.9,14.3,31.1,14.3,31.1s-17.6-58.6,25.3-61.7
		s90.9-29.9,94.5,4.3s9,42.6,9,42.6S492.1,213.2,451,199.2z"/>
	<path class="st6" d="M567.9,417.7l-0.2,1.2l-2.5,13l-17.1,90.2l-1,5.3l-2.1,11.2l-2.9,15.3l-6.4,34l-1.8,9.7l-0.7,3.6l-0.2,1.3
		l-1.9,10.1l-0.6,3l-4.7,34.5l-4.1,30.1l13.6,13.6l-8.1,8.1l-5.3,30.5l0,0.1H304.4c-8.8-5.7-17.5-11.6-26-17.6l1.8-13.4
		c0,0,6.2-23.9,3.6-26.8c-2.6-2.9-8.2-8-8.2-8l7.1-16.6l1-2.3l-1.7-34.4l0-0.8l-0.5-11.4l-0.1-1.5l-0.1-2.2l-2.1-43.7l0-0.7
		l-0.6-13.2l-0.6-12.6l-0.3-5.3l-2.6-53.1l-1.7-36.1l-1.5-31.4l6.1-2.1l65.4-22.2l27.1-35.2l56.3,0.4l27.6,0.2l46,42.7l10.5,5l0.1,0
		l7.5,3.6l19,9.1l20.1,9.6l10.3,4.9L567.9,417.7z"/>
	<path class="st0" d="M377.5,630.1c-15.6,6-33.1-1.7-39.2-17.3c-0.6-1.7-1.1-3.4-1.5-5.1l-106.6-15.1l37-41.9l95.5,20.8
		c16.7-2.1,31.9,9.7,34.1,26.4C398.7,611.8,390.6,625.1,377.5,630.1L377.5,630.1z"/>
	<path class="st7" d="M330,553.9c-2-2.5-4.8-4.2-7.9-4.9l-43.7-9.1l-4.5-0.9c-5.3-1.1-9.8-4.4-12.5-9.1c-1.4-2.4-2.2-5.1-2.5-7.9
		c-0.2-2.5,0.1-5.1,0.9-7.5l15.1-45.6l9.8-29.6c1.2-3.6,1.9-7.3,2.1-11c0.5-10.4-2.7-20.7-9.1-28.9c-11.5-14.8-31.5-20.4-49-13.6
		c-0.2,0.1-0.5,0.2-0.8,0.3c-12.4,5-21.8,15.5-25.3,28.4L192,453.3l-22,80.1c-8.5,30.8,9.6,62.6,40.4,71c2.8,0.8,5.7,1.3,8.6,1.7
		l63,7.4l29.1,3.4c7,0.8,13.4-3.8,14.8-10.7c0-0.2,0.1-0.4,0.1-0.6l0.7-4.3l5.9-36.4l0.1-0.4C333.3,560.8,332.3,556.9,330,553.9z"/>
	<path class="st0" d="M445.4,631.3c16.3,3.8,32.6-6.4,36.4-22.7c0.4-1.7,0.7-3.5,0.7-5.3l103.4-30l-42.6-36.3l-91.6,34
		c-16.8,0.2-30.2,14.1-30,30.9C421.8,616.1,431.6,628.2,445.4,631.3L445.4,631.3z"/>
	<path class="st7" d="M637.1,506.3L588,393.1c-4-9.3-11.2-16.9-20.3-21.4c-2.8-1.4-5.7-2.5-8.8-3.2c-0.5-0.1-0.9-0.2-1.4-0.3
		c-6.4-1.4-13.1-1.3-19.5,0.4c-11.8,3-21.7,10.9-27.3,21.7c0,0-0.1,0.1-0.1,0.1c-6.3,12.2-6.4,26.6-0.4,38.9l0.6,1.2l34.7,69.8
		c4.6,9.3,0.8,20.7-8.5,25.3c-0.6,0.3-1.3,0.6-2,0.9l-2.4,0.9l-43.9,15.8c-6.8,2.4-10.5,9.9-8.3,16.8l0.1,0.4l12.3,39.4
		c0.1,0.2,0.1,0.4,0.2,0.5c0.1,0.3,0.2,0.7,0.4,1c2.7,6.1,9.4,9.3,15.8,7.5l23.7-6.2l4.8-1.3l61.2-16.1
		c30.8-8.1,49.2-39.8,41.1-70.6C639.3,511.7,638.3,508.9,637.1,506.3L637.1,506.3z"/>
	<path class="st8" d="M153.3,601.3c14.2,17.3,29.5,33.6,45.8,48.9h452c9.1,0,16.4,7.4,16.4,16.4l0.7,114.5
		c27.8-12.8,53.8-29.1,77.5-48.5c6.6-5.4,12.9-11,19.1-16.9c4-3.8,8-7.7,11.8-11.7c28.8-30,52.1-64.7,68.8-102.7H153.3z"/>
	<path class="st9" d="M776.4,704c-3.8,4-7.8,7.9-11.8,11.7h-96.2V704H776.4z"/>
	<path class="st10" d="M567,328.5c-1-1.8-2.8-2.9-4.9-2.9H234.3c-3.1,0-5.5,2.5-5.5,5.5v196.2h338.9V331.2
		C567.7,330.2,567.5,329.3,567,328.5z"/>
	<path class="st10" d="M228.5,522.1v24.2c0,4.2,3.4,7.6,7.6,7.6c0,0,0,0,0,0h125.1v47.8h-1.7c-0.5,0-1,0.4-1,1c0,0,0,0,0,0v3.3
		c0,0.5,0.4,1,1,1c0,0,0,0,0,0h77.7c0.5,0,1-0.4,1-1c0,0,0,0,0,0v-3.3c0-0.5-0.4-1-1-1c0,0,0,0,0,0h-1.7v-47.8h125.1
		c4.2,0,7.6-3.4,7.6-7.6c0,0,0,0,0,0v-24.2H228.5z"/>
	<circle class="st11" cx="398.4" cy="421.3" r="31.3"/>
	<path class="st7" d="M474,245.6h-5c0-37.8-37.4-62.6-75.1-62.6c-5.5,0-11,0.5-16.4,1.6c-6.1,1.2-12.4,2.7-18.5,4.6
		c-24.4,7.5-47,21.9-47,56.4c0,6.7,0.8,13.4,2.5,19.9l-4.8,1.3c-1.8-6.9-2.7-14-2.7-21.1c0-30.2,12.4-50.9,33.8-63.3
		c11.2-6.5,25-10.7,40.7-12.7c6.5-0.9,13.2-1.1,19.8-0.6C444.7,172.1,474,205.4,474,245.6z"/>
	<path class="st7" d="M482.4,248.3l-2-14.6c-0.5-3.7-2.3-7.1-5-9.6c-3.6-3.3-8.5-4.8-13.2-4l-3.1,0.4c-1.7,0.2-3.3,1.1-4.3,2.5
		c-1.1,1.4-1.5,3.1-1.3,4.9l4.5,33.5c0.4,2.8,2.5,5,5.3,5.6c0.4,0.1,0.8,0.1,1.2,0.1c0.3,0,0.6,0,0.9-0.1l3.5-0.5
		c4.3-0.6,8.2-2.9,10.7-6.4c0.3-0.4,0.5-0.8,0.8-1.2C482.2,255.9,482.9,252.1,482.4,248.3z"/>
	<path class="st6" d="M457,221.3c-0.9,0.4-1.7,1.1-2.3,1.9c-1.1,1.4-1.5,3.1-1.3,4.9l4.5,33.5c0.4,2.8,2.5,5,5.3,5.6L457,221.3z"/>
	<path class="st6" d="M482.4,248.3l-2-14.6c-0.5-3.7-2.3-7.1-5-9.6l4.5,33.4c0.1,0.5,0.2,1.1,0.4,1.6
		C482.2,255.9,482.9,252.1,482.4,248.3z"/>
	<ellipse transform="matrix(0.9909 -0.1344 0.1344 0.9909 -29.6321 64.9108)" class="st6" cx="465.9" cy="251.9" rx="2.5" ry="7"/>
	<ellipse transform="matrix(0.9909 -0.1344 0.1344 0.9909 -27.2397 64.3442)" class="st6" cx="462.9" cy="233.9" rx="2.5" ry="7"/>
	<ellipse transform="matrix(0.9909 -0.1344 0.1344 0.9909 -28.0082 66.9618)" class="st6" cx="481.9" cy="240.9" rx="2.5" ry="7"/>
	<path class="st6" d="M393.9,183c-5.5,0-11,0.5-16.4,1.6c-6.1,1.2-12.4,2.7-18.5,4.6c-9.6-0.5-16.8-3-18.2-6.8
		c11.2-6.5,25-10.7,40.7-12.7c6.5-0.9,13.2-1.1,19.8-0.6c1.4,0.8,2.4,2.2,2.7,3.8C404.5,176.3,400.5,180,393.9,183z"/>
	<path class="st7" d="M330.1,280.3l-7.7-32c-0.6-2.4-2.5-4.2-4.9-4.6c-0.3-0.1-0.7-0.1-1-0.1c-0.5,0-0.9,0.1-1.4,0.2l-3,0.7
		c-8,1.9-12.9,10-11,18l3.5,14.4c0.8,3.4,2.7,6.4,5.3,8.6c0.4,0.4,0.9,0.7,1.4,1c3.4,2.1,7.5,2.8,11.4,1.8l3-0.7
		c0.8-0.2,1.5-0.5,2.2-1C329.7,285.1,330.6,282.6,330.1,280.3z"/>
	<ellipse transform="matrix(0.9722 -0.234 0.234 0.9722 -53.9186 80.4848)" class="st6" cx="312.3" cy="267.5" rx="2.5" ry="7"/>
	<ellipse transform="matrix(0.9722 -0.234 0.234 0.9722 -54.898 78.2285)" class="st6" cx="302.3" cy="270.5" rx="2.5" ry="7"/>
	<path class="st6" d="M330.5,280.1l-7.7-32c-0.6-2.6-2.7-4.5-5.3-4.9l10.5,43.7C330.2,285.4,331.2,282.7,330.5,280.1z"/>
	<path class="st6" d="M302.8,256.1c-0.2-0.9-0.6-1.7-1.2-2.5c-1.1,2.8-1.3,5.9-0.6,8.8l3.5,14.4c0.8,3.4,2.7,6.4,5.3,8.6
		L302.8,256.1z"/>
	<path class="st9" d="M228.3,521.8V546c0,4.2,3.4,7.6,7.6,7.6c0,0,0,0,0,0h125.1v47.8h-1.7c-0.5,0-1,0.4-1,1c0,0,0,0,0,0v3.3
		c0,0.5,0.4,1,1,1c0,0,0,0,0,0h77.7c0.5,0,1-0.4,1-1c0,0,0,0,0,0v-3.3c0-0.5-0.4-1-1-1c0,0,0,0,0,0h-1.7v-47.8h125.1
		c4.2,0,7.6-3.4,7.6-7.6c0,0,0,0,0,0v-24.2H228.3z"/>
	<path class="st3" d="M575.4,122.5c-2.4,0-4.3,1.9-4.3,4.3V273c0,2.4,1.9,4.3,4.3,4.3h498.7c2.4,0,4.3-1.9,4.3-4.3V126.8
		c0-2.4-1.9-4.3-4.3-4.3L575.4,122.5z"/>
	<path class="st11" d="M581.8,266.1h485.8V132.8H581.8V266.1z"/>
	<path class="st7" d="M1006.3,238.9c-3.9,0-7.1,3.2-7.1,7.1c0,3.9,3.2,7.1,7.1,7.1c0,0,0,0,0,0h28.4c3.9,0,7.1-3.2,7.1-7.1
		c0-3.9-3.2-7.1-7.1-7.1H1006.3z"/>
	<rect x="713.8" y="225.2" class="st3" width="328" height="1.9"/>
	<circle class="st7" cx="647.8" cy="199.4" r="41.4"/>
	<polygon class="st6" points="714.4,214.7 713.3,213.2 747.4,190.4 770.8,201.7 804.4,180.2 804.8,180.4 871.3,208.7 924.5,182.5 
		976.2,203.5 1041.2,146 1042.4,147.4 976.6,205.7 924.6,184.6 871.3,210.8 804.6,182.3 770.9,203.8 747.5,192.6 	"/>
	<path class="st3" d="M719.9,239.9c-3.4,0-6.1,2.7-6.1,6.1c0,3.4,2.7,6.1,6.1,6.1h63.5c3.4,0,6.1-2.7,6.1-6.1c0-3.4-2.7-6.1-6.1-6.1
		H719.9z"/>
	<path class="st11" d="M663.5,175.8c-1.1-0.7-2.6-0.4-3.4,0.7c-0.7,1.1-0.4,2.6,0.7,3.4c6.6,4.4,10.5,11.7,10.5,19.6
		c0,10.3-6.6,19-15.7,22.2c0.4-1.8,0.2-3.8-0.7-5.5l9.9-9.9c3.8-3.8,3.8-9.9,0-13.6c-3.6-3.6-9.5-3.8-13.3-0.3
		c-1.1-0.6-2.4-0.9-3.7-0.9c-4.4,0-8,3.6-8,8c0,1.3,0.3,2.5,0.9,3.7c-2,1.7-5.1,1.5-6.8-0.6c-1.6-1.9-1.5-4.8,0.3-6.5l9.9-9.9
		c3.9,2.1,8.8,0.6,10.8-3.3c2.1-3.9,0.6-8.8-3.3-10.8c-1.2-0.6-2.4-0.9-3.8-0.9c-15.7,0-28.4,12.7-28.4,28.4
		c0,9.5,4.8,18.4,12.7,23.6c1.1,0.7,2.6,0.4,3.4-0.7c0.7-1.1,0.4-2.6-0.7-3.4c-6.6-4.4-10.5-11.7-10.5-19.6c0-10.2,6.6-19,15.7-22.2
		c-0.4,1.8-0.2,3.8,0.7,5.5l-9.9,9.9c-3.8,3.8-3.8,9.9,0,13.6c3.6,3.6,9.5,3.8,13.3,0.3c1.1,0.6,2.4,0.9,3.7,0.9c4.4,0,8-3.6,8-8
		c0-1.3-0.3-2.5-0.9-3.7c2-1.7,5.1-1.4,6.8,0.6c1.6,1.9,1.5,4.7-0.3,6.5l-9.9,9.9c-3.9-2.1-8.8-0.5-10.8,3.4
		c-2.1,3.9-0.5,8.8,3.4,10.8c1.1,0.6,2.4,0.9,3.7,0.9c15.7,0,28.4-12.7,28.4-28.4C676.2,189.9,671.4,181.1,663.5,175.8z
		 M650.9,179.1c0,1.7-1.4,3.2-3.2,3.2c-1.7,0-3.2-1.4-3.2-3.2s1.4-3.2,3.2-3.2l0,0C649.5,175.9,650.9,177.3,650.9,179.1z
		 M647.8,202.6c-1.7,0-3.2-1.4-3.2-3.2s1.4-3.2,3.2-3.2c1.7,0,3.2,1.4,3.2,3.2l0,0C650.9,201.2,649.5,202.6,647.8,202.6
		C647.8,202.6,647.8,202.6,647.8,202.6L647.8,202.6z M647.8,216.6c1.7,0,3.2,1.4,3.2,3.2c0,1.7-1.4,3.2-3.2,3.2
		c-1.7,0-3.2-1.4-3.2-3.2C644.6,218.1,646,216.6,647.8,216.6L647.8,216.6z"/>
</g>
</svg>
